<?xml version="1.0"?>
<Project_Data Version="8.00">
<Project_Settings>
<ProfileName>MP4 only (up to 1080p)</ProfileName>
<ProjectWidth>1280</ProjectWidth>
<ProjectHeight>720</ProjectHeight>
<IsCustomProject>1</IsCustomProject>
<SavedProjectSettings>1</SavedProjectSettings>
<LastFlashTemplate>-1</LastFlashTemplate>
</Project_Settings>


<AutoSaveFile>C:\Users\laj30\AppData\Local\TechSmith\Camtasia Studio\8.0\Auto-Saves\Something About Lasers Teaser Camtasia17fe940.autosave.camproj</AutoSaveFile>

<ProjectID>D18A2AEE-A773-429D-BC16-BCE112BE9992</ProjectID>

<PowerPointProject>0</PowerPointProject>

<PowerPointFilename></PowerPointFilename>


<Project_Notes>
</Project_Notes>

<Project_MetaData>
<Project_MetaData_Object>
<FieldArrayKey>8</FieldArrayKey>
<Value>Angular Momentor Teaser</Value>
</Project_MetaData_Object>
<Project_MetaData_Object>
<FieldArrayKey>13</FieldArrayKey>
<Value>2015-09-09 05:07:00 PM</Value>
</Project_MetaData_Object>
<Project_MetaData_Object>
<FieldArrayKey>16</FieldArrayKey>
<Value>ENU</Value>
</Project_MetaData_Object>
</Project_MetaData>

<CSMLData>
<GoProject id="1" version="3.0" >
 <Project id="2" editRate="30/1" version="3.0" >
  <Author></Author>
  <Comment></Comment>
  <System></System>
  <SourceBin id="3"  >
    <Source id="4" src="C:\Users\laj30\Documents\Unity Projects\Something About Lasers\Admin\Teaser Gameplay Footage\Something About Lasers Win 2015-09-10 16-10-35-39.avi" lastMod="20150910T151040" rect="(0,0,1920,1200)" >
      <SourceTrack range="(0,49666667)" type="0" editRate="10000000/1" trackRect="(0,0,1920,1200)" sampleRate="5000000/83333" bitDepth="24" numChannels="0" filename="" metaData="" />
      <SourceTrack range="(0,50000000)" type="2" editRate="10000000/1" trackRect="(0,0,0,0)" sampleRate="44100/1" bitDepth="16" numChannels="2" filename="" metaData="" />
    </Source>
    <Source id="5" src="C:\Users\laj30\Documents\Unity Projects\Something About Lasers\Admin\Teaser Gameplay Footage\Something About Lasers Win 2015-09-10 16-11-09-27.avi" lastMod="20150910T151128" rect="(0,0,1920,1200)" >
      <SourceTrack range="(0,191333333)" type="0" editRate="10000000/1" trackRect="(0,0,1920,1200)" sampleRate="5000000/83333" bitDepth="24" numChannels="0" filename="" metaData="" />
      <SourceTrack range="(0,191333333)" type="2" editRate="10000000/1" trackRect="(0,0,0,0)" sampleRate="44100/1" bitDepth="16" numChannels="2" filename="" metaData="" />
    </Source>
    <Source id="6" src="C:\Users\laj30\Documents\Unity Projects\Something About Lasers\Admin\Teaser Gameplay Footage\Something About Lasers Win 2015-09-10 16-12-14-79.avi" lastMod="20150910T151235" rect="(0,0,1920,1200)" >
      <SourceTrack range="(0,201666667)" type="0" editRate="10000000/1" trackRect="(0,0,1920,1200)" sampleRate="5000000/83333" bitDepth="24" numChannels="0" filename="" metaData="" />
      <SourceTrack range="(0,201666667)" type="2" editRate="10000000/1" trackRect="(0,0,0,0)" sampleRate="44100/1" bitDepth="16" numChannels="2" filename="" metaData="" />
    </Source>
    <Source id="7" src="C:\Users\laj30\Documents\Unity Projects\Something About Lasers\Admin\Teaser Gameplay Footage\Something About Lasers Win 2015-09-10 16-13-04-59.avi" lastMod="20150910T151314" rect="(0,0,1920,1200)" >
      <SourceTrack range="(0,98666667)" type="0" editRate="10000000/1" trackRect="(0,0,1920,1200)" sampleRate="5000000/83333" bitDepth="24" numChannels="0" filename="" metaData="" />
      <SourceTrack range="(0,98666667)" type="2" editRate="10000000/1" trackRect="(0,0,0,0)" sampleRate="44100/1" bitDepth="16" numChannels="2" filename="" metaData="" />
    </Source>
    <Source id="8" src="C:\Users\laj30\Documents\Unity Projects\Something About Lasers\Admin\Teaser Gameplay Footage\Something About Lasers Win 2015-09-10 16-17-28-91.avi" lastMod="20150910T151733" rect="(0,0,1920,1200)" >
      <SourceTrack range="(0,48666667)" type="0" editRate="10000000/1" trackRect="(0,0,1920,1200)" sampleRate="5000000/83333" bitDepth="24" numChannels="0" filename="" metaData="" />
      <SourceTrack range="(0,48666667)" type="2" editRate="10000000/1" trackRect="(0,0,0,0)" sampleRate="44100/1" bitDepth="16" numChannels="2" filename="" metaData="" />
    </Source>
    <Source id="9" src="C:\Users\laj30\Documents\Unity Projects\Something About Lasers\Admin\Teaser Gameplay Footage\Something About Lasers Win 2015-09-10 16-18-06-20.avi" lastMod="20150910T151823" rect="(0,0,1920,1200)" >
      <SourceTrack range="(0,176000000)" type="0" editRate="10000000/1" trackRect="(0,0,1920,1200)" sampleRate="5000000/83333" bitDepth="24" numChannels="0" filename="" metaData="" />
      <SourceTrack range="(0,176000000)" type="2" editRate="10000000/1" trackRect="(0,0,0,0)" sampleRate="44100/1" bitDepth="16" numChannels="2" filename="" metaData="" />
    </Source>
    <Source id="10" src="C:\Users\laj30\Documents\Unity Projects\Something About Lasers\Assets\Audio\Music\Dream Culture.mp3" lastMod="20150724T130424" rect="(0,0,0,0)" >
      <SourceTrack range="(0,2144000000)" type="2" editRate="10000000/1" trackRect="(0,0,0,0)" sampleRate="44100/1" bitDepth="0" numChannels="2" filename="" metaData="" />
    </Source>
    <Source id="11" src="C:\Users\laj30\Documents\Unity Projects\Something About Lasers\Assets\Audio\Music\Kick Shock.mp3" lastMod="20150727T102016" rect="(0,0,0,0)" >
      <SourceTrack range="(0,650333333)" type="2" editRate="10000000/1" trackRect="(0,0,0,0)" sampleRate="44100/1" bitDepth="0" numChannels="2" filename="" metaData="" />
    </Source>
    <Source id="12" src="C:\Users\laj30\Documents\Unity Projects\Something About Lasers\Assets\Audio\Music\Movement Proposition.mp3" lastMod="20150724T124033" rect="(0,0,0,0)" >
      <SourceTrack range="(0,1410666667)" type="2" editRate="10000000/1" trackRect="(0,0,0,0)" sampleRate="44100/1" bitDepth="0" numChannels="2" filename="" metaData="" />
    </Source>
    <Source id="13" src="C:\Users\laj30\Documents\Unity Projects\Something About Lasers\Assets\Audio\Goal.wav" lastMod="20150724T131757" rect="(0,0,0,0)" >
      <SourceTrack range="(0,8000000)" type="2" editRate="10000000/1" trackRect="(0,0,0,0)" sampleRate="44100/1" bitDepth="16" numChannels="2" filename="" metaData="" />
    </Source>
    <Source id="14" src="C:\Users\laj30\Documents\Unity Projects\Something About Lasers\Admin\Teaser Gameplay Footage\Unity 2015-09-10 17-03-18-03.avi" lastMod="20150910T160348" rect="(0,0,1920,1066)" >
      <SourceTrack range="(0,299666667)" type="0" editRate="10000000/1" trackRect="(0,0,1920,1066)" sampleRate="5000000/83333" bitDepth="24" numChannels="0" filename="" metaData="" />
      <SourceTrack range="(0,299666667)" type="2" editRate="10000000/1" trackRect="(0,0,0,0)" sampleRate="44100/1" bitDepth="16" numChannels="2" filename="" metaData="" />
    </Source>
    <Source id="15" src="C:\Users\laj30\Documents\Unity Projects\Something About Lasers\Admin\Teaser Gameplay Footage\Unity 2015-09-10 17-04-08-60.avi" lastMod="20150910T160438" rect="(0,0,1920,1066)" >
      <SourceTrack range="(0,299666667)" type="0" editRate="10000000/1" trackRect="(0,0,1920,1066)" sampleRate="5000000/83333" bitDepth="24" numChannels="0" filename="" metaData="" />
      <SourceTrack range="(0,299666667)" type="2" editRate="10000000/1" trackRect="(0,0,0,0)" sampleRate="44100/1" bitDepth="16" numChannels="2" filename="" metaData="" />
    </Source>
    <Source id="16" src="C:\Users\laj30\Documents\Unity Projects\Something About Lasers\Admin\Teaser Gameplay Footage\Unity 2015-09-10 17-04-43-65.avi" lastMod="20150910T160513" rect="(0,0,1920,1066)" >
      <SourceTrack range="(0,299666667)" type="0" editRate="10000000/1" trackRect="(0,0,1920,1066)" sampleRate="5000000/83333" bitDepth="24" numChannels="0" filename="" metaData="" />
      <SourceTrack range="(0,299666667)" type="2" editRate="10000000/1" trackRect="(0,0,0,0)" sampleRate="44100/1" bitDepth="16" numChannels="2" filename="" metaData="" />
    </Source>
    <Source id="17" src="C:\Users\laj30\Documents\Unity Projects\Something About Lasers\Admin\Teaser Gameplay Footage\wmplayer 2015-09-11 09-58-40-54.avi" lastMod="20150911T085859" rect="(0,0,1920,1200)" >
      <SourceTrack range="(0,183666667)" type="0" editRate="10000000/1" trackRect="(0,0,1920,1200)" sampleRate="5000000/83333" bitDepth="24" numChannels="0" filename="" metaData="" />
      <SourceTrack range="(0,183666667)" type="2" editRate="10000000/1" trackRect="(0,0,0,0)" sampleRate="44100/1" bitDepth="16" numChannels="2" filename="" metaData="" />
    </Source>
    <Source id="18" src="C:\Users\laj30\Documents\Unity Projects\Something About Lasers\Admin\Teaser Gameplay Footage\wmplayer 2015-09-11 10-17-11-07.avi" lastMod="20150911T091741" rect="(0,0,1920,1200)" >
      <SourceTrack range="(0,288666667)" type="0" editRate="10000000/1" trackRect="(0,0,1920,1200)" sampleRate="5000000/83333" bitDepth="24" numChannels="0" filename="" metaData="" />
      <SourceTrack range="(0,290000000)" type="2" editRate="10000000/1" trackRect="(0,0,0,0)" sampleRate="44100/1" bitDepth="16" numChannels="2" filename="" metaData="" />
    </Source>
  </SourceBin>
  <Timeline id="19"  >
   <Attributes>
    <Attribute id="20" value="1280" name="width"/>
    <Attribute id="21" value="720" name="height"/>
    <Attribute id="22" value="(0,0,0,255)" name="backgroundColor"/>
   </Attributes>
    <GenericMixer id="23"  name="Unified Mixer">
     <MetaData>
      <entry key="MixerType" val="TimelineMixer"/>
     </MetaData>
     <Tracks>
      <GenericTrack id="24"  >
       <Attributes>
        <Attribute id="25" value="" name="ident"/>
        <Attribute id="26" value="0" name="audioMuted"/>
        <Attribute id="27" value="0" name="videoHidden"/>
       </Attributes>
       <MetaData>
        <entry key="IsLocked" val="False"/>
        <entry key="WinTrackHeight" val="56.704545454545439"/>
       </MetaData>
       <Medias>
        <AMFile id="28" start="0" duration="1950" scalar="1/1" mediaStart="0/1" mediaDuration="1950/1" trackNumber="0" src="11" channelNumber="0,1" >
         <Parameters>
          <InterpolatingParam id="29" interp="linr"  name="volume">
           <Keyframes>
           <Keyframe id="30"  time="0/1" value="0" leadInLength="0/1"  />
           <Keyframe id="31"  time="119/1" value="0.8014769230769232" leadInLength="0/1"  />
           <Keyframe id="32"  time="1295/1" value="0.80147692307692264" leadInLength="0/1"  />
           <Keyframe id="33"  time="1380/1" value="0" leadInLength="0/1"  />
           <Keyframe id="34"  time="1950/1" value="0" leadInLength="0/1"  />
           </Keyframes>
          </InterpolatingParam>
          <Parameter id="35"  name="captions"/>
         </Parameters>
         <Attributes>
          <Attribute id="36" value="" name="ident"/>
          <Attribute id="37" value="44100" name="sampleRate"/>
          <Attribute id="38" value="0" name="bitDepth"/>
          <Attribute id="39" value="1" name="gain"/>
          <Attribute id="40" value="0" name="mixToMono"/>
         </Attributes>
         <MetaData>
          <entry key="WinSubProjectDisplayName" val=""/>
         </MetaData>
        </AMFile>
       </Medias>
      </GenericTrack>
      <GenericTrack id="41"  >
       <Attributes>
        <Attribute id="42" value="" name="ident"/>
        <Attribute id="43" value="0" name="audioMuted"/>
        <Attribute id="44" value="0" name="videoHidden"/>
       </Attributes>
       <MetaData>
        <entry key="IsLocked" val="False"/>
        <entry key="WinTrackHeight" val="56.704545454545439"/>
       </MetaData>
       <Medias>
        <AMFile id="45" start="1295" duration="1187" scalar="1/1" mediaStart="0/1" mediaDuration="1187/1" trackNumber="0" src="12" channelNumber="0,1" >
         <Parameters>
          <InterpolatingParam id="46" interp="linr"  name="volume">
           <Keyframes>
           <Keyframe id="47"  time="0/1" value="0" leadInLength="0/1"  />
           <Keyframe id="48"  time="66/1" value="1" leadInLength="0/1"  />
           <Keyframe id="49"  time="955/1" value="1" leadInLength="0/1"  />
           <Keyframe id="50"  time="994/1" value="0.57703909843979151" leadInLength="0/1"  />
           <Keyframe id="51"  time="1083/1" value="0.4302451055958052" leadInLength="0/1"  />
           <Keyframe id="52"  time="1182/1" value="0" leadInLength="0/1"  />
           </Keyframes>
          </InterpolatingParam>
          <Parameter id="53"  name="captions"/>
         </Parameters>
         <Attributes>
          <Attribute id="54" value="" name="ident"/>
          <Attribute id="55" value="44100" name="sampleRate"/>
          <Attribute id="56" value="0" name="bitDepth"/>
          <Attribute id="57" value="1" name="gain"/>
          <Attribute id="58" value="0" name="mixToMono"/>
         </Attributes>
         <MetaData>
          <entry key="WinSubProjectDisplayName" val=""/>
         </MetaData>
        </AMFile>
       </Medias>
      </GenericTrack>
      <GenericTrack id="59"  >
       <Attributes>
        <Attribute id="60" value="" name="ident"/>
        <Attribute id="61" value="0" name="audioMuted"/>
        <Attribute id="62" value="0" name="videoHidden"/>
       </Attributes>
       <MetaData>
        <entry key="IsLocked" val="False"/>
        <entry key="WinTrackHeight" val="56.704545454545439"/>
       </MetaData>
       <Medias>
        <UnifiedMedia id="63"  >
         <AMFile id="64" start="146" duration="124" scalar="1/1" mediaStart="0/1" mediaDuration="124/1" trackNumber="1" src="4" channelNumber="0,1" >
          <Parameters>
           <InterpolatingParam id="65" interp="linr"  time="0/1" value="0" leadInLength="0/1"  name="volume"/>
           <Parameter id="66"  name="captions"/>
          </Parameters>
          <Attributes>
           <Attribute id="67" value="" name="ident"/>
           <Attribute id="68" value="44100" name="sampleRate"/>
           <Attribute id="69" value="16" name="bitDepth"/>
           <Attribute id="70" value="1" name="gain"/>
           <Attribute id="71" value="0" name="mixToMono"/>
          </Attributes>
         </AMFile>
         <VMFile id="72" start="146" duration="124" scalar="1/1" mediaStart="0/1" mediaDuration="124/1" trackNumber="0" src="4" >
          <Transformer>
           <VectorParam id="73"  name="translation">
            <InterpolatingParam id="74" interp="linr"  time="-9999999/1" value="0" leadInLength="0/1"  />
            <InterpolatingParam id="75" interp="linr"  time="-9999999/1" value="0" leadInLength="0/1"  />
            <InterpolatingParam id="76" interp="linr"  time="-9999999/1" value="0" leadInLength="0/1"  />
           </VectorParam>
           <VectorParam id="77"  name="rotation">
            <InterpolatingParam id="78" interp="linr"  time="-9999999/1" value="0" leadInLength="0/1"  />
            <InterpolatingParam id="79" interp="linr"  time="-9999999/1" value="0" leadInLength="0/1"  />
            <InterpolatingParam id="80" interp="linr"  time="-9999999/1" value="0" leadInLength="0/1"  />
           </VectorParam>
           <VectorParam id="81"  name="shear">
            <InterpolatingParam id="82" interp="linr"  time="-9999999/1" value="0" leadInLength="0/1"  />
            <InterpolatingParam id="83" interp="linr"  time="-9999999/1" value="0" leadInLength="0/1"  />
            <InterpolatingParam id="84" interp="linr"  time="-9999999/1" value="0" leadInLength="0/1"  />
           </VectorParam>
           <VectorParam id="85"  name="scale">
            <InterpolatingParam id="86" interp="linr"  time="-9999999/1" value="0.59999999999999998" leadInLength="0/1"  />
            <InterpolatingParam id="87" interp="linr"  time="-9999999/1" value="0.59999999999999998" leadInLength="0/1"  />
            <InterpolatingParam id="88" interp="linr"  time="-9999999/1" value="1" leadInLength="0/1"  />
           </VectorParam>
           <VectorParam id="89"  name="anchor">
            <InterpolatingParam id="90" interp="linr"  time="0/1" value="0" leadInLength="0/1"  />
            <InterpolatingParam id="91" interp="linr"  time="0/1" value="0" leadInLength="0/1"  />
            <InterpolatingParam id="92" interp="linr"  time="0/1" value="0" leadInLength="0/1"  />
           </VectorParam>
          </Transformer>
          <Parameters>
           <VectorParam id="93"  name="sourceCrop">
            <InterpolatingParam id="94" interp="linr"  time="0/1" value="0" leadInLength="0/1"  />
            <InterpolatingParam id="95" interp="linr"  time="0/1" value="0" leadInLength="0/1"  />
            <InterpolatingParam id="96" interp="linr"  time="0/1" value="0" leadInLength="0/1"  />
            <InterpolatingParam id="97" interp="linr"  time="0/1" value="0" leadInLength="0/1"  />
           </VectorParam>
           <VectorParam id="98"  name="geometryCrop">
            <InterpolatingParam id="99" interp="linr"  time="-9999999/1" value="0" leadInLength="0/1"  />
            <InterpolatingParam id="100" interp="linr"  time="-9999999/1" value="0" leadInLength="0/1"  />
            <InterpolatingParam id="101" interp="linr"  time="-9999999/1" value="0" leadInLength="0/1"  />
            <InterpolatingParam id="102" interp="linr"  time="-9999999/1" value="0" leadInLength="0/1"  />
           </VectorParam>
           <InterpolatingParam id="103" interp="linr"  time="-9999999/1" value="1" leadInLength="0/1"  name="opacity"/>
          </Parameters>
          <Attributes>
           <Attribute id="104" value="" name="ident"/>
          </Attributes>
          <ExtraData>
           <Entry key="ZoomPanBin">
            <ZoomPanBin id="105"  >
             <ZoomPanKeyframes>
              <ZoomPanKeyframe id="106" timeRangeEnd="-9999999/1" timeRangeDuration="0/1" interpolaterName="linr"  />
             </ZoomPanKeyframes>
            </ZoomPanBin>
           </Entry>
          </ExtraData>
         </VMFile>
         <MetaData>
          <entry key="WinSubProjectDisplayName" val=""/>
         </MetaData>
        </UnifiedMedia>
        <UnifiedMedia id="107"  >
         <AudioTransition id="108" start="270" duration="10" >
          <Parameters>
           <InterpolatingParam id="109" interp="linr"  time="0/1" value="1" leadInLength="0/1"  name="volume"/>
           <Parameter id="110"  name="captions"/>
          </Parameters>
          <Effects>
           <GenericEffect id="111" name = "AudioTransition" >
            <Parameters>
            <Parameter id="112"   name="audioEdgeModType">
             <Keyframes>
             <Keyframe id="113"  time="0/1" value="0" leadInLength="0/1"  />
             </Keyframes>
            </Parameter>
            <Parameter id="114"   name="audioTransitionType">
             <Keyframes>
             <Keyframe id="115"  time="0/1" value="" leadInLength="0/1"  />
             </Keyframes>
            </Parameter>
            </Parameters>
            <MetaData>
            </MetaData>
           </GenericEffect>
          </Effects>
          <Attributes>
           <Attribute id="116" value="" name="ident"/>
           <Attribute id="117" value="0" name="sampleRate"/>
           <Attribute id="118" value="0" name="bitDepth"/>
           <Attribute id="119" value="1" name="gain"/>
           <Attribute id="120" value="0" name="mixToMono"/>
          </Attributes>
         </AudioTransition>
         <ImageTransition id="121" start="270" duration="10" >
          <Transformer>
           <VectorParam id="122"  name="translation">
            <InterpolatingParam id="123" interp="linr"  time="0/1" value="0" leadInLength="0/1"  />
            <InterpolatingParam id="124" interp="linr"  time="0/1" value="0" leadInLength="0/1"  />
            <InterpolatingParam id="125" interp="linr"  time="0/1" value="0" leadInLength="0/1"  />
           </VectorParam>
           <VectorParam id="126"  name="rotation">
            <InterpolatingParam id="127" interp="linr"  time="0/1" value="0" leadInLength="0/1"  />
            <InterpolatingParam id="128" interp="linr"  time="0/1" value="0" leadInLength="0/1"  />
            <InterpolatingParam id="129" interp="linr"  time="0/1" value="0" leadInLength="0/1"  />
           </VectorParam>
           <VectorParam id="130"  name="shear">
            <InterpolatingParam id="131" interp="linr"  time="0/1" value="0" leadInLength="0/1"  />
            <InterpolatingParam id="132" interp="linr"  time="0/1" value="0" leadInLength="0/1"  />
            <InterpolatingParam id="133" interp="linr"  time="0/1" value="0" leadInLength="0/1"  />
           </VectorParam>
           <VectorParam id="134"  name="scale">
            <InterpolatingParam id="135" interp="linr"  time="0/1" value="1" leadInLength="0/1"  />
            <InterpolatingParam id="136" interp="linr"  time="0/1" value="1" leadInLength="0/1"  />
            <InterpolatingParam id="137" interp="linr"  time="0/1" value="1" leadInLength="0/1"  />
           </VectorParam>
           <VectorParam id="138"  name="anchor">
            <InterpolatingParam id="139" interp="linr"  time="0/1" value="0" leadInLength="0/1"  />
            <InterpolatingParam id="140" interp="linr"  time="0/1" value="0" leadInLength="0/1"  />
            <InterpolatingParam id="141" interp="linr"  time="0/1" value="0" leadInLength="0/1"  />
           </VectorParam>
          </Transformer>
          <Parameters>
           <VectorParam id="142"  name="sourceCrop">
            <InterpolatingParam id="143" interp="linr"  time="0/1" value="0" leadInLength="0/1"  />
            <InterpolatingParam id="144" interp="linr"  time="0/1" value="0" leadInLength="0/1"  />
            <InterpolatingParam id="145" interp="linr"  time="0/1" value="0" leadInLength="0/1"  />
            <InterpolatingParam id="146" interp="linr"  time="0/1" value="0" leadInLength="0/1"  />
           </VectorParam>
           <VectorParam id="147"  name="geometryCrop">
            <InterpolatingParam id="148" interp="linr"  time="0/1" value="0" leadInLength="0/1"  />
            <InterpolatingParam id="149" interp="linr"  time="0/1" value="0" leadInLength="0/1"  />
            <InterpolatingParam id="150" interp="linr"  time="0/1" value="0" leadInLength="0/1"  />
            <InterpolatingParam id="151" interp="linr"  time="0/1" value="0" leadInLength="0/1"  />
           </VectorParam>
           <InterpolatingParam id="152" interp="linr"  time="0/1" value="1" leadInLength="0/1"  name="opacity"/>
          </Parameters>
          <Effects>
           <GenericEffect id="153" name = "VisualTransition" >
            <Parameters>
            <InterpolatingParam id="154" interp="linr"  time="0/1" value="1" leadInLength="0/1"   name="leftFramePercentage"/>
            <InterpolatingParam id="155" interp="linr"  time="0/1" value="1" leadInLength="0/1"   name="rightFramePercentage"/>
            <Parameter id="156"   name="visualEdgeModType">
             <Keyframes>
             <Keyframe id="157"  time="0/1" value="0" leadInLength="0/1"  />
             </Keyframes>
            </Parameter>
            <Parameter id="158"   name="visualTransitionType">
             <Keyframes>
             <Keyframe id="159"  time="0/1" value="Fade" leadInLength="0/1"  />
             </Keyframes>
            </Parameter>
            </Parameters>
            <MetaData>
            </MetaData>
           </GenericEffect>
          </Effects>
          <Attributes>
           <Attribute id="160" value="" name="ident"/>
          </Attributes>
          <ExtraData>
           <Entry key="ZoomPanBin">
            <ZoomPanBin id="161"  >
             <ZoomPanKeyframes>
             </ZoomPanKeyframes>
            </ZoomPanBin>
           </Entry>
          </ExtraData>
         </ImageTransition>
         <MetaData>
          <entry key="WinSubProjectDisplayName" val=""/>
         </MetaData>
        </UnifiedMedia>
        <UnifiedMedia id="162"  >
         <AMFile id="163" start="280" duration="230" scalar="1/1" mediaStart="189/1" mediaDuration="230/1" trackNumber="1" src="5" channelNumber="0,1" >
          <Parameters>
           <InterpolatingParam id="164" interp="linr"  time="0/1" value="0" leadInLength="0/1"  name="volume"/>
           <Parameter id="165"  name="captions"/>
          </Parameters>
          <Attributes>
           <Attribute id="166" value="" name="ident"/>
           <Attribute id="167" value="44100" name="sampleRate"/>
           <Attribute id="168" value="16" name="bitDepth"/>
           <Attribute id="169" value="1" name="gain"/>
           <Attribute id="170" value="0" name="mixToMono"/>
          </Attributes>
         </AMFile>
         <VMFile id="171" start="280" duration="230" scalar="1/1" mediaStart="189/1" mediaDuration="230/1" trackNumber="0" src="5" >
          <Transformer>
           <VectorParam id="172"  name="translation">
            <InterpolatingParam id="173" interp="linr"  time="-9999999/1" value="0" leadInLength="0/1"  />
            <InterpolatingParam id="174" interp="linr"  time="-9999999/1" value="0" leadInLength="0/1"  />
            <InterpolatingParam id="175" interp="linr"  time="-9999999/1" value="0" leadInLength="0/1"  />
           </VectorParam>
           <VectorParam id="176"  name="rotation">
            <InterpolatingParam id="177" interp="linr"  time="-9999999/1" value="0" leadInLength="0/1"  />
            <InterpolatingParam id="178" interp="linr"  time="-9999999/1" value="0" leadInLength="0/1"  />
            <InterpolatingParam id="179" interp="linr"  time="-9999999/1" value="0" leadInLength="0/1"  />
           </VectorParam>
           <VectorParam id="180"  name="shear">
            <InterpolatingParam id="181" interp="linr"  time="-9999999/1" value="0" leadInLength="0/1"  />
            <InterpolatingParam id="182" interp="linr"  time="-9999999/1" value="0" leadInLength="0/1"  />
            <InterpolatingParam id="183" interp="linr"  time="-9999999/1" value="0" leadInLength="0/1"  />
           </VectorParam>
           <VectorParam id="184"  name="scale">
            <InterpolatingParam id="185" interp="linr"  time="-9999999/1" value="0.59999999999999998" leadInLength="0/1"  />
            <InterpolatingParam id="186" interp="linr"  time="-9999999/1" value="0.59999999999999998" leadInLength="0/1"  />
            <InterpolatingParam id="187" interp="linr"  time="-9999999/1" value="1" leadInLength="0/1"  />
           </VectorParam>
           <VectorParam id="188"  name="anchor">
            <InterpolatingParam id="189" interp="linr"  time="0/1" value="0" leadInLength="0/1"  />
            <InterpolatingParam id="190" interp="linr"  time="0/1" value="0" leadInLength="0/1"  />
            <InterpolatingParam id="191" interp="linr"  time="0/1" value="0" leadInLength="0/1"  />
           </VectorParam>
          </Transformer>
          <Parameters>
           <VectorParam id="192"  name="sourceCrop">
            <InterpolatingParam id="193" interp="linr"  time="0/1" value="0" leadInLength="0/1"  />
            <InterpolatingParam id="194" interp="linr"  time="0/1" value="0" leadInLength="0/1"  />
            <InterpolatingParam id="195" interp="linr"  time="0/1" value="0" leadInLength="0/1"  />
            <InterpolatingParam id="196" interp="linr"  time="0/1" value="0" leadInLength="0/1"  />
           </VectorParam>
           <VectorParam id="197"  name="geometryCrop">
            <InterpolatingParam id="198" interp="linr"  time="-9999999/1" value="0" leadInLength="0/1"  />
            <InterpolatingParam id="199" interp="linr"  time="-9999999/1" value="0" leadInLength="0/1"  />
            <InterpolatingParam id="200" interp="linr"  time="-9999999/1" value="0" leadInLength="0/1"  />
            <InterpolatingParam id="201" interp="linr"  time="-9999999/1" value="0" leadInLength="0/1"  />
           </VectorParam>
           <InterpolatingParam id="202" interp="linr"  time="-9999999/1" value="1" leadInLength="0/1"  name="opacity"/>
          </Parameters>
          <Attributes>
           <Attribute id="203" value="" name="ident"/>
          </Attributes>
          <ExtraData>
           <Entry key="ZoomPanBin">
            <ZoomPanBin id="204"  >
             <ZoomPanKeyframes>
              <ZoomPanKeyframe id="205" timeRangeEnd="-9999999/1" timeRangeDuration="0/1" interpolaterName="linr"  />
             </ZoomPanKeyframes>
            </ZoomPanBin>
           </Entry>
          </ExtraData>
         </VMFile>
         <MetaData>
          <entry key="WinSubProjectDisplayName" val=""/>
         </MetaData>
        </UnifiedMedia>
        <UnifiedMedia id="206"  >
         <AudioTransition id="207" start="510" duration="10" >
          <Parameters>
           <InterpolatingParam id="208" interp="linr"  time="0/1" value="1" leadInLength="0/1"  name="volume"/>
           <Parameter id="209"  name="captions"/>
          </Parameters>
          <Effects>
           <GenericEffect id="210" name = "AudioTransition" >
            <Parameters>
            <Parameter id="211"   name="audioEdgeModType">
             <Keyframes>
             <Keyframe id="212"  time="0/1" value="0" leadInLength="0/1"  />
             </Keyframes>
            </Parameter>
            <Parameter id="213"   name="audioTransitionType">
             <Keyframes>
             <Keyframe id="214"  time="0/1" value="" leadInLength="0/1"  />
             </Keyframes>
            </Parameter>
            </Parameters>
            <MetaData>
            </MetaData>
           </GenericEffect>
          </Effects>
          <Attributes>
           <Attribute id="215" value="" name="ident"/>
           <Attribute id="216" value="0" name="sampleRate"/>
           <Attribute id="217" value="0" name="bitDepth"/>
           <Attribute id="218" value="1" name="gain"/>
           <Attribute id="219" value="0" name="mixToMono"/>
          </Attributes>
         </AudioTransition>
         <ImageTransition id="220" start="510" duration="10" >
          <Transformer>
           <VectorParam id="221"  name="translation">
            <InterpolatingParam id="222" interp="linr"  time="0/1" value="0" leadInLength="0/1"  />
            <InterpolatingParam id="223" interp="linr"  time="0/1" value="0" leadInLength="0/1"  />
            <InterpolatingParam id="224" interp="linr"  time="0/1" value="0" leadInLength="0/1"  />
           </VectorParam>
           <VectorParam id="225"  name="rotation">
            <InterpolatingParam id="226" interp="linr"  time="0/1" value="0" leadInLength="0/1"  />
            <InterpolatingParam id="227" interp="linr"  time="0/1" value="0" leadInLength="0/1"  />
            <InterpolatingParam id="228" interp="linr"  time="0/1" value="0" leadInLength="0/1"  />
           </VectorParam>
           <VectorParam id="229"  name="shear">
            <InterpolatingParam id="230" interp="linr"  time="0/1" value="0" leadInLength="0/1"  />
            <InterpolatingParam id="231" interp="linr"  time="0/1" value="0" leadInLength="0/1"  />
            <InterpolatingParam id="232" interp="linr"  time="0/1" value="0" leadInLength="0/1"  />
           </VectorParam>
           <VectorParam id="233"  name="scale">
            <InterpolatingParam id="234" interp="linr"  time="0/1" value="1" leadInLength="0/1"  />
            <InterpolatingParam id="235" interp="linr"  time="0/1" value="1" leadInLength="0/1"  />
            <InterpolatingParam id="236" interp="linr"  time="0/1" value="1" leadInLength="0/1"  />
           </VectorParam>
           <VectorParam id="237"  name="anchor">
            <InterpolatingParam id="238" interp="linr"  time="0/1" value="0" leadInLength="0/1"  />
            <InterpolatingParam id="239" interp="linr"  time="0/1" value="0" leadInLength="0/1"  />
            <InterpolatingParam id="240" interp="linr"  time="0/1" value="0" leadInLength="0/1"  />
           </VectorParam>
          </Transformer>
          <Parameters>
           <VectorParam id="241"  name="sourceCrop">
            <InterpolatingParam id="242" interp="linr"  time="0/1" value="0" leadInLength="0/1"  />
            <InterpolatingParam id="243" interp="linr"  time="0/1" value="0" leadInLength="0/1"  />
            <InterpolatingParam id="244" interp="linr"  time="0/1" value="0" leadInLength="0/1"  />
            <InterpolatingParam id="245" interp="linr"  time="0/1" value="0" leadInLength="0/1"  />
           </VectorParam>
           <VectorParam id="246"  name="geometryCrop">
            <InterpolatingParam id="247" interp="linr"  time="0/1" value="0" leadInLength="0/1"  />
            <InterpolatingParam id="248" interp="linr"  time="0/1" value="0" leadInLength="0/1"  />
            <InterpolatingParam id="249" interp="linr"  time="0/1" value="0" leadInLength="0/1"  />
            <InterpolatingParam id="250" interp="linr"  time="0/1" value="0" leadInLength="0/1"  />
           </VectorParam>
           <InterpolatingParam id="251" interp="linr"  time="0/1" value="1" leadInLength="0/1"  name="opacity"/>
          </Parameters>
          <Effects>
           <GenericEffect id="252" name = "VisualTransition" >
            <Parameters>
            <InterpolatingParam id="253" interp="linr"  time="0/1" value="1" leadInLength="0/1"   name="leftFramePercentage"/>
            <InterpolatingParam id="254" interp="linr"  time="0/1" value="1" leadInLength="0/1"   name="rightFramePercentage"/>
            <Parameter id="255"   name="visualEdgeModType">
             <Keyframes>
             <Keyframe id="256"  time="0/1" value="0" leadInLength="0/1"  />
             </Keyframes>
            </Parameter>
            <Parameter id="257"   name="visualTransitionType">
             <Keyframes>
             <Keyframe id="258"  time="0/1" value="Fade" leadInLength="0/1"  />
             </Keyframes>
            </Parameter>
            </Parameters>
            <MetaData>
            </MetaData>
           </GenericEffect>
          </Effects>
          <Attributes>
           <Attribute id="259" value="" name="ident"/>
          </Attributes>
          <ExtraData>
           <Entry key="ZoomPanBin">
            <ZoomPanBin id="260"  >
             <ZoomPanKeyframes>
             </ZoomPanKeyframes>
            </ZoomPanBin>
           </Entry>
          </ExtraData>
         </ImageTransition>
         <MetaData>
          <entry key="WinSubProjectDisplayName" val=""/>
         </MetaData>
        </UnifiedMedia>
        <UnifiedMedia id="261"  >
         <AMFile id="262" start="520" duration="48" scalar="1/1" mediaStart="164/1" mediaDuration="48/1" trackNumber="1" src="17" channelNumber="0,1" >
          <Parameters>
           <InterpolatingParam id="263" interp="linr"  time="0/1" value="0" leadInLength="0/1"  name="volume"/>
           <Parameter id="264"  name="captions"/>
          </Parameters>
          <Attributes>
           <Attribute id="265" value="" name="ident"/>
           <Attribute id="266" value="44100" name="sampleRate"/>
           <Attribute id="267" value="16" name="bitDepth"/>
           <Attribute id="268" value="1" name="gain"/>
           <Attribute id="269" value="0" name="mixToMono"/>
          </Attributes>
         </AMFile>
         <VMFile id="270" start="520" duration="48" scalar="1/1" mediaStart="164/1" mediaDuration="48/1" trackNumber="0" src="17" >
          <Transformer>
           <VectorParam id="271"  name="translation">
            <InterpolatingParam id="272" interp="linr"  time="-9999999/1" value="0" leadInLength="0/1"  />
            <InterpolatingParam id="273" interp="linr"  time="-9999999/1" value="0" leadInLength="0/1"  />
            <InterpolatingParam id="274" interp="linr"  time="-9999999/1" value="0" leadInLength="0/1"  />
           </VectorParam>
           <VectorParam id="275"  name="rotation">
            <InterpolatingParam id="276" interp="linr"  time="-9999999/1" value="0" leadInLength="0/1"  />
            <InterpolatingParam id="277" interp="linr"  time="-9999999/1" value="0" leadInLength="0/1"  />
            <InterpolatingParam id="278" interp="linr"  time="-9999999/1" value="0" leadInLength="0/1"  />
           </VectorParam>
           <VectorParam id="279"  name="shear">
            <InterpolatingParam id="280" interp="linr"  time="-9999999/1" value="0" leadInLength="0/1"  />
            <InterpolatingParam id="281" interp="linr"  time="-9999999/1" value="0" leadInLength="0/1"  />
            <InterpolatingParam id="282" interp="linr"  time="-9999999/1" value="0" leadInLength="0/1"  />
           </VectorParam>
           <VectorParam id="283"  name="scale">
            <InterpolatingParam id="284" interp="linr"  time="-9999999/1" value="0.59999999999999998" leadInLength="0/1"  />
            <InterpolatingParam id="285" interp="linr"  time="-9999999/1" value="0.59999999999999998" leadInLength="0/1"  />
            <InterpolatingParam id="286" interp="linr"  time="-9999999/1" value="1" leadInLength="0/1"  />
           </VectorParam>
           <VectorParam id="287"  name="anchor">
            <InterpolatingParam id="288" interp="linr"  time="0/1" value="0" leadInLength="0/1"  />
            <InterpolatingParam id="289" interp="linr"  time="0/1" value="0" leadInLength="0/1"  />
            <InterpolatingParam id="290" interp="linr"  time="0/1" value="0" leadInLength="0/1"  />
           </VectorParam>
          </Transformer>
          <Parameters>
           <VectorParam id="291"  name="sourceCrop">
            <InterpolatingParam id="292" interp="linr"  time="0/1" value="0" leadInLength="0/1"  />
            <InterpolatingParam id="293" interp="linr"  time="0/1" value="0" leadInLength="0/1"  />
            <InterpolatingParam id="294" interp="linr"  time="0/1" value="0" leadInLength="0/1"  />
            <InterpolatingParam id="295" interp="linr"  time="0/1" value="0" leadInLength="0/1"  />
           </VectorParam>
           <VectorParam id="296"  name="geometryCrop">
            <InterpolatingParam id="297" interp="linr"  time="-9999999/1" value="0" leadInLength="0/1"  />
            <InterpolatingParam id="298" interp="linr"  time="-9999999/1" value="0" leadInLength="0/1"  />
            <InterpolatingParam id="299" interp="linr"  time="-9999999/1" value="0" leadInLength="0/1"  />
            <InterpolatingParam id="300" interp="linr"  time="-9999999/1" value="0" leadInLength="0/1"  />
           </VectorParam>
           <InterpolatingParam id="301" interp="linr"  time="-9999999/1" value="1" leadInLength="0/1"  name="opacity"/>
          </Parameters>
          <Attributes>
           <Attribute id="302" value="" name="ident"/>
          </Attributes>
          <ExtraData>
           <Entry key="ZoomPanBin">
            <ZoomPanBin id="303"  >
             <ZoomPanKeyframes>
              <ZoomPanKeyframe id="304" timeRangeEnd="-9999999/1" timeRangeDuration="0/1" interpolaterName="linr"  />
             </ZoomPanKeyframes>
            </ZoomPanBin>
           </Entry>
          </ExtraData>
         </VMFile>
         <MetaData>
          <entry key="WinSubProjectDisplayName" val=""/>
         </MetaData>
        </UnifiedMedia>
        <UnifiedMedia id="305"  >
         <AudioTransition id="306" start="568" duration="10" >
          <Parameters>
           <InterpolatingParam id="307" interp="linr"  time="0/1" value="1" leadInLength="0/1"  name="volume"/>
           <Parameter id="308"  name="captions"/>
          </Parameters>
          <Effects>
           <GenericEffect id="309" name = "AudioTransition" >
            <Parameters>
            <Parameter id="310"   name="audioEdgeModType">
             <Keyframes>
             <Keyframe id="311"  time="0/1" value="0" leadInLength="0/1"  />
             </Keyframes>
            </Parameter>
            <Parameter id="312"   name="audioTransitionType">
             <Keyframes>
             <Keyframe id="313"  time="0/1" value="" leadInLength="0/1"  />
             </Keyframes>
            </Parameter>
            </Parameters>
            <MetaData>
            </MetaData>
           </GenericEffect>
          </Effects>
          <Attributes>
           <Attribute id="314" value="" name="ident"/>
           <Attribute id="315" value="0" name="sampleRate"/>
           <Attribute id="316" value="0" name="bitDepth"/>
           <Attribute id="317" value="1" name="gain"/>
           <Attribute id="318" value="0" name="mixToMono"/>
          </Attributes>
         </AudioTransition>
         <ImageTransition id="319" start="568" duration="10" >
          <Transformer>
           <VectorParam id="320"  name="translation">
            <InterpolatingParam id="321" interp="linr"  time="0/1" value="0" leadInLength="0/1"  />
            <InterpolatingParam id="322" interp="linr"  time="0/1" value="0" leadInLength="0/1"  />
            <InterpolatingParam id="323" interp="linr"  time="0/1" value="0" leadInLength="0/1"  />
           </VectorParam>
           <VectorParam id="324"  name="rotation">
            <InterpolatingParam id="325" interp="linr"  time="0/1" value="0" leadInLength="0/1"  />
            <InterpolatingParam id="326" interp="linr"  time="0/1" value="0" leadInLength="0/1"  />
            <InterpolatingParam id="327" interp="linr"  time="0/1" value="0" leadInLength="0/1"  />
           </VectorParam>
           <VectorParam id="328"  name="shear">
            <InterpolatingParam id="329" interp="linr"  time="0/1" value="0" leadInLength="0/1"  />
            <InterpolatingParam id="330" interp="linr"  time="0/1" value="0" leadInLength="0/1"  />
            <InterpolatingParam id="331" interp="linr"  time="0/1" value="0" leadInLength="0/1"  />
           </VectorParam>
           <VectorParam id="332"  name="scale">
            <InterpolatingParam id="333" interp="linr"  time="0/1" value="1" leadInLength="0/1"  />
            <InterpolatingParam id="334" interp="linr"  time="0/1" value="1" leadInLength="0/1"  />
            <InterpolatingParam id="335" interp="linr"  time="0/1" value="1" leadInLength="0/1"  />
           </VectorParam>
           <VectorParam id="336"  name="anchor">
            <InterpolatingParam id="337" interp="linr"  time="0/1" value="0" leadInLength="0/1"  />
            <InterpolatingParam id="338" interp="linr"  time="0/1" value="0" leadInLength="0/1"  />
            <InterpolatingParam id="339" interp="linr"  time="0/1" value="0" leadInLength="0/1"  />
           </VectorParam>
          </Transformer>
          <Parameters>
           <VectorParam id="340"  name="sourceCrop">
            <InterpolatingParam id="341" interp="linr"  time="0/1" value="0" leadInLength="0/1"  />
            <InterpolatingParam id="342" interp="linr"  time="0/1" value="0" leadInLength="0/1"  />
            <InterpolatingParam id="343" interp="linr"  time="0/1" value="0" leadInLength="0/1"  />
            <InterpolatingParam id="344" interp="linr"  time="0/1" value="0" leadInLength="0/1"  />
           </VectorParam>
           <VectorParam id="345"  name="geometryCrop">
            <InterpolatingParam id="346" interp="linr"  time="0/1" value="0" leadInLength="0/1"  />
            <InterpolatingParam id="347" interp="linr"  time="0/1" value="0" leadInLength="0/1"  />
            <InterpolatingParam id="348" interp="linr"  time="0/1" value="0" leadInLength="0/1"  />
            <InterpolatingParam id="349" interp="linr"  time="0/1" value="0" leadInLength="0/1"  />
           </VectorParam>
           <InterpolatingParam id="350" interp="linr"  time="0/1" value="1" leadInLength="0/1"  name="opacity"/>
          </Parameters>
          <Effects>
           <GenericEffect id="351" name = "VisualTransition" >
            <Parameters>
            <InterpolatingParam id="352" interp="linr"  time="0/1" value="1" leadInLength="0/1"   name="leftFramePercentage"/>
            <InterpolatingParam id="353" interp="linr"  time="0/1" value="1" leadInLength="0/1"   name="rightFramePercentage"/>
            <Parameter id="354"   name="visualEdgeModType">
             <Keyframes>
             <Keyframe id="355"  time="0/1" value="0" leadInLength="0/1"  />
             </Keyframes>
            </Parameter>
            <Parameter id="356"   name="visualTransitionType">
             <Keyframes>
             <Keyframe id="357"  time="0/1" value="Fade" leadInLength="0/1"  />
             </Keyframes>
            </Parameter>
            </Parameters>
            <MetaData>
            </MetaData>
           </GenericEffect>
          </Effects>
          <Attributes>
           <Attribute id="358" value="" name="ident"/>
          </Attributes>
          <ExtraData>
           <Entry key="ZoomPanBin">
            <ZoomPanBin id="359"  >
             <ZoomPanKeyframes>
             </ZoomPanKeyframes>
            </ZoomPanBin>
           </Entry>
          </ExtraData>
         </ImageTransition>
         <MetaData>
          <entry key="WinSubProjectDisplayName" val=""/>
         </MetaData>
        </UnifiedMedia>
        <UnifiedMedia id="360"  >
         <AMFile id="361" start="578" duration="59" scalar="1/1" mediaStart="258/1" mediaDuration="59/1" trackNumber="1" src="17" channelNumber="0,1" >
          <Parameters>
           <InterpolatingParam id="362" interp="linr"  time="0/1" value="0" leadInLength="0/1"  name="volume"/>
           <Parameter id="363"  name="captions"/>
          </Parameters>
          <Attributes>
           <Attribute id="364" value="" name="ident"/>
           <Attribute id="365" value="44100" name="sampleRate"/>
           <Attribute id="366" value="16" name="bitDepth"/>
           <Attribute id="367" value="1" name="gain"/>
           <Attribute id="368" value="0" name="mixToMono"/>
          </Attributes>
         </AMFile>
         <VMFile id="369" start="578" duration="59" scalar="1/1" mediaStart="258/1" mediaDuration="59/1" trackNumber="0" src="17" >
          <Transformer>
           <VectorParam id="370"  name="translation">
            <InterpolatingParam id="371" interp="linr"  time="-9999999/1" value="0" leadInLength="0/1"  />
            <InterpolatingParam id="372" interp="linr"  time="-9999999/1" value="0" leadInLength="0/1"  />
            <InterpolatingParam id="373" interp="linr"  time="-9999999/1" value="0" leadInLength="0/1"  />
           </VectorParam>
           <VectorParam id="374"  name="rotation">
            <InterpolatingParam id="375" interp="linr"  time="-9999999/1" value="0" leadInLength="0/1"  />
            <InterpolatingParam id="376" interp="linr"  time="-9999999/1" value="0" leadInLength="0/1"  />
            <InterpolatingParam id="377" interp="linr"  time="-9999999/1" value="0" leadInLength="0/1"  />
           </VectorParam>
           <VectorParam id="378"  name="shear">
            <InterpolatingParam id="379" interp="linr"  time="-9999999/1" value="0" leadInLength="0/1"  />
            <InterpolatingParam id="380" interp="linr"  time="-9999999/1" value="0" leadInLength="0/1"  />
            <InterpolatingParam id="381" interp="linr"  time="-9999999/1" value="0" leadInLength="0/1"  />
           </VectorParam>
           <VectorParam id="382"  name="scale">
            <InterpolatingParam id="383" interp="linr"  time="-9999999/1" value="0.59999999999999998" leadInLength="0/1"  />
            <InterpolatingParam id="384" interp="linr"  time="-9999999/1" value="0.59999999999999998" leadInLength="0/1"  />
            <InterpolatingParam id="385" interp="linr"  time="-9999999/1" value="1" leadInLength="0/1"  />
           </VectorParam>
           <VectorParam id="386"  name="anchor">
            <InterpolatingParam id="387" interp="linr"  time="0/1" value="0" leadInLength="0/1"  />
            <InterpolatingParam id="388" interp="linr"  time="0/1" value="0" leadInLength="0/1"  />
            <InterpolatingParam id="389" interp="linr"  time="0/1" value="0" leadInLength="0/1"  />
           </VectorParam>
          </Transformer>
          <Parameters>
           <VectorParam id="390"  name="sourceCrop">
            <InterpolatingParam id="391" interp="linr"  time="0/1" value="0" leadInLength="0/1"  />
            <InterpolatingParam id="392" interp="linr"  time="0/1" value="0" leadInLength="0/1"  />
            <InterpolatingParam id="393" interp="linr"  time="0/1" value="0" leadInLength="0/1"  />
            <InterpolatingParam id="394" interp="linr"  time="0/1" value="0" leadInLength="0/1"  />
           </VectorParam>
           <VectorParam id="395"  name="geometryCrop">
            <InterpolatingParam id="396" interp="linr"  time="-9999999/1" value="0" leadInLength="0/1"  />
            <InterpolatingParam id="397" interp="linr"  time="-9999999/1" value="0" leadInLength="0/1"  />
            <InterpolatingParam id="398" interp="linr"  time="-9999999/1" value="0" leadInLength="0/1"  />
            <InterpolatingParam id="399" interp="linr"  time="-9999999/1" value="0" leadInLength="0/1"  />
           </VectorParam>
           <InterpolatingParam id="400" interp="linr"  time="-9999999/1" value="1" leadInLength="0/1"  name="opacity"/>
          </Parameters>
          <Attributes>
           <Attribute id="401" value="" name="ident"/>
          </Attributes>
          <ExtraData>
           <Entry key="ZoomPanBin">
            <ZoomPanBin id="402"  >
             <ZoomPanKeyframes>
              <ZoomPanKeyframe id="403" timeRangeEnd="-9999999/1" timeRangeDuration="0/1" interpolaterName="linr"  />
             </ZoomPanKeyframes>
            </ZoomPanBin>
           </Entry>
          </ExtraData>
         </VMFile>
         <MetaData>
          <entry key="WinSubProjectDisplayName" val=""/>
         </MetaData>
        </UnifiedMedia>
        <UnifiedMedia id="404"  >
         <AudioTransition id="405" start="637" duration="10" >
          <Parameters>
           <InterpolatingParam id="406" interp="linr"  time="0/1" value="1" leadInLength="0/1"  name="volume"/>
           <Parameter id="407"  name="captions"/>
          </Parameters>
          <Effects>
           <GenericEffect id="408" name = "AudioTransition" >
            <Parameters>
            <Parameter id="409"   name="audioEdgeModType">
             <Keyframes>
             <Keyframe id="410"  time="0/1" value="0" leadInLength="0/1"  />
             </Keyframes>
            </Parameter>
            <Parameter id="411"   name="audioTransitionType">
             <Keyframes>
             <Keyframe id="412"  time="0/1" value="" leadInLength="0/1"  />
             </Keyframes>
            </Parameter>
            </Parameters>
            <MetaData>
            </MetaData>
           </GenericEffect>
          </Effects>
          <Attributes>
           <Attribute id="413" value="" name="ident"/>
           <Attribute id="414" value="0" name="sampleRate"/>
           <Attribute id="415" value="0" name="bitDepth"/>
           <Attribute id="416" value="1" name="gain"/>
           <Attribute id="417" value="0" name="mixToMono"/>
          </Attributes>
         </AudioTransition>
         <ImageTransition id="418" start="637" duration="10" >
          <Transformer>
           <VectorParam id="419"  name="translation">
            <InterpolatingParam id="420" interp="linr"  time="0/1" value="0" leadInLength="0/1"  />
            <InterpolatingParam id="421" interp="linr"  time="0/1" value="0" leadInLength="0/1"  />
            <InterpolatingParam id="422" interp="linr"  time="0/1" value="0" leadInLength="0/1"  />
           </VectorParam>
           <VectorParam id="423"  name="rotation">
            <InterpolatingParam id="424" interp="linr"  time="0/1" value="0" leadInLength="0/1"  />
            <InterpolatingParam id="425" interp="linr"  time="0/1" value="0" leadInLength="0/1"  />
            <InterpolatingParam id="426" interp="linr"  time="0/1" value="0" leadInLength="0/1"  />
           </VectorParam>
           <VectorParam id="427"  name="shear">
            <InterpolatingParam id="428" interp="linr"  time="0/1" value="0" leadInLength="0/1"  />
            <InterpolatingParam id="429" interp="linr"  time="0/1" value="0" leadInLength="0/1"  />
            <InterpolatingParam id="430" interp="linr"  time="0/1" value="0" leadInLength="0/1"  />
           </VectorParam>
           <VectorParam id="431"  name="scale">
            <InterpolatingParam id="432" interp="linr"  time="0/1" value="1" leadInLength="0/1"  />
            <InterpolatingParam id="433" interp="linr"  time="0/1" value="1" leadInLength="0/1"  />
            <InterpolatingParam id="434" interp="linr"  time="0/1" value="1" leadInLength="0/1"  />
           </VectorParam>
           <VectorParam id="435"  name="anchor">
            <InterpolatingParam id="436" interp="linr"  time="0/1" value="0" leadInLength="0/1"  />
            <InterpolatingParam id="437" interp="linr"  time="0/1" value="0" leadInLength="0/1"  />
            <InterpolatingParam id="438" interp="linr"  time="0/1" value="0" leadInLength="0/1"  />
           </VectorParam>
          </Transformer>
          <Parameters>
           <VectorParam id="439"  name="sourceCrop">
            <InterpolatingParam id="440" interp="linr"  time="0/1" value="0" leadInLength="0/1"  />
            <InterpolatingParam id="441" interp="linr"  time="0/1" value="0" leadInLength="0/1"  />
            <InterpolatingParam id="442" interp="linr"  time="0/1" value="0" leadInLength="0/1"  />
            <InterpolatingParam id="443" interp="linr"  time="0/1" value="0" leadInLength="0/1"  />
           </VectorParam>
           <VectorParam id="444"  name="geometryCrop">
            <InterpolatingParam id="445" interp="linr"  time="0/1" value="0" leadInLength="0/1"  />
            <InterpolatingParam id="446" interp="linr"  time="0/1" value="0" leadInLength="0/1"  />
            <InterpolatingParam id="447" interp="linr"  time="0/1" value="0" leadInLength="0/1"  />
            <InterpolatingParam id="448" interp="linr"  time="0/1" value="0" leadInLength="0/1"  />
           </VectorParam>
           <InterpolatingParam id="449" interp="linr"  time="0/1" value="1" leadInLength="0/1"  name="opacity"/>
          </Parameters>
          <Effects>
           <GenericEffect id="450" name = "VisualTransition" >
            <Parameters>
            <InterpolatingParam id="451" interp="linr"  time="0/1" value="1" leadInLength="0/1"   name="leftFramePercentage"/>
            <InterpolatingParam id="452" interp="linr"  time="0/1" value="1" leadInLength="0/1"   name="rightFramePercentage"/>
            <Parameter id="453"   name="visualEdgeModType">
             <Keyframes>
             <Keyframe id="454"  time="0/1" value="0" leadInLength="0/1"  />
             </Keyframes>
            </Parameter>
            <Parameter id="455"   name="visualTransitionType">
             <Keyframes>
             <Keyframe id="456"  time="0/1" value="Fade" leadInLength="0/1"  />
             </Keyframes>
            </Parameter>
            </Parameters>
            <MetaData>
            </MetaData>
           </GenericEffect>
          </Effects>
          <Attributes>
           <Attribute id="457" value="" name="ident"/>
          </Attributes>
          <ExtraData>
           <Entry key="ZoomPanBin">
            <ZoomPanBin id="458"  >
             <ZoomPanKeyframes>
             </ZoomPanKeyframes>
            </ZoomPanBin>
           </Entry>
          </ExtraData>
         </ImageTransition>
         <MetaData>
          <entry key="WinSubProjectDisplayName" val=""/>
         </MetaData>
        </UnifiedMedia>
        <UnifiedMedia id="459"  >
         <AMFile id="460" start="647" duration="6" scalar="1/1" mediaStart="373/1" mediaDuration="6/1" trackNumber="1" src="17" channelNumber="0,1" >
          <Parameters>
           <InterpolatingParam id="461" interp="linr"  time="0/1" value="0" leadInLength="0/1"  name="volume"/>
           <Parameter id="462"  name="captions"/>
          </Parameters>
          <Attributes>
           <Attribute id="463" value="" name="ident"/>
           <Attribute id="464" value="44100" name="sampleRate"/>
           <Attribute id="465" value="16" name="bitDepth"/>
           <Attribute id="466" value="1" name="gain"/>
           <Attribute id="467" value="0" name="mixToMono"/>
          </Attributes>
         </AMFile>
         <VMFile id="468" start="647" duration="6" scalar="1/1" mediaStart="373/1" mediaDuration="6/1" trackNumber="0" src="17" >
          <Transformer>
           <VectorParam id="469"  name="translation">
            <InterpolatingParam id="470" interp="linr"  time="-9999999/1" value="0" leadInLength="0/1"  />
            <InterpolatingParam id="471" interp="linr"  time="-9999999/1" value="0" leadInLength="0/1"  />
            <InterpolatingParam id="472" interp="linr"  time="-9999999/1" value="0" leadInLength="0/1"  />
           </VectorParam>
           <VectorParam id="473"  name="rotation">
            <InterpolatingParam id="474" interp="linr"  time="-9999999/1" value="0" leadInLength="0/1"  />
            <InterpolatingParam id="475" interp="linr"  time="-9999999/1" value="0" leadInLength="0/1"  />
            <InterpolatingParam id="476" interp="linr"  time="-9999999/1" value="0" leadInLength="0/1"  />
           </VectorParam>
           <VectorParam id="477"  name="shear">
            <InterpolatingParam id="478" interp="linr"  time="-9999999/1" value="0" leadInLength="0/1"  />
            <InterpolatingParam id="479" interp="linr"  time="-9999999/1" value="0" leadInLength="0/1"  />
            <InterpolatingParam id="480" interp="linr"  time="-9999999/1" value="0" leadInLength="0/1"  />
           </VectorParam>
           <VectorParam id="481"  name="scale">
            <InterpolatingParam id="482" interp="linr"  time="-9999999/1" value="0.59999999999999998" leadInLength="0/1"  />
            <InterpolatingParam id="483" interp="linr"  time="-9999999/1" value="0.59999999999999998" leadInLength="0/1"  />
            <InterpolatingParam id="484" interp="linr"  time="-9999999/1" value="1" leadInLength="0/1"  />
           </VectorParam>
           <VectorParam id="485"  name="anchor">
            <InterpolatingParam id="486" interp="linr"  time="0/1" value="0" leadInLength="0/1"  />
            <InterpolatingParam id="487" interp="linr"  time="0/1" value="0" leadInLength="0/1"  />
            <InterpolatingParam id="488" interp="linr"  time="0/1" value="0" leadInLength="0/1"  />
           </VectorParam>
          </Transformer>
          <Parameters>
           <VectorParam id="489"  name="sourceCrop">
            <InterpolatingParam id="490" interp="linr"  time="0/1" value="0" leadInLength="0/1"  />
            <InterpolatingParam id="491" interp="linr"  time="0/1" value="0" leadInLength="0/1"  />
            <InterpolatingParam id="492" interp="linr"  time="0/1" value="0" leadInLength="0/1"  />
            <InterpolatingParam id="493" interp="linr"  time="0/1" value="0" leadInLength="0/1"  />
           </VectorParam>
           <VectorParam id="494"  name="geometryCrop">
            <InterpolatingParam id="495" interp="linr"  time="-9999999/1" value="0" leadInLength="0/1"  />
            <InterpolatingParam id="496" interp="linr"  time="-9999999/1" value="0" leadInLength="0/1"  />
            <InterpolatingParam id="497" interp="linr"  time="-9999999/1" value="0" leadInLength="0/1"  />
            <InterpolatingParam id="498" interp="linr"  time="-9999999/1" value="0" leadInLength="0/1"  />
           </VectorParam>
           <InterpolatingParam id="499" interp="linr"  time="-9999999/1" value="1" leadInLength="0/1"  name="opacity"/>
          </Parameters>
          <Attributes>
           <Attribute id="500" value="" name="ident"/>
          </Attributes>
          <ExtraData>
           <Entry key="ZoomPanBin">
            <ZoomPanBin id="501"  >
             <ZoomPanKeyframes>
              <ZoomPanKeyframe id="502" timeRangeEnd="-9999999/1" timeRangeDuration="0/1" interpolaterName="linr"  />
             </ZoomPanKeyframes>
            </ZoomPanBin>
           </Entry>
          </ExtraData>
         </VMFile>
         <MetaData>
          <entry key="WinSubProjectDisplayName" val=""/>
         </MetaData>
        </UnifiedMedia>
        <UnifiedMedia id="503"  >
         <AudioTransition id="504" start="653" duration="10" >
          <Parameters>
           <InterpolatingParam id="505" interp="linr"  time="0/1" value="1" leadInLength="0/1"  name="volume"/>
           <Parameter id="506"  name="captions"/>
          </Parameters>
          <Effects>
           <GenericEffect id="507" name = "AudioTransition" >
            <Parameters>
            <Parameter id="508"   name="audioEdgeModType">
             <Keyframes>
             <Keyframe id="509"  time="0/1" value="0" leadInLength="0/1"  />
             </Keyframes>
            </Parameter>
            <Parameter id="510"   name="audioTransitionType">
             <Keyframes>
             <Keyframe id="511"  time="0/1" value="" leadInLength="0/1"  />
             </Keyframes>
            </Parameter>
            </Parameters>
            <MetaData>
            </MetaData>
           </GenericEffect>
          </Effects>
          <Attributes>
           <Attribute id="512" value="" name="ident"/>
           <Attribute id="513" value="0" name="sampleRate"/>
           <Attribute id="514" value="0" name="bitDepth"/>
           <Attribute id="515" value="1" name="gain"/>
           <Attribute id="516" value="0" name="mixToMono"/>
          </Attributes>
         </AudioTransition>
         <ImageTransition id="517" start="653" duration="10" >
          <Transformer>
           <VectorParam id="518"  name="translation">
            <InterpolatingParam id="519" interp="linr"  time="0/1" value="0" leadInLength="0/1"  />
            <InterpolatingParam id="520" interp="linr"  time="0/1" value="0" leadInLength="0/1"  />
            <InterpolatingParam id="521" interp="linr"  time="0/1" value="0" leadInLength="0/1"  />
           </VectorParam>
           <VectorParam id="522"  name="rotation">
            <InterpolatingParam id="523" interp="linr"  time="0/1" value="0" leadInLength="0/1"  />
            <InterpolatingParam id="524" interp="linr"  time="0/1" value="0" leadInLength="0/1"  />
            <InterpolatingParam id="525" interp="linr"  time="0/1" value="0" leadInLength="0/1"  />
           </VectorParam>
           <VectorParam id="526"  name="shear">
            <InterpolatingParam id="527" interp="linr"  time="0/1" value="0" leadInLength="0/1"  />
            <InterpolatingParam id="528" interp="linr"  time="0/1" value="0" leadInLength="0/1"  />
            <InterpolatingParam id="529" interp="linr"  time="0/1" value="0" leadInLength="0/1"  />
           </VectorParam>
           <VectorParam id="530"  name="scale">
            <InterpolatingParam id="531" interp="linr"  time="0/1" value="1" leadInLength="0/1"  />
            <InterpolatingParam id="532" interp="linr"  time="0/1" value="1" leadInLength="0/1"  />
            <InterpolatingParam id="533" interp="linr"  time="0/1" value="1" leadInLength="0/1"  />
           </VectorParam>
           <VectorParam id="534"  name="anchor">
            <InterpolatingParam id="535" interp="linr"  time="0/1" value="0" leadInLength="0/1"  />
            <InterpolatingParam id="536" interp="linr"  time="0/1" value="0" leadInLength="0/1"  />
            <InterpolatingParam id="537" interp="linr"  time="0/1" value="0" leadInLength="0/1"  />
           </VectorParam>
          </Transformer>
          <Parameters>
           <VectorParam id="538"  name="sourceCrop">
            <InterpolatingParam id="539" interp="linr"  time="0/1" value="0" leadInLength="0/1"  />
            <InterpolatingParam id="540" interp="linr"  time="0/1" value="0" leadInLength="0/1"  />
            <InterpolatingParam id="541" interp="linr"  time="0/1" value="0" leadInLength="0/1"  />
            <InterpolatingParam id="542" interp="linr"  time="0/1" value="0" leadInLength="0/1"  />
           </VectorParam>
           <VectorParam id="543"  name="geometryCrop">
            <InterpolatingParam id="544" interp="linr"  time="0/1" value="0" leadInLength="0/1"  />
            <InterpolatingParam id="545" interp="linr"  time="0/1" value="0" leadInLength="0/1"  />
            <InterpolatingParam id="546" interp="linr"  time="0/1" value="0" leadInLength="0/1"  />
            <InterpolatingParam id="547" interp="linr"  time="0/1" value="0" leadInLength="0/1"  />
           </VectorParam>
           <InterpolatingParam id="548" interp="linr"  time="0/1" value="1" leadInLength="0/1"  name="opacity"/>
          </Parameters>
          <Effects>
           <GenericEffect id="549" name = "VisualTransition" >
            <Parameters>
            <InterpolatingParam id="550" interp="linr"  time="0/1" value="1" leadInLength="0/1"   name="leftFramePercentage"/>
            <InterpolatingParam id="551" interp="linr"  time="0/1" value="1" leadInLength="0/1"   name="rightFramePercentage"/>
            <Parameter id="552"   name="visualEdgeModType">
             <Keyframes>
             <Keyframe id="553"  time="0/1" value="0" leadInLength="0/1"  />
             </Keyframes>
            </Parameter>
            <Parameter id="554"   name="visualTransitionType">
             <Keyframes>
             <Keyframe id="555"  time="0/1" value="Fade" leadInLength="0/1"  />
             </Keyframes>
            </Parameter>
            </Parameters>
            <MetaData>
            </MetaData>
           </GenericEffect>
          </Effects>
          <Attributes>
           <Attribute id="556" value="" name="ident"/>
          </Attributes>
          <ExtraData>
           <Entry key="ZoomPanBin">
            <ZoomPanBin id="557"  >
             <ZoomPanKeyframes>
             </ZoomPanKeyframes>
            </ZoomPanBin>
           </Entry>
          </ExtraData>
         </ImageTransition>
         <MetaData>
          <entry key="WinSubProjectDisplayName" val=""/>
         </MetaData>
        </UnifiedMedia>
        <UnifiedMedia id="558"  >
         <AMFile id="559" start="663" duration="1" scalar="1/1" mediaStart="424/1" mediaDuration="1/1" trackNumber="1" src="17" channelNumber="0,1" >
          <Parameters>
           <InterpolatingParam id="560" interp="linr"  time="0/1" value="0" leadInLength="0/1"  name="volume"/>
           <Parameter id="561"  name="captions"/>
          </Parameters>
          <Attributes>
           <Attribute id="562" value="" name="ident"/>
           <Attribute id="563" value="44100" name="sampleRate"/>
           <Attribute id="564" value="16" name="bitDepth"/>
           <Attribute id="565" value="1" name="gain"/>
           <Attribute id="566" value="0" name="mixToMono"/>
          </Attributes>
         </AMFile>
         <VMFile id="567" start="663" duration="1" scalar="1/1" mediaStart="424/1" mediaDuration="1/1" trackNumber="0" src="17" >
          <Transformer>
           <VectorParam id="568"  name="translation">
            <InterpolatingParam id="569" interp="linr"  time="-9999999/1" value="0" leadInLength="0/1"  />
            <InterpolatingParam id="570" interp="linr"  time="-9999999/1" value="0" leadInLength="0/1"  />
            <InterpolatingParam id="571" interp="linr"  time="-9999999/1" value="0" leadInLength="0/1"  />
           </VectorParam>
           <VectorParam id="572"  name="rotation">
            <InterpolatingParam id="573" interp="linr"  time="-9999999/1" value="0" leadInLength="0/1"  />
            <InterpolatingParam id="574" interp="linr"  time="-9999999/1" value="0" leadInLength="0/1"  />
            <InterpolatingParam id="575" interp="linr"  time="-9999999/1" value="0" leadInLength="0/1"  />
           </VectorParam>
           <VectorParam id="576"  name="shear">
            <InterpolatingParam id="577" interp="linr"  time="-9999999/1" value="0" leadInLength="0/1"  />
            <InterpolatingParam id="578" interp="linr"  time="-9999999/1" value="0" leadInLength="0/1"  />
            <InterpolatingParam id="579" interp="linr"  time="-9999999/1" value="0" leadInLength="0/1"  />
           </VectorParam>
           <VectorParam id="580"  name="scale">
            <InterpolatingParam id="581" interp="linr"  time="-9999999/1" value="0.59999999999999998" leadInLength="0/1"  />
            <InterpolatingParam id="582" interp="linr"  time="-9999999/1" value="0.59999999999999998" leadInLength="0/1"  />
            <InterpolatingParam id="583" interp="linr"  time="-9999999/1" value="1" leadInLength="0/1"  />
           </VectorParam>
           <VectorParam id="584"  name="anchor">
            <InterpolatingParam id="585" interp="linr"  time="0/1" value="0" leadInLength="0/1"  />
            <InterpolatingParam id="586" interp="linr"  time="0/1" value="0" leadInLength="0/1"  />
            <InterpolatingParam id="587" interp="linr"  time="0/1" value="0" leadInLength="0/1"  />
           </VectorParam>
          </Transformer>
          <Parameters>
           <VectorParam id="588"  name="sourceCrop">
            <InterpolatingParam id="589" interp="linr"  time="0/1" value="0" leadInLength="0/1"  />
            <InterpolatingParam id="590" interp="linr"  time="0/1" value="0" leadInLength="0/1"  />
            <InterpolatingParam id="591" interp="linr"  time="0/1" value="0" leadInLength="0/1"  />
            <InterpolatingParam id="592" interp="linr"  time="0/1" value="0" leadInLength="0/1"  />
           </VectorParam>
           <VectorParam id="593"  name="geometryCrop">
            <InterpolatingParam id="594" interp="linr"  time="-9999999/1" value="0" leadInLength="0/1"  />
            <InterpolatingParam id="595" interp="linr"  time="-9999999/1" value="0" leadInLength="0/1"  />
            <InterpolatingParam id="596" interp="linr"  time="-9999999/1" value="0" leadInLength="0/1"  />
            <InterpolatingParam id="597" interp="linr"  time="-9999999/1" value="0" leadInLength="0/1"  />
           </VectorParam>
           <InterpolatingParam id="598" interp="linr"  time="-9999999/1" value="1" leadInLength="0/1"  name="opacity"/>
          </Parameters>
          <Attributes>
           <Attribute id="599" value="" name="ident"/>
          </Attributes>
          <ExtraData>
           <Entry key="ZoomPanBin">
            <ZoomPanBin id="600"  >
             <ZoomPanKeyframes>
              <ZoomPanKeyframe id="601" timeRangeEnd="-9999999/1" timeRangeDuration="0/1" interpolaterName="linr"  />
             </ZoomPanKeyframes>
            </ZoomPanBin>
           </Entry>
          </ExtraData>
         </VMFile>
         <MetaData>
          <entry key="WinSubProjectDisplayName" val=""/>
         </MetaData>
        </UnifiedMedia>
        <UnifiedMedia id="602"  >
         <AudioTransition id="603" start="664" duration="10" >
          <Parameters>
           <InterpolatingParam id="604" interp="linr"  time="0/1" value="1" leadInLength="0/1"  name="volume"/>
           <Parameter id="605"  name="captions"/>
          </Parameters>
          <Effects>
           <GenericEffect id="606" name = "AudioTransition" >
            <Parameters>
            <Parameter id="607"   name="audioEdgeModType">
             <Keyframes>
             <Keyframe id="608"  time="0/1" value="0" leadInLength="0/1"  />
             </Keyframes>
            </Parameter>
            <Parameter id="609"   name="audioTransitionType">
             <Keyframes>
             <Keyframe id="610"  time="0/1" value="" leadInLength="0/1"  />
             </Keyframes>
            </Parameter>
            </Parameters>
            <MetaData>
            </MetaData>
           </GenericEffect>
          </Effects>
          <Attributes>
           <Attribute id="611" value="" name="ident"/>
           <Attribute id="612" value="0" name="sampleRate"/>
           <Attribute id="613" value="0" name="bitDepth"/>
           <Attribute id="614" value="1" name="gain"/>
           <Attribute id="615" value="0" name="mixToMono"/>
          </Attributes>
         </AudioTransition>
         <ImageTransition id="616" start="664" duration="10" >
          <Transformer>
           <VectorParam id="617"  name="translation">
            <InterpolatingParam id="618" interp="linr"  time="0/1" value="0" leadInLength="0/1"  />
            <InterpolatingParam id="619" interp="linr"  time="0/1" value="0" leadInLength="0/1"  />
            <InterpolatingParam id="620" interp="linr"  time="0/1" value="0" leadInLength="0/1"  />
           </VectorParam>
           <VectorParam id="621"  name="rotation">
            <InterpolatingParam id="622" interp="linr"  time="0/1" value="0" leadInLength="0/1"  />
            <InterpolatingParam id="623" interp="linr"  time="0/1" value="0" leadInLength="0/1"  />
            <InterpolatingParam id="624" interp="linr"  time="0/1" value="0" leadInLength="0/1"  />
           </VectorParam>
           <VectorParam id="625"  name="shear">
            <InterpolatingParam id="626" interp="linr"  time="0/1" value="0" leadInLength="0/1"  />
            <InterpolatingParam id="627" interp="linr"  time="0/1" value="0" leadInLength="0/1"  />
            <InterpolatingParam id="628" interp="linr"  time="0/1" value="0" leadInLength="0/1"  />
           </VectorParam>
           <VectorParam id="629"  name="scale">
            <InterpolatingParam id="630" interp="linr"  time="0/1" value="1" leadInLength="0/1"  />
            <InterpolatingParam id="631" interp="linr"  time="0/1" value="1" leadInLength="0/1"  />
            <InterpolatingParam id="632" interp="linr"  time="0/1" value="1" leadInLength="0/1"  />
           </VectorParam>
           <VectorParam id="633"  name="anchor">
            <InterpolatingParam id="634" interp="linr"  time="0/1" value="0" leadInLength="0/1"  />
            <InterpolatingParam id="635" interp="linr"  time="0/1" value="0" leadInLength="0/1"  />
            <InterpolatingParam id="636" interp="linr"  time="0/1" value="0" leadInLength="0/1"  />
           </VectorParam>
          </Transformer>
          <Parameters>
           <VectorParam id="637"  name="sourceCrop">
            <InterpolatingParam id="638" interp="linr"  time="0/1" value="0" leadInLength="0/1"  />
            <InterpolatingParam id="639" interp="linr"  time="0/1" value="0" leadInLength="0/1"  />
            <InterpolatingParam id="640" interp="linr"  time="0/1" value="0" leadInLength="0/1"  />
            <InterpolatingParam id="641" interp="linr"  time="0/1" value="0" leadInLength="0/1"  />
           </VectorParam>
           <VectorParam id="642"  name="geometryCrop">
            <InterpolatingParam id="643" interp="linr"  time="0/1" value="0" leadInLength="0/1"  />
            <InterpolatingParam id="644" interp="linr"  time="0/1" value="0" leadInLength="0/1"  />
            <InterpolatingParam id="645" interp="linr"  time="0/1" value="0" leadInLength="0/1"  />
            <InterpolatingParam id="646" interp="linr"  time="0/1" value="0" leadInLength="0/1"  />
           </VectorParam>
           <InterpolatingParam id="647" interp="linr"  time="0/1" value="1" leadInLength="0/1"  name="opacity"/>
          </Parameters>
          <Effects>
           <GenericEffect id="648" name = "VisualTransition" >
            <Parameters>
            <InterpolatingParam id="649" interp="linr"  time="0/1" value="1" leadInLength="0/1"   name="leftFramePercentage"/>
            <InterpolatingParam id="650" interp="linr"  time="0/1" value="1" leadInLength="0/1"   name="rightFramePercentage"/>
            <Parameter id="651"   name="visualEdgeModType">
             <Keyframes>
             <Keyframe id="652"  time="0/1" value="0" leadInLength="0/1"  />
             </Keyframes>
            </Parameter>
            <Parameter id="653"   name="visualTransitionType">
             <Keyframes>
             <Keyframe id="654"  time="0/1" value="Fade" leadInLength="0/1"  />
             </Keyframes>
            </Parameter>
            </Parameters>
            <MetaData>
            </MetaData>
           </GenericEffect>
          </Effects>
          <Attributes>
           <Attribute id="655" value="" name="ident"/>
          </Attributes>
          <ExtraData>
           <Entry key="ZoomPanBin">
            <ZoomPanBin id="656"  >
             <ZoomPanKeyframes>
             </ZoomPanKeyframes>
            </ZoomPanBin>
           </Entry>
          </ExtraData>
         </ImageTransition>
         <MetaData>
          <entry key="WinSubProjectDisplayName" val=""/>
         </MetaData>
        </UnifiedMedia>
        <UnifiedMedia id="657"  >
         <AMFile id="658" start="674" duration="40" scalar="1/1" mediaStart="479/1" mediaDuration="40/1" trackNumber="1" src="17" channelNumber="0,1" >
          <Parameters>
           <InterpolatingParam id="659" interp="linr"  time="0/1" value="0" leadInLength="0/1"  name="volume"/>
           <Parameter id="660"  name="captions"/>
          </Parameters>
          <Attributes>
           <Attribute id="661" value="" name="ident"/>
           <Attribute id="662" value="44100" name="sampleRate"/>
           <Attribute id="663" value="16" name="bitDepth"/>
           <Attribute id="664" value="1" name="gain"/>
           <Attribute id="665" value="0" name="mixToMono"/>
          </Attributes>
         </AMFile>
         <VMFile id="666" start="674" duration="40" scalar="1/1" mediaStart="479/1" mediaDuration="40/1" trackNumber="0" src="17" >
          <Transformer>
           <VectorParam id="667"  name="translation">
            <InterpolatingParam id="668" interp="linr"  time="-9999999/1" value="0" leadInLength="0/1"  />
            <InterpolatingParam id="669" interp="linr"  time="-9999999/1" value="0" leadInLength="0/1"  />
            <InterpolatingParam id="670" interp="linr"  time="-9999999/1" value="0" leadInLength="0/1"  />
           </VectorParam>
           <VectorParam id="671"  name="rotation">
            <InterpolatingParam id="672" interp="linr"  time="-9999999/1" value="0" leadInLength="0/1"  />
            <InterpolatingParam id="673" interp="linr"  time="-9999999/1" value="0" leadInLength="0/1"  />
            <InterpolatingParam id="674" interp="linr"  time="-9999999/1" value="0" leadInLength="0/1"  />
           </VectorParam>
           <VectorParam id="675"  name="shear">
            <InterpolatingParam id="676" interp="linr"  time="-9999999/1" value="0" leadInLength="0/1"  />
            <InterpolatingParam id="677" interp="linr"  time="-9999999/1" value="0" leadInLength="0/1"  />
            <InterpolatingParam id="678" interp="linr"  time="-9999999/1" value="0" leadInLength="0/1"  />
           </VectorParam>
           <VectorParam id="679"  name="scale">
            <InterpolatingParam id="680" interp="linr"  time="-9999999/1" value="0.59999999999999998" leadInLength="0/1"  />
            <InterpolatingParam id="681" interp="linr"  time="-9999999/1" value="0.59999999999999998" leadInLength="0/1"  />
            <InterpolatingParam id="682" interp="linr"  time="-9999999/1" value="1" leadInLength="0/1"  />
           </VectorParam>
           <VectorParam id="683"  name="anchor">
            <InterpolatingParam id="684" interp="linr"  time="0/1" value="0" leadInLength="0/1"  />
            <InterpolatingParam id="685" interp="linr"  time="0/1" value="0" leadInLength="0/1"  />
            <InterpolatingParam id="686" interp="linr"  time="0/1" value="0" leadInLength="0/1"  />
           </VectorParam>
          </Transformer>
          <Parameters>
           <VectorParam id="687"  name="sourceCrop">
            <InterpolatingParam id="688" interp="linr"  time="0/1" value="0" leadInLength="0/1"  />
            <InterpolatingParam id="689" interp="linr"  time="0/1" value="0" leadInLength="0/1"  />
            <InterpolatingParam id="690" interp="linr"  time="0/1" value="0" leadInLength="0/1"  />
            <InterpolatingParam id="691" interp="linr"  time="0/1" value="0" leadInLength="0/1"  />
           </VectorParam>
           <VectorParam id="692"  name="geometryCrop">
            <InterpolatingParam id="693" interp="linr"  time="-9999999/1" value="0" leadInLength="0/1"  />
            <InterpolatingParam id="694" interp="linr"  time="-9999999/1" value="0" leadInLength="0/1"  />
            <InterpolatingParam id="695" interp="linr"  time="-9999999/1" value="0" leadInLength="0/1"  />
            <InterpolatingParam id="696" interp="linr"  time="-9999999/1" value="0" leadInLength="0/1"  />
           </VectorParam>
           <InterpolatingParam id="697" interp="linr"  time="-9999999/1" value="1" leadInLength="0/1"  name="opacity"/>
          </Parameters>
          <Attributes>
           <Attribute id="698" value="" name="ident"/>
          </Attributes>
          <ExtraData>
           <Entry key="ZoomPanBin">
            <ZoomPanBin id="699"  >
             <ZoomPanKeyframes>
              <ZoomPanKeyframe id="700" timeRangeEnd="-9999999/1" timeRangeDuration="0/1" interpolaterName="linr"  />
             </ZoomPanKeyframes>
            </ZoomPanBin>
           </Entry>
          </ExtraData>
         </VMFile>
         <MetaData>
          <entry key="WinSubProjectDisplayName" val=""/>
         </MetaData>
        </UnifiedMedia>
        <UnifiedMedia id="701"  >
         <AudioTransition id="702" start="714" duration="10" >
          <Parameters>
           <InterpolatingParam id="703" interp="linr"  time="0/1" value="1" leadInLength="0/1"  name="volume"/>
           <Parameter id="704"  name="captions"/>
          </Parameters>
          <Effects>
           <GenericEffect id="705" name = "AudioTransition" >
            <Parameters>
            <Parameter id="706"   name="audioEdgeModType">
             <Keyframes>
             <Keyframe id="707"  time="0/1" value="0" leadInLength="0/1"  />
             </Keyframes>
            </Parameter>
            <Parameter id="708"   name="audioTransitionType">
             <Keyframes>
             <Keyframe id="709"  time="0/1" value="" leadInLength="0/1"  />
             </Keyframes>
            </Parameter>
            </Parameters>
            <MetaData>
            </MetaData>
           </GenericEffect>
          </Effects>
          <Attributes>
           <Attribute id="710" value="" name="ident"/>
           <Attribute id="711" value="0" name="sampleRate"/>
           <Attribute id="712" value="0" name="bitDepth"/>
           <Attribute id="713" value="1" name="gain"/>
           <Attribute id="714" value="0" name="mixToMono"/>
          </Attributes>
         </AudioTransition>
         <ImageTransition id="715" start="714" duration="10" >
          <Transformer>
           <VectorParam id="716"  name="translation">
            <InterpolatingParam id="717" interp="linr"  time="0/1" value="0" leadInLength="0/1"  />
            <InterpolatingParam id="718" interp="linr"  time="0/1" value="0" leadInLength="0/1"  />
            <InterpolatingParam id="719" interp="linr"  time="0/1" value="0" leadInLength="0/1"  />
           </VectorParam>
           <VectorParam id="720"  name="rotation">
            <InterpolatingParam id="721" interp="linr"  time="0/1" value="0" leadInLength="0/1"  />
            <InterpolatingParam id="722" interp="linr"  time="0/1" value="0" leadInLength="0/1"  />
            <InterpolatingParam id="723" interp="linr"  time="0/1" value="0" leadInLength="0/1"  />
           </VectorParam>
           <VectorParam id="724"  name="shear">
            <InterpolatingParam id="725" interp="linr"  time="0/1" value="0" leadInLength="0/1"  />
            <InterpolatingParam id="726" interp="linr"  time="0/1" value="0" leadInLength="0/1"  />
            <InterpolatingParam id="727" interp="linr"  time="0/1" value="0" leadInLength="0/1"  />
           </VectorParam>
           <VectorParam id="728"  name="scale">
            <InterpolatingParam id="729" interp="linr"  time="0/1" value="1" leadInLength="0/1"  />
            <InterpolatingParam id="730" interp="linr"  time="0/1" value="1" leadInLength="0/1"  />
            <InterpolatingParam id="731" interp="linr"  time="0/1" value="1" leadInLength="0/1"  />
           </VectorParam>
           <VectorParam id="732"  name="anchor">
            <InterpolatingParam id="733" interp="linr"  time="0/1" value="0" leadInLength="0/1"  />
            <InterpolatingParam id="734" interp="linr"  time="0/1" value="0" leadInLength="0/1"  />
            <InterpolatingParam id="735" interp="linr"  time="0/1" value="0" leadInLength="0/1"  />
           </VectorParam>
          </Transformer>
          <Parameters>
           <VectorParam id="736"  name="sourceCrop">
            <InterpolatingParam id="737" interp="linr"  time="0/1" value="0" leadInLength="0/1"  />
            <InterpolatingParam id="738" interp="linr"  time="0/1" value="0" leadInLength="0/1"  />
            <InterpolatingParam id="739" interp="linr"  time="0/1" value="0" leadInLength="0/1"  />
            <InterpolatingParam id="740" interp="linr"  time="0/1" value="0" leadInLength="0/1"  />
           </VectorParam>
           <VectorParam id="741"  name="geometryCrop">
            <InterpolatingParam id="742" interp="linr"  time="0/1" value="0" leadInLength="0/1"  />
            <InterpolatingParam id="743" interp="linr"  time="0/1" value="0" leadInLength="0/1"  />
            <InterpolatingParam id="744" interp="linr"  time="0/1" value="0" leadInLength="0/1"  />
            <InterpolatingParam id="745" interp="linr"  time="0/1" value="0" leadInLength="0/1"  />
           </VectorParam>
           <InterpolatingParam id="746" interp="linr"  time="0/1" value="1" leadInLength="0/1"  name="opacity"/>
          </Parameters>
          <Effects>
           <GenericEffect id="747" name = "VisualTransition" >
            <Parameters>
            <InterpolatingParam id="748" interp="linr"  time="0/1" value="1" leadInLength="0/1"   name="leftFramePercentage"/>
            <InterpolatingParam id="749" interp="linr"  time="0/1" value="1" leadInLength="0/1"   name="rightFramePercentage"/>
            <Parameter id="750"   name="visualEdgeModType">
             <Keyframes>
             <Keyframe id="751"  time="0/1" value="0" leadInLength="0/1"  />
             </Keyframes>
            </Parameter>
            <Parameter id="752"   name="visualTransitionType">
             <Keyframes>
             <Keyframe id="753"  time="0/1" value="Fade" leadInLength="0/1"  />
             </Keyframes>
            </Parameter>
            </Parameters>
            <MetaData>
            </MetaData>
           </GenericEffect>
          </Effects>
          <Attributes>
           <Attribute id="754" value="" name="ident"/>
          </Attributes>
          <ExtraData>
           <Entry key="ZoomPanBin">
            <ZoomPanBin id="755"  >
             <ZoomPanKeyframes>
             </ZoomPanKeyframes>
            </ZoomPanBin>
           </Entry>
          </ExtraData>
         </ImageTransition>
         <MetaData>
          <entry key="WinSubProjectDisplayName" val=""/>
         </MetaData>
        </UnifiedMedia>
        <UnifiedMedia id="756"  >
         <AMFile id="757" start="724" duration="34" scalar="1/1" mediaStart="31/1" mediaDuration="34/1" trackNumber="1" src="6" channelNumber="0,1" >
          <Parameters>
           <InterpolatingParam id="758" interp="linr"  time="0/1" value="0" leadInLength="0/1"  name="volume"/>
           <Parameter id="759"  name="captions"/>
          </Parameters>
          <Attributes>
           <Attribute id="760" value="" name="ident"/>
           <Attribute id="761" value="44100" name="sampleRate"/>
           <Attribute id="762" value="16" name="bitDepth"/>
           <Attribute id="763" value="1" name="gain"/>
           <Attribute id="764" value="0" name="mixToMono"/>
          </Attributes>
         </AMFile>
         <VMFile id="765" start="724" duration="34" scalar="1/1" mediaStart="31/1" mediaDuration="34/1" trackNumber="0" src="6" >
          <Transformer>
           <VectorParam id="766"  name="translation">
            <InterpolatingParam id="767" interp="linr"  time="-9999999/1" value="0" leadInLength="0/1"  />
            <InterpolatingParam id="768" interp="linr"  time="-9999999/1" value="0" leadInLength="0/1"  />
            <InterpolatingParam id="769" interp="linr"  time="-9999999/1" value="0" leadInLength="0/1"  />
           </VectorParam>
           <VectorParam id="770"  name="rotation">
            <InterpolatingParam id="771" interp="linr"  time="-9999999/1" value="0" leadInLength="0/1"  />
            <InterpolatingParam id="772" interp="linr"  time="-9999999/1" value="0" leadInLength="0/1"  />
            <InterpolatingParam id="773" interp="linr"  time="-9999999/1" value="0" leadInLength="0/1"  />
           </VectorParam>
           <VectorParam id="774"  name="shear">
            <InterpolatingParam id="775" interp="linr"  time="-9999999/1" value="0" leadInLength="0/1"  />
            <InterpolatingParam id="776" interp="linr"  time="-9999999/1" value="0" leadInLength="0/1"  />
            <InterpolatingParam id="777" interp="linr"  time="-9999999/1" value="0" leadInLength="0/1"  />
           </VectorParam>
           <VectorParam id="778"  name="scale">
            <InterpolatingParam id="779" interp="linr"  time="-9999999/1" value="0.59999999999999998" leadInLength="0/1"  />
            <InterpolatingParam id="780" interp="linr"  time="-9999999/1" value="0.59999999999999998" leadInLength="0/1"  />
            <InterpolatingParam id="781" interp="linr"  time="-9999999/1" value="1" leadInLength="0/1"  />
           </VectorParam>
           <VectorParam id="782"  name="anchor">
            <InterpolatingParam id="783" interp="linr"  time="0/1" value="0" leadInLength="0/1"  />
            <InterpolatingParam id="784" interp="linr"  time="0/1" value="0" leadInLength="0/1"  />
            <InterpolatingParam id="785" interp="linr"  time="0/1" value="0" leadInLength="0/1"  />
           </VectorParam>
          </Transformer>
          <Parameters>
           <VectorParam id="786"  name="sourceCrop">
            <InterpolatingParam id="787" interp="linr"  time="0/1" value="0" leadInLength="0/1"  />
            <InterpolatingParam id="788" interp="linr"  time="0/1" value="0" leadInLength="0/1"  />
            <InterpolatingParam id="789" interp="linr"  time="0/1" value="0" leadInLength="0/1"  />
            <InterpolatingParam id="790" interp="linr"  time="0/1" value="0" leadInLength="0/1"  />
           </VectorParam>
           <VectorParam id="791"  name="geometryCrop">
            <InterpolatingParam id="792" interp="linr"  time="-9999999/1" value="0" leadInLength="0/1"  />
            <InterpolatingParam id="793" interp="linr"  time="-9999999/1" value="0" leadInLength="0/1"  />
            <InterpolatingParam id="794" interp="linr"  time="-9999999/1" value="0" leadInLength="0/1"  />
            <InterpolatingParam id="795" interp="linr"  time="-9999999/1" value="0" leadInLength="0/1"  />
           </VectorParam>
           <InterpolatingParam id="796" interp="linr"  time="-9999999/1" value="1" leadInLength="0/1"  name="opacity"/>
          </Parameters>
          <Attributes>
           <Attribute id="797" value="" name="ident"/>
          </Attributes>
          <ExtraData>
           <Entry key="ZoomPanBin">
            <ZoomPanBin id="798"  >
             <ZoomPanKeyframes>
              <ZoomPanKeyframe id="799" timeRangeEnd="-9999999/1" timeRangeDuration="0/1" interpolaterName="linr"  />
             </ZoomPanKeyframes>
            </ZoomPanBin>
           </Entry>
          </ExtraData>
         </VMFile>
         <MetaData>
          <entry key="WinSubProjectDisplayName" val=""/>
         </MetaData>
        </UnifiedMedia>
        <UnifiedMedia id="800"  >
         <AudioTransition id="801" start="758" duration="10" >
          <Parameters>
           <InterpolatingParam id="802" interp="linr"  time="0/1" value="1" leadInLength="0/1"  name="volume"/>
           <Parameter id="803"  name="captions"/>
          </Parameters>
          <Effects>
           <GenericEffect id="804" name = "AudioTransition" >
            <Parameters>
            <Parameter id="805"   name="audioEdgeModType">
             <Keyframes>
             <Keyframe id="806"  time="0/1" value="0" leadInLength="0/1"  />
             </Keyframes>
            </Parameter>
            <Parameter id="807"   name="audioTransitionType">
             <Keyframes>
             <Keyframe id="808"  time="0/1" value="" leadInLength="0/1"  />
             </Keyframes>
            </Parameter>
            </Parameters>
            <MetaData>
            </MetaData>
           </GenericEffect>
          </Effects>
          <Attributes>
           <Attribute id="809" value="" name="ident"/>
           <Attribute id="810" value="0" name="sampleRate"/>
           <Attribute id="811" value="0" name="bitDepth"/>
           <Attribute id="812" value="1" name="gain"/>
           <Attribute id="813" value="0" name="mixToMono"/>
          </Attributes>
         </AudioTransition>
         <ImageTransition id="814" start="758" duration="10" >
          <Transformer>
           <VectorParam id="815"  name="translation">
            <InterpolatingParam id="816" interp="linr"  time="0/1" value="0" leadInLength="0/1"  />
            <InterpolatingParam id="817" interp="linr"  time="0/1" value="0" leadInLength="0/1"  />
            <InterpolatingParam id="818" interp="linr"  time="0/1" value="0" leadInLength="0/1"  />
           </VectorParam>
           <VectorParam id="819"  name="rotation">
            <InterpolatingParam id="820" interp="linr"  time="0/1" value="0" leadInLength="0/1"  />
            <InterpolatingParam id="821" interp="linr"  time="0/1" value="0" leadInLength="0/1"  />
            <InterpolatingParam id="822" interp="linr"  time="0/1" value="0" leadInLength="0/1"  />
           </VectorParam>
           <VectorParam id="823"  name="shear">
            <InterpolatingParam id="824" interp="linr"  time="0/1" value="0" leadInLength="0/1"  />
            <InterpolatingParam id="825" interp="linr"  time="0/1" value="0" leadInLength="0/1"  />
            <InterpolatingParam id="826" interp="linr"  time="0/1" value="0" leadInLength="0/1"  />
           </VectorParam>
           <VectorParam id="827"  name="scale">
            <InterpolatingParam id="828" interp="linr"  time="0/1" value="1" leadInLength="0/1"  />
            <InterpolatingParam id="829" interp="linr"  time="0/1" value="1" leadInLength="0/1"  />
            <InterpolatingParam id="830" interp="linr"  time="0/1" value="1" leadInLength="0/1"  />
           </VectorParam>
           <VectorParam id="831"  name="anchor">
            <InterpolatingParam id="832" interp="linr"  time="0/1" value="0" leadInLength="0/1"  />
            <InterpolatingParam id="833" interp="linr"  time="0/1" value="0" leadInLength="0/1"  />
            <InterpolatingParam id="834" interp="linr"  time="0/1" value="0" leadInLength="0/1"  />
           </VectorParam>
          </Transformer>
          <Parameters>
           <VectorParam id="835"  name="sourceCrop">
            <InterpolatingParam id="836" interp="linr"  time="0/1" value="0" leadInLength="0/1"  />
            <InterpolatingParam id="837" interp="linr"  time="0/1" value="0" leadInLength="0/1"  />
            <InterpolatingParam id="838" interp="linr"  time="0/1" value="0" leadInLength="0/1"  />
            <InterpolatingParam id="839" interp="linr"  time="0/1" value="0" leadInLength="0/1"  />
           </VectorParam>
           <VectorParam id="840"  name="geometryCrop">
            <InterpolatingParam id="841" interp="linr"  time="0/1" value="0" leadInLength="0/1"  />
            <InterpolatingParam id="842" interp="linr"  time="0/1" value="0" leadInLength="0/1"  />
            <InterpolatingParam id="843" interp="linr"  time="0/1" value="0" leadInLength="0/1"  />
            <InterpolatingParam id="844" interp="linr"  time="0/1" value="0" leadInLength="0/1"  />
           </VectorParam>
           <InterpolatingParam id="845" interp="linr"  time="0/1" value="1" leadInLength="0/1"  name="opacity"/>
          </Parameters>
          <Effects>
           <GenericEffect id="846" name = "VisualTransition" >
            <Parameters>
            <InterpolatingParam id="847" interp="linr"  time="0/1" value="1" leadInLength="0/1"   name="leftFramePercentage"/>
            <InterpolatingParam id="848" interp="linr"  time="0/1" value="1" leadInLength="0/1"   name="rightFramePercentage"/>
            <Parameter id="849"   name="visualEdgeModType">
             <Keyframes>
             <Keyframe id="850"  time="0/1" value="0" leadInLength="0/1"  />
             </Keyframes>
            </Parameter>
            <Parameter id="851"   name="visualTransitionType">
             <Keyframes>
             <Keyframe id="852"  time="0/1" value="Fade" leadInLength="0/1"  />
             </Keyframes>
            </Parameter>
            </Parameters>
            <MetaData>
            </MetaData>
           </GenericEffect>
          </Effects>
          <Attributes>
           <Attribute id="853" value="" name="ident"/>
          </Attributes>
          <ExtraData>
           <Entry key="ZoomPanBin">
            <ZoomPanBin id="854"  >
             <ZoomPanKeyframes>
             </ZoomPanKeyframes>
            </ZoomPanBin>
           </Entry>
          </ExtraData>
         </ImageTransition>
         <MetaData>
          <entry key="WinSubProjectDisplayName" val=""/>
         </MetaData>
        </UnifiedMedia>
        <UnifiedMedia id="855"  >
         <AMFile id="856" start="768" duration="36" scalar="1/1" mediaStart="140/1" mediaDuration="36/1" trackNumber="1" src="6" channelNumber="0,1" >
          <Parameters>
           <InterpolatingParam id="857" interp="linr"  time="0/1" value="0" leadInLength="0/1"  name="volume"/>
           <Parameter id="858"  name="captions"/>
          </Parameters>
          <Attributes>
           <Attribute id="859" value="" name="ident"/>
           <Attribute id="860" value="44100" name="sampleRate"/>
           <Attribute id="861" value="16" name="bitDepth"/>
           <Attribute id="862" value="1" name="gain"/>
           <Attribute id="863" value="0" name="mixToMono"/>
          </Attributes>
         </AMFile>
         <VMFile id="864" start="768" duration="36" scalar="1/1" mediaStart="140/1" mediaDuration="36/1" trackNumber="0" src="6" >
          <Transformer>
           <VectorParam id="865"  name="translation">
            <InterpolatingParam id="866" interp="linr"  time="-9999999/1" value="0" leadInLength="0/1"  />
            <InterpolatingParam id="867" interp="linr"  time="-9999999/1" value="0" leadInLength="0/1"  />
            <InterpolatingParam id="868" interp="linr"  time="-9999999/1" value="0" leadInLength="0/1"  />
           </VectorParam>
           <VectorParam id="869"  name="rotation">
            <InterpolatingParam id="870" interp="linr"  time="-9999999/1" value="0" leadInLength="0/1"  />
            <InterpolatingParam id="871" interp="linr"  time="-9999999/1" value="0" leadInLength="0/1"  />
            <InterpolatingParam id="872" interp="linr"  time="-9999999/1" value="0" leadInLength="0/1"  />
           </VectorParam>
           <VectorParam id="873"  name="shear">
            <InterpolatingParam id="874" interp="linr"  time="-9999999/1" value="0" leadInLength="0/1"  />
            <InterpolatingParam id="875" interp="linr"  time="-9999999/1" value="0" leadInLength="0/1"  />
            <InterpolatingParam id="876" interp="linr"  time="-9999999/1" value="0" leadInLength="0/1"  />
           </VectorParam>
           <VectorParam id="877"  name="scale">
            <InterpolatingParam id="878" interp="linr"  time="-9999999/1" value="0.59999999999999998" leadInLength="0/1"  />
            <InterpolatingParam id="879" interp="linr"  time="-9999999/1" value="0.59999999999999998" leadInLength="0/1"  />
            <InterpolatingParam id="880" interp="linr"  time="-9999999/1" value="1" leadInLength="0/1"  />
           </VectorParam>
           <VectorParam id="881"  name="anchor">
            <InterpolatingParam id="882" interp="linr"  time="0/1" value="0" leadInLength="0/1"  />
            <InterpolatingParam id="883" interp="linr"  time="0/1" value="0" leadInLength="0/1"  />
            <InterpolatingParam id="884" interp="linr"  time="0/1" value="0" leadInLength="0/1"  />
           </VectorParam>
          </Transformer>
          <Parameters>
           <VectorParam id="885"  name="sourceCrop">
            <InterpolatingParam id="886" interp="linr"  time="0/1" value="0" leadInLength="0/1"  />
            <InterpolatingParam id="887" interp="linr"  time="0/1" value="0" leadInLength="0/1"  />
            <InterpolatingParam id="888" interp="linr"  time="0/1" value="0" leadInLength="0/1"  />
            <InterpolatingParam id="889" interp="linr"  time="0/1" value="0" leadInLength="0/1"  />
           </VectorParam>
           <VectorParam id="890"  name="geometryCrop">
            <InterpolatingParam id="891" interp="linr"  time="-9999999/1" value="0" leadInLength="0/1"  />
            <InterpolatingParam id="892" interp="linr"  time="-9999999/1" value="0" leadInLength="0/1"  />
            <InterpolatingParam id="893" interp="linr"  time="-9999999/1" value="0" leadInLength="0/1"  />
            <InterpolatingParam id="894" interp="linr"  time="-9999999/1" value="0" leadInLength="0/1"  />
           </VectorParam>
           <InterpolatingParam id="895" interp="linr"  time="-9999999/1" value="1" leadInLength="0/1"  name="opacity"/>
          </Parameters>
          <Attributes>
           <Attribute id="896" value="" name="ident"/>
          </Attributes>
          <ExtraData>
           <Entry key="ZoomPanBin">
            <ZoomPanBin id="897"  >
             <ZoomPanKeyframes>
              <ZoomPanKeyframe id="898" timeRangeEnd="-9999999/1" timeRangeDuration="0/1" interpolaterName="linr"  />
             </ZoomPanKeyframes>
            </ZoomPanBin>
           </Entry>
          </ExtraData>
         </VMFile>
         <MetaData>
          <entry key="WinSubProjectDisplayName" val=""/>
         </MetaData>
        </UnifiedMedia>
        <UnifiedMedia id="899"  >
         <AudioTransition id="900" start="804" duration="10" >
          <Parameters>
           <InterpolatingParam id="901" interp="linr"  time="0/1" value="1" leadInLength="0/1"  name="volume"/>
           <Parameter id="902"  name="captions"/>
          </Parameters>
          <Effects>
           <GenericEffect id="903" name = "AudioTransition" >
            <Parameters>
            <Parameter id="904"   name="audioEdgeModType">
             <Keyframes>
             <Keyframe id="905"  time="0/1" value="0" leadInLength="0/1"  />
             </Keyframes>
            </Parameter>
            <Parameter id="906"   name="audioTransitionType">
             <Keyframes>
             <Keyframe id="907"  time="0/1" value="" leadInLength="0/1"  />
             </Keyframes>
            </Parameter>
            </Parameters>
            <MetaData>
            </MetaData>
           </GenericEffect>
          </Effects>
          <Attributes>
           <Attribute id="908" value="" name="ident"/>
           <Attribute id="909" value="0" name="sampleRate"/>
           <Attribute id="910" value="0" name="bitDepth"/>
           <Attribute id="911" value="1" name="gain"/>
           <Attribute id="912" value="0" name="mixToMono"/>
          </Attributes>
         </AudioTransition>
         <ImageTransition id="913" start="804" duration="10" >
          <Transformer>
           <VectorParam id="914"  name="translation">
            <InterpolatingParam id="915" interp="linr"  time="0/1" value="0" leadInLength="0/1"  />
            <InterpolatingParam id="916" interp="linr"  time="0/1" value="0" leadInLength="0/1"  />
            <InterpolatingParam id="917" interp="linr"  time="0/1" value="0" leadInLength="0/1"  />
           </VectorParam>
           <VectorParam id="918"  name="rotation">
            <InterpolatingParam id="919" interp="linr"  time="0/1" value="0" leadInLength="0/1"  />
            <InterpolatingParam id="920" interp="linr"  time="0/1" value="0" leadInLength="0/1"  />
            <InterpolatingParam id="921" interp="linr"  time="0/1" value="0" leadInLength="0/1"  />
           </VectorParam>
           <VectorParam id="922"  name="shear">
            <InterpolatingParam id="923" interp="linr"  time="0/1" value="0" leadInLength="0/1"  />
            <InterpolatingParam id="924" interp="linr"  time="0/1" value="0" leadInLength="0/1"  />
            <InterpolatingParam id="925" interp="linr"  time="0/1" value="0" leadInLength="0/1"  />
           </VectorParam>
           <VectorParam id="926"  name="scale">
            <InterpolatingParam id="927" interp="linr"  time="0/1" value="1" leadInLength="0/1"  />
            <InterpolatingParam id="928" interp="linr"  time="0/1" value="1" leadInLength="0/1"  />
            <InterpolatingParam id="929" interp="linr"  time="0/1" value="1" leadInLength="0/1"  />
           </VectorParam>
           <VectorParam id="930"  name="anchor">
            <InterpolatingParam id="931" interp="linr"  time="0/1" value="0" leadInLength="0/1"  />
            <InterpolatingParam id="932" interp="linr"  time="0/1" value="0" leadInLength="0/1"  />
            <InterpolatingParam id="933" interp="linr"  time="0/1" value="0" leadInLength="0/1"  />
           </VectorParam>
          </Transformer>
          <Parameters>
           <VectorParam id="934"  name="sourceCrop">
            <InterpolatingParam id="935" interp="linr"  time="0/1" value="0" leadInLength="0/1"  />
            <InterpolatingParam id="936" interp="linr"  time="0/1" value="0" leadInLength="0/1"  />
            <InterpolatingParam id="937" interp="linr"  time="0/1" value="0" leadInLength="0/1"  />
            <InterpolatingParam id="938" interp="linr"  time="0/1" value="0" leadInLength="0/1"  />
           </VectorParam>
           <VectorParam id="939"  name="geometryCrop">
            <InterpolatingParam id="940" interp="linr"  time="0/1" value="0" leadInLength="0/1"  />
            <InterpolatingParam id="941" interp="linr"  time="0/1" value="0" leadInLength="0/1"  />
            <InterpolatingParam id="942" interp="linr"  time="0/1" value="0" leadInLength="0/1"  />
            <InterpolatingParam id="943" interp="linr"  time="0/1" value="0" leadInLength="0/1"  />
           </VectorParam>
           <InterpolatingParam id="944" interp="linr"  time="0/1" value="1" leadInLength="0/1"  name="opacity"/>
          </Parameters>
          <Effects>
           <GenericEffect id="945" name = "VisualTransition" >
            <Parameters>
            <InterpolatingParam id="946" interp="linr"  time="0/1" value="1" leadInLength="0/1"   name="leftFramePercentage"/>
            <InterpolatingParam id="947" interp="linr"  time="0/1" value="1" leadInLength="0/1"   name="rightFramePercentage"/>
            <Parameter id="948"   name="visualEdgeModType">
             <Keyframes>
             <Keyframe id="949"  time="0/1" value="0" leadInLength="0/1"  />
             </Keyframes>
            </Parameter>
            <Parameter id="950"   name="visualTransitionType">
             <Keyframes>
             <Keyframe id="951"  time="0/1" value="Fade" leadInLength="0/1"  />
             </Keyframes>
            </Parameter>
            </Parameters>
            <MetaData>
            </MetaData>
           </GenericEffect>
          </Effects>
          <Attributes>
           <Attribute id="952" value="" name="ident"/>
          </Attributes>
          <ExtraData>
           <Entry key="ZoomPanBin">
            <ZoomPanBin id="953"  >
             <ZoomPanKeyframes>
             </ZoomPanKeyframes>
            </ZoomPanBin>
           </Entry>
          </ExtraData>
         </ImageTransition>
         <MetaData>
          <entry key="WinSubProjectDisplayName" val=""/>
         </MetaData>
        </UnifiedMedia>
        <UnifiedMedia id="954"  >
         <AMFile id="955" start="814" duration="61" scalar="1/1" mediaStart="263/1" mediaDuration="61/1" trackNumber="1" src="6" channelNumber="0,1" >
          <Parameters>
           <InterpolatingParam id="956" interp="linr"  time="0/1" value="0" leadInLength="0/1"  name="volume"/>
           <Parameter id="957"  name="captions"/>
          </Parameters>
          <Attributes>
           <Attribute id="958" value="" name="ident"/>
           <Attribute id="959" value="44100" name="sampleRate"/>
           <Attribute id="960" value="16" name="bitDepth"/>
           <Attribute id="961" value="1" name="gain"/>
           <Attribute id="962" value="0" name="mixToMono"/>
          </Attributes>
         </AMFile>
         <VMFile id="963" start="814" duration="61" scalar="1/1" mediaStart="263/1" mediaDuration="61/1" trackNumber="0" src="6" >
          <Transformer>
           <VectorParam id="964"  name="translation">
            <InterpolatingParam id="965" interp="linr"  time="-9999999/1" value="0" leadInLength="0/1"  />
            <InterpolatingParam id="966" interp="linr"  time="-9999999/1" value="0" leadInLength="0/1"  />
            <InterpolatingParam id="967" interp="linr"  time="-9999999/1" value="0" leadInLength="0/1"  />
           </VectorParam>
           <VectorParam id="968"  name="rotation">
            <InterpolatingParam id="969" interp="linr"  time="-9999999/1" value="0" leadInLength="0/1"  />
            <InterpolatingParam id="970" interp="linr"  time="-9999999/1" value="0" leadInLength="0/1"  />
            <InterpolatingParam id="971" interp="linr"  time="-9999999/1" value="0" leadInLength="0/1"  />
           </VectorParam>
           <VectorParam id="972"  name="shear">
            <InterpolatingParam id="973" interp="linr"  time="-9999999/1" value="0" leadInLength="0/1"  />
            <InterpolatingParam id="974" interp="linr"  time="-9999999/1" value="0" leadInLength="0/1"  />
            <InterpolatingParam id="975" interp="linr"  time="-9999999/1" value="0" leadInLength="0/1"  />
           </VectorParam>
           <VectorParam id="976"  name="scale">
            <InterpolatingParam id="977" interp="linr"  time="-9999999/1" value="0.59999999999999998" leadInLength="0/1"  />
            <InterpolatingParam id="978" interp="linr"  time="-9999999/1" value="0.59999999999999998" leadInLength="0/1"  />
            <InterpolatingParam id="979" interp="linr"  time="-9999999/1" value="1" leadInLength="0/1"  />
           </VectorParam>
           <VectorParam id="980"  name="anchor">
            <InterpolatingParam id="981" interp="linr"  time="0/1" value="0" leadInLength="0/1"  />
            <InterpolatingParam id="982" interp="linr"  time="0/1" value="0" leadInLength="0/1"  />
            <InterpolatingParam id="983" interp="linr"  time="0/1" value="0" leadInLength="0/1"  />
           </VectorParam>
          </Transformer>
          <Parameters>
           <VectorParam id="984"  name="sourceCrop">
            <InterpolatingParam id="985" interp="linr"  time="0/1" value="0" leadInLength="0/1"  />
            <InterpolatingParam id="986" interp="linr"  time="0/1" value="0" leadInLength="0/1"  />
            <InterpolatingParam id="987" interp="linr"  time="0/1" value="0" leadInLength="0/1"  />
            <InterpolatingParam id="988" interp="linr"  time="0/1" value="0" leadInLength="0/1"  />
           </VectorParam>
           <VectorParam id="989"  name="geometryCrop">
            <InterpolatingParam id="990" interp="linr"  time="-9999999/1" value="0" leadInLength="0/1"  />
            <InterpolatingParam id="991" interp="linr"  time="-9999999/1" value="0" leadInLength="0/1"  />
            <InterpolatingParam id="992" interp="linr"  time="-9999999/1" value="0" leadInLength="0/1"  />
            <InterpolatingParam id="993" interp="linr"  time="-9999999/1" value="0" leadInLength="0/1"  />
           </VectorParam>
           <InterpolatingParam id="994" interp="linr"  time="-9999999/1" value="1" leadInLength="0/1"  name="opacity"/>
          </Parameters>
          <Attributes>
           <Attribute id="995" value="" name="ident"/>
          </Attributes>
          <ExtraData>
           <Entry key="ZoomPanBin">
            <ZoomPanBin id="996"  >
             <ZoomPanKeyframes>
              <ZoomPanKeyframe id="997" timeRangeEnd="-9999999/1" timeRangeDuration="0/1" interpolaterName="linr"  />
             </ZoomPanKeyframes>
            </ZoomPanBin>
           </Entry>
          </ExtraData>
         </VMFile>
         <MetaData>
          <entry key="WinSubProjectDisplayName" val=""/>
         </MetaData>
        </UnifiedMedia>
        <UnifiedMedia id="998"  >
         <AudioTransition id="999" start="875" duration="10" >
          <Parameters>
           <InterpolatingParam id="1000" interp="linr"  time="0/1" value="1" leadInLength="0/1"  name="volume"/>
           <Parameter id="1001"  name="captions"/>
          </Parameters>
          <Effects>
           <GenericEffect id="1002" name = "AudioTransition" >
            <Parameters>
            <Parameter id="1003"   name="audioEdgeModType">
             <Keyframes>
             <Keyframe id="1004"  time="0/1" value="0" leadInLength="0/1"  />
             </Keyframes>
            </Parameter>
            <Parameter id="1005"   name="audioTransitionType">
             <Keyframes>
             <Keyframe id="1006"  time="0/1" value="" leadInLength="0/1"  />
             </Keyframes>
            </Parameter>
            </Parameters>
            <MetaData>
            </MetaData>
           </GenericEffect>
          </Effects>
          <Attributes>
           <Attribute id="1007" value="" name="ident"/>
           <Attribute id="1008" value="0" name="sampleRate"/>
           <Attribute id="1009" value="0" name="bitDepth"/>
           <Attribute id="1010" value="1" name="gain"/>
           <Attribute id="1011" value="0" name="mixToMono"/>
          </Attributes>
         </AudioTransition>
         <ImageTransition id="1012" start="875" duration="10" >
          <Transformer>
           <VectorParam id="1013"  name="translation">
            <InterpolatingParam id="1014" interp="linr"  time="0/1" value="0" leadInLength="0/1"  />
            <InterpolatingParam id="1015" interp="linr"  time="0/1" value="0" leadInLength="0/1"  />
            <InterpolatingParam id="1016" interp="linr"  time="0/1" value="0" leadInLength="0/1"  />
           </VectorParam>
           <VectorParam id="1017"  name="rotation">
            <InterpolatingParam id="1018" interp="linr"  time="0/1" value="0" leadInLength="0/1"  />
            <InterpolatingParam id="1019" interp="linr"  time="0/1" value="0" leadInLength="0/1"  />
            <InterpolatingParam id="1020" interp="linr"  time="0/1" value="0" leadInLength="0/1"  />
           </VectorParam>
           <VectorParam id="1021"  name="shear">
            <InterpolatingParam id="1022" interp="linr"  time="0/1" value="0" leadInLength="0/1"  />
            <InterpolatingParam id="1023" interp="linr"  time="0/1" value="0" leadInLength="0/1"  />
            <InterpolatingParam id="1024" interp="linr"  time="0/1" value="0" leadInLength="0/1"  />
           </VectorParam>
           <VectorParam id="1025"  name="scale">
            <InterpolatingParam id="1026" interp="linr"  time="0/1" value="1" leadInLength="0/1"  />
            <InterpolatingParam id="1027" interp="linr"  time="0/1" value="1" leadInLength="0/1"  />
            <InterpolatingParam id="1028" interp="linr"  time="0/1" value="1" leadInLength="0/1"  />
           </VectorParam>
           <VectorParam id="1029"  name="anchor">
            <InterpolatingParam id="1030" interp="linr"  time="0/1" value="0" leadInLength="0/1"  />
            <InterpolatingParam id="1031" interp="linr"  time="0/1" value="0" leadInLength="0/1"  />
            <InterpolatingParam id="1032" interp="linr"  time="0/1" value="0" leadInLength="0/1"  />
           </VectorParam>
          </Transformer>
          <Parameters>
           <VectorParam id="1033"  name="sourceCrop">
            <InterpolatingParam id="1034" interp="linr"  time="0/1" value="0" leadInLength="0/1"  />
            <InterpolatingParam id="1035" interp="linr"  time="0/1" value="0" leadInLength="0/1"  />
            <InterpolatingParam id="1036" interp="linr"  time="0/1" value="0" leadInLength="0/1"  />
            <InterpolatingParam id="1037" interp="linr"  time="0/1" value="0" leadInLength="0/1"  />
           </VectorParam>
           <VectorParam id="1038"  name="geometryCrop">
            <InterpolatingParam id="1039" interp="linr"  time="0/1" value="0" leadInLength="0/1"  />
            <InterpolatingParam id="1040" interp="linr"  time="0/1" value="0" leadInLength="0/1"  />
            <InterpolatingParam id="1041" interp="linr"  time="0/1" value="0" leadInLength="0/1"  />
            <InterpolatingParam id="1042" interp="linr"  time="0/1" value="0" leadInLength="0/1"  />
           </VectorParam>
           <InterpolatingParam id="1043" interp="linr"  time="0/1" value="1" leadInLength="0/1"  name="opacity"/>
          </Parameters>
          <Effects>
           <GenericEffect id="1044" name = "VisualTransition" >
            <Parameters>
            <InterpolatingParam id="1045" interp="linr"  time="0/1" value="1" leadInLength="0/1"   name="leftFramePercentage"/>
            <InterpolatingParam id="1046" interp="linr"  time="0/1" value="1" leadInLength="0/1"   name="rightFramePercentage"/>
            <Parameter id="1047"   name="visualEdgeModType">
             <Keyframes>
             <Keyframe id="1048"  time="0/1" value="0" leadInLength="0/1"  />
             </Keyframes>
            </Parameter>
            <Parameter id="1049"   name="visualTransitionType">
             <Keyframes>
             <Keyframe id="1050"  time="0/1" value="Fade" leadInLength="0/1"  />
             </Keyframes>
            </Parameter>
            </Parameters>
            <MetaData>
            </MetaData>
           </GenericEffect>
          </Effects>
          <Attributes>
           <Attribute id="1051" value="" name="ident"/>
          </Attributes>
          <ExtraData>
           <Entry key="ZoomPanBin">
            <ZoomPanBin id="1052"  >
             <ZoomPanKeyframes>
             </ZoomPanKeyframes>
            </ZoomPanBin>
           </Entry>
          </ExtraData>
         </ImageTransition>
         <MetaData>
          <entry key="WinSubProjectDisplayName" val=""/>
         </MetaData>
        </UnifiedMedia>
        <UnifiedMedia id="1053"  >
         <AMFile id="1054" start="885" duration="10" scalar="1/1" mediaStart="409/1" mediaDuration="10/1" trackNumber="1" src="6" channelNumber="0,1" >
          <Parameters>
           <InterpolatingParam id="1055" interp="linr"  time="0/1" value="0" leadInLength="0/1"  name="volume"/>
           <Parameter id="1056"  name="captions"/>
          </Parameters>
          <Attributes>
           <Attribute id="1057" value="" name="ident"/>
           <Attribute id="1058" value="44100" name="sampleRate"/>
           <Attribute id="1059" value="16" name="bitDepth"/>
           <Attribute id="1060" value="1" name="gain"/>
           <Attribute id="1061" value="0" name="mixToMono"/>
          </Attributes>
         </AMFile>
         <VMFile id="1062" start="885" duration="10" scalar="1/1" mediaStart="409/1" mediaDuration="10/1" trackNumber="0" src="6" >
          <Transformer>
           <VectorParam id="1063"  name="translation">
            <InterpolatingParam id="1064" interp="linr"  time="-9999999/1" value="0" leadInLength="0/1"  />
            <InterpolatingParam id="1065" interp="linr"  time="-9999999/1" value="0" leadInLength="0/1"  />
            <InterpolatingParam id="1066" interp="linr"  time="-9999999/1" value="0" leadInLength="0/1"  />
           </VectorParam>
           <VectorParam id="1067"  name="rotation">
            <InterpolatingParam id="1068" interp="linr"  time="-9999999/1" value="0" leadInLength="0/1"  />
            <InterpolatingParam id="1069" interp="linr"  time="-9999999/1" value="0" leadInLength="0/1"  />
            <InterpolatingParam id="1070" interp="linr"  time="-9999999/1" value="0" leadInLength="0/1"  />
           </VectorParam>
           <VectorParam id="1071"  name="shear">
            <InterpolatingParam id="1072" interp="linr"  time="-9999999/1" value="0" leadInLength="0/1"  />
            <InterpolatingParam id="1073" interp="linr"  time="-9999999/1" value="0" leadInLength="0/1"  />
            <InterpolatingParam id="1074" interp="linr"  time="-9999999/1" value="0" leadInLength="0/1"  />
           </VectorParam>
           <VectorParam id="1075"  name="scale">
            <InterpolatingParam id="1076" interp="linr"  time="-9999999/1" value="0.59999999999999998" leadInLength="0/1"  />
            <InterpolatingParam id="1077" interp="linr"  time="-9999999/1" value="0.59999999999999998" leadInLength="0/1"  />
            <InterpolatingParam id="1078" interp="linr"  time="-9999999/1" value="1" leadInLength="0/1"  />
           </VectorParam>
           <VectorParam id="1079"  name="anchor">
            <InterpolatingParam id="1080" interp="linr"  time="0/1" value="0" leadInLength="0/1"  />
            <InterpolatingParam id="1081" interp="linr"  time="0/1" value="0" leadInLength="0/1"  />
            <InterpolatingParam id="1082" interp="linr"  time="0/1" value="0" leadInLength="0/1"  />
           </VectorParam>
          </Transformer>
          <Parameters>
           <VectorParam id="1083"  name="sourceCrop">
            <InterpolatingParam id="1084" interp="linr"  time="0/1" value="0" leadInLength="0/1"  />
            <InterpolatingParam id="1085" interp="linr"  time="0/1" value="0" leadInLength="0/1"  />
            <InterpolatingParam id="1086" interp="linr"  time="0/1" value="0" leadInLength="0/1"  />
            <InterpolatingParam id="1087" interp="linr"  time="0/1" value="0" leadInLength="0/1"  />
           </VectorParam>
           <VectorParam id="1088"  name="geometryCrop">
            <InterpolatingParam id="1089" interp="linr"  time="-9999999/1" value="0" leadInLength="0/1"  />
            <InterpolatingParam id="1090" interp="linr"  time="-9999999/1" value="0" leadInLength="0/1"  />
            <InterpolatingParam id="1091" interp="linr"  time="-9999999/1" value="0" leadInLength="0/1"  />
            <InterpolatingParam id="1092" interp="linr"  time="-9999999/1" value="0" leadInLength="0/1"  />
           </VectorParam>
           <InterpolatingParam id="1093" interp="linr"  time="-9999999/1" value="1" leadInLength="0/1"  name="opacity"/>
          </Parameters>
          <Attributes>
           <Attribute id="1094" value="" name="ident"/>
          </Attributes>
          <ExtraData>
           <Entry key="ZoomPanBin">
            <ZoomPanBin id="1095"  >
             <ZoomPanKeyframes>
              <ZoomPanKeyframe id="1096" timeRangeEnd="-9999999/1" timeRangeDuration="0/1" interpolaterName="linr"  />
             </ZoomPanKeyframes>
            </ZoomPanBin>
           </Entry>
          </ExtraData>
         </VMFile>
         <MetaData>
          <entry key="WinSubProjectDisplayName" val=""/>
         </MetaData>
        </UnifiedMedia>
        <UnifiedMedia id="1097"  >
         <AudioTransition id="1098" start="895" duration="10" >
          <Parameters>
           <InterpolatingParam id="1099" interp="linr"  time="0/1" value="1" leadInLength="0/1"  name="volume"/>
           <Parameter id="1100"  name="captions"/>
          </Parameters>
          <Effects>
           <GenericEffect id="1101" name = "AudioTransition" >
            <Parameters>
            <Parameter id="1102"   name="audioEdgeModType">
             <Keyframes>
             <Keyframe id="1103"  time="0/1" value="0" leadInLength="0/1"  />
             </Keyframes>
            </Parameter>
            <Parameter id="1104"   name="audioTransitionType">
             <Keyframes>
             <Keyframe id="1105"  time="0/1" value="" leadInLength="0/1"  />
             </Keyframes>
            </Parameter>
            </Parameters>
            <MetaData>
            </MetaData>
           </GenericEffect>
          </Effects>
          <Attributes>
           <Attribute id="1106" value="" name="ident"/>
           <Attribute id="1107" value="0" name="sampleRate"/>
           <Attribute id="1108" value="0" name="bitDepth"/>
           <Attribute id="1109" value="1" name="gain"/>
           <Attribute id="1110" value="0" name="mixToMono"/>
          </Attributes>
         </AudioTransition>
         <ImageTransition id="1111" start="895" duration="10" >
          <Transformer>
           <VectorParam id="1112"  name="translation">
            <InterpolatingParam id="1113" interp="linr"  time="0/1" value="0" leadInLength="0/1"  />
            <InterpolatingParam id="1114" interp="linr"  time="0/1" value="0" leadInLength="0/1"  />
            <InterpolatingParam id="1115" interp="linr"  time="0/1" value="0" leadInLength="0/1"  />
           </VectorParam>
           <VectorParam id="1116"  name="rotation">
            <InterpolatingParam id="1117" interp="linr"  time="0/1" value="0" leadInLength="0/1"  />
            <InterpolatingParam id="1118" interp="linr"  time="0/1" value="0" leadInLength="0/1"  />
            <InterpolatingParam id="1119" interp="linr"  time="0/1" value="0" leadInLength="0/1"  />
           </VectorParam>
           <VectorParam id="1120"  name="shear">
            <InterpolatingParam id="1121" interp="linr"  time="0/1" value="0" leadInLength="0/1"  />
            <InterpolatingParam id="1122" interp="linr"  time="0/1" value="0" leadInLength="0/1"  />
            <InterpolatingParam id="1123" interp="linr"  time="0/1" value="0" leadInLength="0/1"  />
           </VectorParam>
           <VectorParam id="1124"  name="scale">
            <InterpolatingParam id="1125" interp="linr"  time="0/1" value="1" leadInLength="0/1"  />
            <InterpolatingParam id="1126" interp="linr"  time="0/1" value="1" leadInLength="0/1"  />
            <InterpolatingParam id="1127" interp="linr"  time="0/1" value="1" leadInLength="0/1"  />
           </VectorParam>
           <VectorParam id="1128"  name="anchor">
            <InterpolatingParam id="1129" interp="linr"  time="0/1" value="0" leadInLength="0/1"  />
            <InterpolatingParam id="1130" interp="linr"  time="0/1" value="0" leadInLength="0/1"  />
            <InterpolatingParam id="1131" interp="linr"  time="0/1" value="0" leadInLength="0/1"  />
           </VectorParam>
          </Transformer>
          <Parameters>
           <VectorParam id="1132"  name="sourceCrop">
            <InterpolatingParam id="1133" interp="linr"  time="0/1" value="0" leadInLength="0/1"  />
            <InterpolatingParam id="1134" interp="linr"  time="0/1" value="0" leadInLength="0/1"  />
            <InterpolatingParam id="1135" interp="linr"  time="0/1" value="0" leadInLength="0/1"  />
            <InterpolatingParam id="1136" interp="linr"  time="0/1" value="0" leadInLength="0/1"  />
           </VectorParam>
           <VectorParam id="1137"  name="geometryCrop">
            <InterpolatingParam id="1138" interp="linr"  time="0/1" value="0" leadInLength="0/1"  />
            <InterpolatingParam id="1139" interp="linr"  time="0/1" value="0" leadInLength="0/1"  />
            <InterpolatingParam id="1140" interp="linr"  time="0/1" value="0" leadInLength="0/1"  />
            <InterpolatingParam id="1141" interp="linr"  time="0/1" value="0" leadInLength="0/1"  />
           </VectorParam>
           <InterpolatingParam id="1142" interp="linr"  time="0/1" value="1" leadInLength="0/1"  name="opacity"/>
          </Parameters>
          <Effects>
           <GenericEffect id="1143" name = "VisualTransition" >
            <Parameters>
            <InterpolatingParam id="1144" interp="linr"  time="0/1" value="1" leadInLength="0/1"   name="leftFramePercentage"/>
            <InterpolatingParam id="1145" interp="linr"  time="0/1" value="1" leadInLength="0/1"   name="rightFramePercentage"/>
            <Parameter id="1146"   name="visualEdgeModType">
             <Keyframes>
             <Keyframe id="1147"  time="0/1" value="0" leadInLength="0/1"  />
             </Keyframes>
            </Parameter>
            <Parameter id="1148"   name="visualTransitionType">
             <Keyframes>
             <Keyframe id="1149"  time="0/1" value="Fade" leadInLength="0/1"  />
             </Keyframes>
            </Parameter>
            </Parameters>
            <MetaData>
            </MetaData>
           </GenericEffect>
          </Effects>
          <Attributes>
           <Attribute id="1150" value="" name="ident"/>
          </Attributes>
          <ExtraData>
           <Entry key="ZoomPanBin">
            <ZoomPanBin id="1151"  >
             <ZoomPanKeyframes>
             </ZoomPanKeyframes>
            </ZoomPanBin>
           </Entry>
          </ExtraData>
         </ImageTransition>
         <MetaData>
          <entry key="WinSubProjectDisplayName" val=""/>
         </MetaData>
        </UnifiedMedia>
        <UnifiedMedia id="1152"  >
         <AMFile id="1153" start="905" duration="31" scalar="1/1" mediaStart="444/1" mediaDuration="31/1" trackNumber="1" src="6" channelNumber="0,1" >
          <Parameters>
           <InterpolatingParam id="1154" interp="linr"  time="0/1" value="0" leadInLength="0/1"  name="volume"/>
           <Parameter id="1155"  name="captions"/>
          </Parameters>
          <Attributes>
           <Attribute id="1156" value="" name="ident"/>
           <Attribute id="1157" value="44100" name="sampleRate"/>
           <Attribute id="1158" value="16" name="bitDepth"/>
           <Attribute id="1159" value="1" name="gain"/>
           <Attribute id="1160" value="0" name="mixToMono"/>
          </Attributes>
         </AMFile>
         <VMFile id="1161" start="905" duration="31" scalar="1/1" mediaStart="444/1" mediaDuration="31/1" trackNumber="0" src="6" >
          <Transformer>
           <VectorParam id="1162"  name="translation">
            <InterpolatingParam id="1163" interp="linr"  time="-9999999/1" value="0" leadInLength="0/1"  />
            <InterpolatingParam id="1164" interp="linr"  time="-9999999/1" value="0" leadInLength="0/1"  />
            <InterpolatingParam id="1165" interp="linr"  time="-9999999/1" value="0" leadInLength="0/1"  />
           </VectorParam>
           <VectorParam id="1166"  name="rotation">
            <InterpolatingParam id="1167" interp="linr"  time="-9999999/1" value="0" leadInLength="0/1"  />
            <InterpolatingParam id="1168" interp="linr"  time="-9999999/1" value="0" leadInLength="0/1"  />
            <InterpolatingParam id="1169" interp="linr"  time="-9999999/1" value="0" leadInLength="0/1"  />
           </VectorParam>
           <VectorParam id="1170"  name="shear">
            <InterpolatingParam id="1171" interp="linr"  time="-9999999/1" value="0" leadInLength="0/1"  />
            <InterpolatingParam id="1172" interp="linr"  time="-9999999/1" value="0" leadInLength="0/1"  />
            <InterpolatingParam id="1173" interp="linr"  time="-9999999/1" value="0" leadInLength="0/1"  />
           </VectorParam>
           <VectorParam id="1174"  name="scale">
            <InterpolatingParam id="1175" interp="linr"  time="-9999999/1" value="0.59999999999999998" leadInLength="0/1"  />
            <InterpolatingParam id="1176" interp="linr"  time="-9999999/1" value="0.59999999999999998" leadInLength="0/1"  />
            <InterpolatingParam id="1177" interp="linr"  time="-9999999/1" value="1" leadInLength="0/1"  />
           </VectorParam>
           <VectorParam id="1178"  name="anchor">
            <InterpolatingParam id="1179" interp="linr"  time="0/1" value="0" leadInLength="0/1"  />
            <InterpolatingParam id="1180" interp="linr"  time="0/1" value="0" leadInLength="0/1"  />
            <InterpolatingParam id="1181" interp="linr"  time="0/1" value="0" leadInLength="0/1"  />
           </VectorParam>
          </Transformer>
          <Parameters>
           <VectorParam id="1182"  name="sourceCrop">
            <InterpolatingParam id="1183" interp="linr"  time="0/1" value="0" leadInLength="0/1"  />
            <InterpolatingParam id="1184" interp="linr"  time="0/1" value="0" leadInLength="0/1"  />
            <InterpolatingParam id="1185" interp="linr"  time="0/1" value="0" leadInLength="0/1"  />
            <InterpolatingParam id="1186" interp="linr"  time="0/1" value="0" leadInLength="0/1"  />
           </VectorParam>
           <VectorParam id="1187"  name="geometryCrop">
            <InterpolatingParam id="1188" interp="linr"  time="-9999999/1" value="0" leadInLength="0/1"  />
            <InterpolatingParam id="1189" interp="linr"  time="-9999999/1" value="0" leadInLength="0/1"  />
            <InterpolatingParam id="1190" interp="linr"  time="-9999999/1" value="0" leadInLength="0/1"  />
            <InterpolatingParam id="1191" interp="linr"  time="-9999999/1" value="0" leadInLength="0/1"  />
           </VectorParam>
           <InterpolatingParam id="1192" interp="linr"  time="-9999999/1" value="1" leadInLength="0/1"  name="opacity"/>
          </Parameters>
          <Attributes>
           <Attribute id="1193" value="" name="ident"/>
          </Attributes>
          <ExtraData>
           <Entry key="ZoomPanBin">
            <ZoomPanBin id="1194"  >
             <ZoomPanKeyframes>
              <ZoomPanKeyframe id="1195" timeRangeEnd="-9999999/1" timeRangeDuration="0/1" interpolaterName="linr"  />
             </ZoomPanKeyframes>
            </ZoomPanBin>
           </Entry>
          </ExtraData>
         </VMFile>
         <MetaData>
          <entry key="WinSubProjectDisplayName" val=""/>
         </MetaData>
        </UnifiedMedia>
        <UnifiedMedia id="1196"  >
         <AMFile id="1197" start="936" duration="103" scalar="1/1" mediaStart="12/1" mediaDuration="103/1" trackNumber="1" src="9" channelNumber="0,1" >
          <Parameters>
           <InterpolatingParam id="1198" interp="linr"  time="0/1" value="0" leadInLength="0/1"  name="volume"/>
           <Parameter id="1199"  name="captions"/>
          </Parameters>
          <Attributes>
           <Attribute id="1200" value="" name="ident"/>
           <Attribute id="1201" value="44100" name="sampleRate"/>
           <Attribute id="1202" value="16" name="bitDepth"/>
           <Attribute id="1203" value="1" name="gain"/>
           <Attribute id="1204" value="0" name="mixToMono"/>
          </Attributes>
         </AMFile>
         <VMFile id="1205" start="936" duration="103" scalar="1/1" mediaStart="12/1" mediaDuration="103/1" trackNumber="0" src="9" >
          <Transformer>
           <VectorParam id="1206"  name="translation">
            <InterpolatingParam id="1207" interp="linr"  time="-9999999/1" value="0" leadInLength="0/1"  />
            <InterpolatingParam id="1208" interp="linr"  time="-9999999/1" value="0" leadInLength="0/1"  />
            <InterpolatingParam id="1209" interp="linr"  time="-9999999/1" value="0" leadInLength="0/1"  />
           </VectorParam>
           <VectorParam id="1210"  name="rotation">
            <InterpolatingParam id="1211" interp="linr"  time="-9999999/1" value="0" leadInLength="0/1"  />
            <InterpolatingParam id="1212" interp="linr"  time="-9999999/1" value="0" leadInLength="0/1"  />
            <InterpolatingParam id="1213" interp="linr"  time="-9999999/1" value="0" leadInLength="0/1"  />
           </VectorParam>
           <VectorParam id="1214"  name="shear">
            <InterpolatingParam id="1215" interp="linr"  time="-9999999/1" value="0" leadInLength="0/1"  />
            <InterpolatingParam id="1216" interp="linr"  time="-9999999/1" value="0" leadInLength="0/1"  />
            <InterpolatingParam id="1217" interp="linr"  time="-9999999/1" value="0" leadInLength="0/1"  />
           </VectorParam>
           <VectorParam id="1218"  name="scale">
            <InterpolatingParam id="1219" interp="linr"  time="-9999999/1" value="0.59999999999999998" leadInLength="0/1"  />
            <InterpolatingParam id="1220" interp="linr"  time="-9999999/1" value="0.59999999999999998" leadInLength="0/1"  />
            <InterpolatingParam id="1221" interp="linr"  time="-9999999/1" value="1" leadInLength="0/1"  />
           </VectorParam>
           <VectorParam id="1222"  name="anchor">
            <InterpolatingParam id="1223" interp="linr"  time="0/1" value="0" leadInLength="0/1"  />
            <InterpolatingParam id="1224" interp="linr"  time="0/1" value="0" leadInLength="0/1"  />
            <InterpolatingParam id="1225" interp="linr"  time="0/1" value="0" leadInLength="0/1"  />
           </VectorParam>
          </Transformer>
          <Parameters>
           <VectorParam id="1226"  name="sourceCrop">
            <InterpolatingParam id="1227" interp="linr"  time="0/1" value="0" leadInLength="0/1"  />
            <InterpolatingParam id="1228" interp="linr"  time="0/1" value="0" leadInLength="0/1"  />
            <InterpolatingParam id="1229" interp="linr"  time="0/1" value="0" leadInLength="0/1"  />
            <InterpolatingParam id="1230" interp="linr"  time="0/1" value="0" leadInLength="0/1"  />
           </VectorParam>
           <VectorParam id="1231"  name="geometryCrop">
            <InterpolatingParam id="1232" interp="linr"  time="-9999999/1" value="0" leadInLength="0/1"  />
            <InterpolatingParam id="1233" interp="linr"  time="-9999999/1" value="0" leadInLength="0/1"  />
            <InterpolatingParam id="1234" interp="linr"  time="-9999999/1" value="0" leadInLength="0/1"  />
            <InterpolatingParam id="1235" interp="linr"  time="-9999999/1" value="0" leadInLength="0/1"  />
           </VectorParam>
           <InterpolatingParam id="1236" interp="linr"  time="-9999999/1" value="1" leadInLength="0/1"  name="opacity"/>
          </Parameters>
          <Attributes>
           <Attribute id="1237" value="" name="ident"/>
          </Attributes>
          <ExtraData>
           <Entry key="ZoomPanBin">
            <ZoomPanBin id="1238"  >
             <ZoomPanKeyframes>
              <ZoomPanKeyframe id="1239" timeRangeEnd="-9999999/1" timeRangeDuration="0/1" interpolaterName="linr"  />
             </ZoomPanKeyframes>
            </ZoomPanBin>
           </Entry>
          </ExtraData>
         </VMFile>
         <MetaData>
          <entry key="WinSubProjectDisplayName" val=""/>
         </MetaData>
        </UnifiedMedia>
        <UnifiedMedia id="1240"  >
         <AudioTransition id="1241" start="1039" duration="10" >
          <Parameters>
           <InterpolatingParam id="1242" interp="linr"  time="0/1" value="1" leadInLength="0/1"  name="volume"/>
           <Parameter id="1243"  name="captions"/>
          </Parameters>
          <Effects>
           <GenericEffect id="1244" name = "AudioTransition" >
            <Parameters>
            <Parameter id="1245"   name="audioEdgeModType">
             <Keyframes>
             <Keyframe id="1246"  time="0/1" value="0" leadInLength="0/1"  />
             </Keyframes>
            </Parameter>
            <Parameter id="1247"   name="audioTransitionType">
             <Keyframes>
             <Keyframe id="1248"  time="0/1" value="" leadInLength="0/1"  />
             </Keyframes>
            </Parameter>
            </Parameters>
            <MetaData>
            </MetaData>
           </GenericEffect>
          </Effects>
          <Attributes>
           <Attribute id="1249" value="" name="ident"/>
           <Attribute id="1250" value="0" name="sampleRate"/>
           <Attribute id="1251" value="0" name="bitDepth"/>
           <Attribute id="1252" value="1" name="gain"/>
           <Attribute id="1253" value="0" name="mixToMono"/>
          </Attributes>
         </AudioTransition>
         <ImageTransition id="1254" start="1039" duration="10" >
          <Transformer>
           <VectorParam id="1255"  name="translation">
            <InterpolatingParam id="1256" interp="linr"  time="0/1" value="0" leadInLength="0/1"  />
            <InterpolatingParam id="1257" interp="linr"  time="0/1" value="0" leadInLength="0/1"  />
            <InterpolatingParam id="1258" interp="linr"  time="0/1" value="0" leadInLength="0/1"  />
           </VectorParam>
           <VectorParam id="1259"  name="rotation">
            <InterpolatingParam id="1260" interp="linr"  time="0/1" value="0" leadInLength="0/1"  />
            <InterpolatingParam id="1261" interp="linr"  time="0/1" value="0" leadInLength="0/1"  />
            <InterpolatingParam id="1262" interp="linr"  time="0/1" value="0" leadInLength="0/1"  />
           </VectorParam>
           <VectorParam id="1263"  name="shear">
            <InterpolatingParam id="1264" interp="linr"  time="0/1" value="0" leadInLength="0/1"  />
            <InterpolatingParam id="1265" interp="linr"  time="0/1" value="0" leadInLength="0/1"  />
            <InterpolatingParam id="1266" interp="linr"  time="0/1" value="0" leadInLength="0/1"  />
           </VectorParam>
           <VectorParam id="1267"  name="scale">
            <InterpolatingParam id="1268" interp="linr"  time="0/1" value="1" leadInLength="0/1"  />
            <InterpolatingParam id="1269" interp="linr"  time="0/1" value="1" leadInLength="0/1"  />
            <InterpolatingParam id="1270" interp="linr"  time="0/1" value="1" leadInLength="0/1"  />
           </VectorParam>
           <VectorParam id="1271"  name="anchor">
            <InterpolatingParam id="1272" interp="linr"  time="0/1" value="0" leadInLength="0/1"  />
            <InterpolatingParam id="1273" interp="linr"  time="0/1" value="0" leadInLength="0/1"  />
            <InterpolatingParam id="1274" interp="linr"  time="0/1" value="0" leadInLength="0/1"  />
           </VectorParam>
          </Transformer>
          <Parameters>
           <VectorParam id="1275"  name="sourceCrop">
            <InterpolatingParam id="1276" interp="linr"  time="0/1" value="0" leadInLength="0/1"  />
            <InterpolatingParam id="1277" interp="linr"  time="0/1" value="0" leadInLength="0/1"  />
            <InterpolatingParam id="1278" interp="linr"  time="0/1" value="0" leadInLength="0/1"  />
            <InterpolatingParam id="1279" interp="linr"  time="0/1" value="0" leadInLength="0/1"  />
           </VectorParam>
           <VectorParam id="1280"  name="geometryCrop">
            <InterpolatingParam id="1281" interp="linr"  time="0/1" value="0" leadInLength="0/1"  />
            <InterpolatingParam id="1282" interp="linr"  time="0/1" value="0" leadInLength="0/1"  />
            <InterpolatingParam id="1283" interp="linr"  time="0/1" value="0" leadInLength="0/1"  />
            <InterpolatingParam id="1284" interp="linr"  time="0/1" value="0" leadInLength="0/1"  />
           </VectorParam>
           <InterpolatingParam id="1285" interp="linr"  time="0/1" value="1" leadInLength="0/1"  name="opacity"/>
          </Parameters>
          <Effects>
           <GenericEffect id="1286" name = "VisualTransition" >
            <Parameters>
            <InterpolatingParam id="1287" interp="linr"  time="0/1" value="1" leadInLength="0/1"   name="leftFramePercentage"/>
            <InterpolatingParam id="1288" interp="linr"  time="0/1" value="1" leadInLength="0/1"   name="rightFramePercentage"/>
            <Parameter id="1289"   name="visualEdgeModType">
             <Keyframes>
             <Keyframe id="1290"  time="0/1" value="0" leadInLength="0/1"  />
             </Keyframes>
            </Parameter>
            <Parameter id="1291"   name="visualTransitionType">
             <Keyframes>
             <Keyframe id="1292"  time="0/1" value="Fade" leadInLength="0/1"  />
             </Keyframes>
            </Parameter>
            </Parameters>
            <MetaData>
            </MetaData>
           </GenericEffect>
          </Effects>
          <Attributes>
           <Attribute id="1293" value="" name="ident"/>
          </Attributes>
          <ExtraData>
           <Entry key="ZoomPanBin">
            <ZoomPanBin id="1294"  >
             <ZoomPanKeyframes>
             </ZoomPanKeyframes>
            </ZoomPanBin>
           </Entry>
          </ExtraData>
         </ImageTransition>
         <MetaData>
          <entry key="WinSubProjectDisplayName" val=""/>
         </MetaData>
        </UnifiedMedia>
        <UnifiedMedia id="1295"  >
         <AMFile id="1296" start="1049" duration="42" scalar="1/1" mediaStart="141/1" mediaDuration="42/1" trackNumber="1" src="9" channelNumber="0,1" >
          <Parameters>
           <InterpolatingParam id="1297" interp="linr"  time="0/1" value="0" leadInLength="0/1"  name="volume"/>
           <Parameter id="1298"  name="captions"/>
          </Parameters>
          <Attributes>
           <Attribute id="1299" value="" name="ident"/>
           <Attribute id="1300" value="44100" name="sampleRate"/>
           <Attribute id="1301" value="16" name="bitDepth"/>
           <Attribute id="1302" value="1" name="gain"/>
           <Attribute id="1303" value="0" name="mixToMono"/>
          </Attributes>
         </AMFile>
         <VMFile id="1304" start="1049" duration="42" scalar="1/1" mediaStart="141/1" mediaDuration="42/1" trackNumber="0" src="9" >
          <Transformer>
           <VectorParam id="1305"  name="translation">
            <InterpolatingParam id="1306" interp="linr"  time="-9999999/1" value="0" leadInLength="0/1"  />
            <InterpolatingParam id="1307" interp="linr"  time="-9999999/1" value="0" leadInLength="0/1"  />
            <InterpolatingParam id="1308" interp="linr"  time="-9999999/1" value="0" leadInLength="0/1"  />
           </VectorParam>
           <VectorParam id="1309"  name="rotation">
            <InterpolatingParam id="1310" interp="linr"  time="-9999999/1" value="0" leadInLength="0/1"  />
            <InterpolatingParam id="1311" interp="linr"  time="-9999999/1" value="0" leadInLength="0/1"  />
            <InterpolatingParam id="1312" interp="linr"  time="-9999999/1" value="0" leadInLength="0/1"  />
           </VectorParam>
           <VectorParam id="1313"  name="shear">
            <InterpolatingParam id="1314" interp="linr"  time="-9999999/1" value="0" leadInLength="0/1"  />
            <InterpolatingParam id="1315" interp="linr"  time="-9999999/1" value="0" leadInLength="0/1"  />
            <InterpolatingParam id="1316" interp="linr"  time="-9999999/1" value="0" leadInLength="0/1"  />
           </VectorParam>
           <VectorParam id="1317"  name="scale">
            <InterpolatingParam id="1318" interp="linr"  time="-9999999/1" value="0.59999999999999998" leadInLength="0/1"  />
            <InterpolatingParam id="1319" interp="linr"  time="-9999999/1" value="0.59999999999999998" leadInLength="0/1"  />
            <InterpolatingParam id="1320" interp="linr"  time="-9999999/1" value="1" leadInLength="0/1"  />
           </VectorParam>
           <VectorParam id="1321"  name="anchor">
            <InterpolatingParam id="1322" interp="linr"  time="0/1" value="0" leadInLength="0/1"  />
            <InterpolatingParam id="1323" interp="linr"  time="0/1" value="0" leadInLength="0/1"  />
            <InterpolatingParam id="1324" interp="linr"  time="0/1" value="0" leadInLength="0/1"  />
           </VectorParam>
          </Transformer>
          <Parameters>
           <VectorParam id="1325"  name="sourceCrop">
            <InterpolatingParam id="1326" interp="linr"  time="0/1" value="0" leadInLength="0/1"  />
            <InterpolatingParam id="1327" interp="linr"  time="0/1" value="0" leadInLength="0/1"  />
            <InterpolatingParam id="1328" interp="linr"  time="0/1" value="0" leadInLength="0/1"  />
            <InterpolatingParam id="1329" interp="linr"  time="0/1" value="0" leadInLength="0/1"  />
           </VectorParam>
           <VectorParam id="1330"  name="geometryCrop">
            <InterpolatingParam id="1331" interp="linr"  time="-9999999/1" value="0" leadInLength="0/1"  />
            <InterpolatingParam id="1332" interp="linr"  time="-9999999/1" value="0" leadInLength="0/1"  />
            <InterpolatingParam id="1333" interp="linr"  time="-9999999/1" value="0" leadInLength="0/1"  />
            <InterpolatingParam id="1334" interp="linr"  time="-9999999/1" value="0" leadInLength="0/1"  />
           </VectorParam>
           <InterpolatingParam id="1335" interp="linr"  time="-9999999/1" value="1" leadInLength="0/1"  name="opacity"/>
          </Parameters>
          <Attributes>
           <Attribute id="1336" value="" name="ident"/>
          </Attributes>
          <ExtraData>
           <Entry key="ZoomPanBin">
            <ZoomPanBin id="1337"  >
             <ZoomPanKeyframes>
              <ZoomPanKeyframe id="1338" timeRangeEnd="-9999999/1" timeRangeDuration="0/1" interpolaterName="linr"  />
             </ZoomPanKeyframes>
            </ZoomPanBin>
           </Entry>
          </ExtraData>
         </VMFile>
         <MetaData>
          <entry key="WinSubProjectDisplayName" val=""/>
         </MetaData>
        </UnifiedMedia>
        <UnifiedMedia id="1339"  >
         <AudioTransition id="1340" start="1091" duration="10" >
          <Parameters>
           <InterpolatingParam id="1341" interp="linr"  time="0/1" value="1" leadInLength="0/1"  name="volume"/>
           <Parameter id="1342"  name="captions"/>
          </Parameters>
          <Effects>
           <GenericEffect id="1343" name = "AudioTransition" >
            <Parameters>
            <Parameter id="1344"   name="audioEdgeModType">
             <Keyframes>
             <Keyframe id="1345"  time="0/1" value="0" leadInLength="0/1"  />
             </Keyframes>
            </Parameter>
            <Parameter id="1346"   name="audioTransitionType">
             <Keyframes>
             <Keyframe id="1347"  time="0/1" value="" leadInLength="0/1"  />
             </Keyframes>
            </Parameter>
            </Parameters>
            <MetaData>
            </MetaData>
           </GenericEffect>
          </Effects>
          <Attributes>
           <Attribute id="1348" value="" name="ident"/>
           <Attribute id="1349" value="0" name="sampleRate"/>
           <Attribute id="1350" value="0" name="bitDepth"/>
           <Attribute id="1351" value="1" name="gain"/>
           <Attribute id="1352" value="0" name="mixToMono"/>
          </Attributes>
         </AudioTransition>
         <ImageTransition id="1353" start="1091" duration="10" >
          <Transformer>
           <VectorParam id="1354"  name="translation">
            <InterpolatingParam id="1355" interp="linr"  time="0/1" value="0" leadInLength="0/1"  />
            <InterpolatingParam id="1356" interp="linr"  time="0/1" value="0" leadInLength="0/1"  />
            <InterpolatingParam id="1357" interp="linr"  time="0/1" value="0" leadInLength="0/1"  />
           </VectorParam>
           <VectorParam id="1358"  name="rotation">
            <InterpolatingParam id="1359" interp="linr"  time="0/1" value="0" leadInLength="0/1"  />
            <InterpolatingParam id="1360" interp="linr"  time="0/1" value="0" leadInLength="0/1"  />
            <InterpolatingParam id="1361" interp="linr"  time="0/1" value="0" leadInLength="0/1"  />
           </VectorParam>
           <VectorParam id="1362"  name="shear">
            <InterpolatingParam id="1363" interp="linr"  time="0/1" value="0" leadInLength="0/1"  />
            <InterpolatingParam id="1364" interp="linr"  time="0/1" value="0" leadInLength="0/1"  />
            <InterpolatingParam id="1365" interp="linr"  time="0/1" value="0" leadInLength="0/1"  />
           </VectorParam>
           <VectorParam id="1366"  name="scale">
            <InterpolatingParam id="1367" interp="linr"  time="0/1" value="1" leadInLength="0/1"  />
            <InterpolatingParam id="1368" interp="linr"  time="0/1" value="1" leadInLength="0/1"  />
            <InterpolatingParam id="1369" interp="linr"  time="0/1" value="1" leadInLength="0/1"  />
           </VectorParam>
           <VectorParam id="1370"  name="anchor">
            <InterpolatingParam id="1371" interp="linr"  time="0/1" value="0" leadInLength="0/1"  />
            <InterpolatingParam id="1372" interp="linr"  time="0/1" value="0" leadInLength="0/1"  />
            <InterpolatingParam id="1373" interp="linr"  time="0/1" value="0" leadInLength="0/1"  />
           </VectorParam>
          </Transformer>
          <Parameters>
           <VectorParam id="1374"  name="sourceCrop">
            <InterpolatingParam id="1375" interp="linr"  time="0/1" value="0" leadInLength="0/1"  />
            <InterpolatingParam id="1376" interp="linr"  time="0/1" value="0" leadInLength="0/1"  />
            <InterpolatingParam id="1377" interp="linr"  time="0/1" value="0" leadInLength="0/1"  />
            <InterpolatingParam id="1378" interp="linr"  time="0/1" value="0" leadInLength="0/1"  />
           </VectorParam>
           <VectorParam id="1379"  name="geometryCrop">
            <InterpolatingParam id="1380" interp="linr"  time="0/1" value="0" leadInLength="0/1"  />
            <InterpolatingParam id="1381" interp="linr"  time="0/1" value="0" leadInLength="0/1"  />
            <InterpolatingParam id="1382" interp="linr"  time="0/1" value="0" leadInLength="0/1"  />
            <InterpolatingParam id="1383" interp="linr"  time="0/1" value="0" leadInLength="0/1"  />
           </VectorParam>
           <InterpolatingParam id="1384" interp="linr"  time="0/1" value="1" leadInLength="0/1"  name="opacity"/>
          </Parameters>
          <Effects>
           <GenericEffect id="1385" name = "VisualTransition" >
            <Parameters>
            <InterpolatingParam id="1386" interp="linr"  time="0/1" value="1" leadInLength="0/1"   name="leftFramePercentage"/>
            <InterpolatingParam id="1387" interp="linr"  time="0/1" value="1" leadInLength="0/1"   name="rightFramePercentage"/>
            <Parameter id="1388"   name="visualEdgeModType">
             <Keyframes>
             <Keyframe id="1389"  time="0/1" value="0" leadInLength="0/1"  />
             </Keyframes>
            </Parameter>
            <Parameter id="1390"   name="visualTransitionType">
             <Keyframes>
             <Keyframe id="1391"  time="0/1" value="Fade" leadInLength="0/1"  />
             </Keyframes>
            </Parameter>
            </Parameters>
            <MetaData>
            </MetaData>
           </GenericEffect>
          </Effects>
          <Attributes>
           <Attribute id="1392" value="" name="ident"/>
          </Attributes>
          <ExtraData>
           <Entry key="ZoomPanBin">
            <ZoomPanBin id="1393"  >
             <ZoomPanKeyframes>
             </ZoomPanKeyframes>
            </ZoomPanBin>
           </Entry>
          </ExtraData>
         </ImageTransition>
         <MetaData>
          <entry key="WinSubProjectDisplayName" val=""/>
         </MetaData>
        </UnifiedMedia>
        <UnifiedMedia id="1394"  >
         <AMFile id="1395" start="1101" duration="25" scalar="1/1" mediaStart="233/1" mediaDuration="25/1" trackNumber="1" src="9" channelNumber="0,1" >
          <Parameters>
           <InterpolatingParam id="1396" interp="linr"  time="0/1" value="0" leadInLength="0/1"  name="volume"/>
           <Parameter id="1397"  name="captions"/>
          </Parameters>
          <Attributes>
           <Attribute id="1398" value="" name="ident"/>
           <Attribute id="1399" value="44100" name="sampleRate"/>
           <Attribute id="1400" value="16" name="bitDepth"/>
           <Attribute id="1401" value="1" name="gain"/>
           <Attribute id="1402" value="0" name="mixToMono"/>
          </Attributes>
         </AMFile>
         <VMFile id="1403" start="1101" duration="25" scalar="1/1" mediaStart="233/1" mediaDuration="25/1" trackNumber="0" src="9" >
          <Transformer>
           <VectorParam id="1404"  name="translation">
            <InterpolatingParam id="1405" interp="linr"  time="-9999999/1" value="0" leadInLength="0/1"  />
            <InterpolatingParam id="1406" interp="linr"  time="-9999999/1" value="0" leadInLength="0/1"  />
            <InterpolatingParam id="1407" interp="linr"  time="-9999999/1" value="0" leadInLength="0/1"  />
           </VectorParam>
           <VectorParam id="1408"  name="rotation">
            <InterpolatingParam id="1409" interp="linr"  time="-9999999/1" value="0" leadInLength="0/1"  />
            <InterpolatingParam id="1410" interp="linr"  time="-9999999/1" value="0" leadInLength="0/1"  />
            <InterpolatingParam id="1411" interp="linr"  time="-9999999/1" value="0" leadInLength="0/1"  />
           </VectorParam>
           <VectorParam id="1412"  name="shear">
            <InterpolatingParam id="1413" interp="linr"  time="-9999999/1" value="0" leadInLength="0/1"  />
            <InterpolatingParam id="1414" interp="linr"  time="-9999999/1" value="0" leadInLength="0/1"  />
            <InterpolatingParam id="1415" interp="linr"  time="-9999999/1" value="0" leadInLength="0/1"  />
           </VectorParam>
           <VectorParam id="1416"  name="scale">
            <InterpolatingParam id="1417" interp="linr"  time="-9999999/1" value="0.59999999999999998" leadInLength="0/1"  />
            <InterpolatingParam id="1418" interp="linr"  time="-9999999/1" value="0.59999999999999998" leadInLength="0/1"  />
            <InterpolatingParam id="1419" interp="linr"  time="-9999999/1" value="1" leadInLength="0/1"  />
           </VectorParam>
           <VectorParam id="1420"  name="anchor">
            <InterpolatingParam id="1421" interp="linr"  time="0/1" value="0" leadInLength="0/1"  />
            <InterpolatingParam id="1422" interp="linr"  time="0/1" value="0" leadInLength="0/1"  />
            <InterpolatingParam id="1423" interp="linr"  time="0/1" value="0" leadInLength="0/1"  />
           </VectorParam>
          </Transformer>
          <Parameters>
           <VectorParam id="1424"  name="sourceCrop">
            <InterpolatingParam id="1425" interp="linr"  time="0/1" value="0" leadInLength="0/1"  />
            <InterpolatingParam id="1426" interp="linr"  time="0/1" value="0" leadInLength="0/1"  />
            <InterpolatingParam id="1427" interp="linr"  time="0/1" value="0" leadInLength="0/1"  />
            <InterpolatingParam id="1428" interp="linr"  time="0/1" value="0" leadInLength="0/1"  />
           </VectorParam>
           <VectorParam id="1429"  name="geometryCrop">
            <InterpolatingParam id="1430" interp="linr"  time="-9999999/1" value="0" leadInLength="0/1"  />
            <InterpolatingParam id="1431" interp="linr"  time="-9999999/1" value="0" leadInLength="0/1"  />
            <InterpolatingParam id="1432" interp="linr"  time="-9999999/1" value="0" leadInLength="0/1"  />
            <InterpolatingParam id="1433" interp="linr"  time="-9999999/1" value="0" leadInLength="0/1"  />
           </VectorParam>
           <InterpolatingParam id="1434" interp="linr"  time="-9999999/1" value="1" leadInLength="0/1"  name="opacity"/>
          </Parameters>
          <Attributes>
           <Attribute id="1435" value="" name="ident"/>
          </Attributes>
          <ExtraData>
           <Entry key="ZoomPanBin">
            <ZoomPanBin id="1436"  >
             <ZoomPanKeyframes>
              <ZoomPanKeyframe id="1437" timeRangeEnd="-9999999/1" timeRangeDuration="0/1" interpolaterName="linr"  />
             </ZoomPanKeyframes>
            </ZoomPanBin>
           </Entry>
          </ExtraData>
         </VMFile>
         <MetaData>
          <entry key="WinSubProjectDisplayName" val=""/>
         </MetaData>
        </UnifiedMedia>
        <UnifiedMedia id="1438"  >
         <AudioTransition id="1439" start="1126" duration="10" >
          <Parameters>
           <InterpolatingParam id="1440" interp="linr"  time="0/1" value="1" leadInLength="0/1"  name="volume"/>
           <Parameter id="1441"  name="captions"/>
          </Parameters>
          <Effects>
           <GenericEffect id="1442" name = "AudioTransition" >
            <Parameters>
            <Parameter id="1443"   name="audioEdgeModType">
             <Keyframes>
             <Keyframe id="1444"  time="0/1" value="0" leadInLength="0/1"  />
             </Keyframes>
            </Parameter>
            <Parameter id="1445"   name="audioTransitionType">
             <Keyframes>
             <Keyframe id="1446"  time="0/1" value="" leadInLength="0/1"  />
             </Keyframes>
            </Parameter>
            </Parameters>
            <MetaData>
            </MetaData>
           </GenericEffect>
          </Effects>
          <Attributes>
           <Attribute id="1447" value="" name="ident"/>
           <Attribute id="1448" value="0" name="sampleRate"/>
           <Attribute id="1449" value="0" name="bitDepth"/>
           <Attribute id="1450" value="1" name="gain"/>
           <Attribute id="1451" value="0" name="mixToMono"/>
          </Attributes>
         </AudioTransition>
         <ImageTransition id="1452" start="1126" duration="10" >
          <Transformer>
           <VectorParam id="1453"  name="translation">
            <InterpolatingParam id="1454" interp="linr"  time="0/1" value="0" leadInLength="0/1"  />
            <InterpolatingParam id="1455" interp="linr"  time="0/1" value="0" leadInLength="0/1"  />
            <InterpolatingParam id="1456" interp="linr"  time="0/1" value="0" leadInLength="0/1"  />
           </VectorParam>
           <VectorParam id="1457"  name="rotation">
            <InterpolatingParam id="1458" interp="linr"  time="0/1" value="0" leadInLength="0/1"  />
            <InterpolatingParam id="1459" interp="linr"  time="0/1" value="0" leadInLength="0/1"  />
            <InterpolatingParam id="1460" interp="linr"  time="0/1" value="0" leadInLength="0/1"  />
           </VectorParam>
           <VectorParam id="1461"  name="shear">
            <InterpolatingParam id="1462" interp="linr"  time="0/1" value="0" leadInLength="0/1"  />
            <InterpolatingParam id="1463" interp="linr"  time="0/1" value="0" leadInLength="0/1"  />
            <InterpolatingParam id="1464" interp="linr"  time="0/1" value="0" leadInLength="0/1"  />
           </VectorParam>
           <VectorParam id="1465"  name="scale">
            <InterpolatingParam id="1466" interp="linr"  time="0/1" value="1" leadInLength="0/1"  />
            <InterpolatingParam id="1467" interp="linr"  time="0/1" value="1" leadInLength="0/1"  />
            <InterpolatingParam id="1468" interp="linr"  time="0/1" value="1" leadInLength="0/1"  />
           </VectorParam>
           <VectorParam id="1469"  name="anchor">
            <InterpolatingParam id="1470" interp="linr"  time="0/1" value="0" leadInLength="0/1"  />
            <InterpolatingParam id="1471" interp="linr"  time="0/1" value="0" leadInLength="0/1"  />
            <InterpolatingParam id="1472" interp="linr"  time="0/1" value="0" leadInLength="0/1"  />
           </VectorParam>
          </Transformer>
          <Parameters>
           <VectorParam id="1473"  name="sourceCrop">
            <InterpolatingParam id="1474" interp="linr"  time="0/1" value="0" leadInLength="0/1"  />
            <InterpolatingParam id="1475" interp="linr"  time="0/1" value="0" leadInLength="0/1"  />
            <InterpolatingParam id="1476" interp="linr"  time="0/1" value="0" leadInLength="0/1"  />
            <InterpolatingParam id="1477" interp="linr"  time="0/1" value="0" leadInLength="0/1"  />
           </VectorParam>
           <VectorParam id="1478"  name="geometryCrop">
            <InterpolatingParam id="1479" interp="linr"  time="0/1" value="0" leadInLength="0/1"  />
            <InterpolatingParam id="1480" interp="linr"  time="0/1" value="0" leadInLength="0/1"  />
            <InterpolatingParam id="1481" interp="linr"  time="0/1" value="0" leadInLength="0/1"  />
            <InterpolatingParam id="1482" interp="linr"  time="0/1" value="0" leadInLength="0/1"  />
           </VectorParam>
           <InterpolatingParam id="1483" interp="linr"  time="0/1" value="1" leadInLength="0/1"  name="opacity"/>
          </Parameters>
          <Effects>
           <GenericEffect id="1484" name = "VisualTransition" >
            <Parameters>
            <InterpolatingParam id="1485" interp="linr"  time="0/1" value="1" leadInLength="0/1"   name="leftFramePercentage"/>
            <InterpolatingParam id="1486" interp="linr"  time="0/1" value="1" leadInLength="0/1"   name="rightFramePercentage"/>
            <Parameter id="1487"   name="visualEdgeModType">
             <Keyframes>
             <Keyframe id="1488"  time="0/1" value="0" leadInLength="0/1"  />
             </Keyframes>
            </Parameter>
            <Parameter id="1489"   name="visualTransitionType">
             <Keyframes>
             <Keyframe id="1490"  time="0/1" value="Fade" leadInLength="0/1"  />
             </Keyframes>
            </Parameter>
            </Parameters>
            <MetaData>
            </MetaData>
           </GenericEffect>
          </Effects>
          <Attributes>
           <Attribute id="1491" value="" name="ident"/>
          </Attributes>
          <ExtraData>
           <Entry key="ZoomPanBin">
            <ZoomPanBin id="1492"  >
             <ZoomPanKeyframes>
             </ZoomPanKeyframes>
            </ZoomPanBin>
           </Entry>
          </ExtraData>
         </ImageTransition>
         <MetaData>
          <entry key="WinSubProjectDisplayName" val=""/>
         </MetaData>
        </UnifiedMedia>
        <UnifiedMedia id="1493"  >
         <AMFile id="1494" start="1136" duration="216" scalar="1/1" mediaStart="312/1" mediaDuration="216/1" trackNumber="1" src="9" channelNumber="0,1" >
          <Parameters>
           <InterpolatingParam id="1495" interp="linr"  time="0/1" value="0" leadInLength="0/1"  name="volume"/>
           <Parameter id="1496"  name="captions"/>
          </Parameters>
          <Attributes>
           <Attribute id="1497" value="" name="ident"/>
           <Attribute id="1498" value="44100" name="sampleRate"/>
           <Attribute id="1499" value="16" name="bitDepth"/>
           <Attribute id="1500" value="1" name="gain"/>
           <Attribute id="1501" value="0" name="mixToMono"/>
          </Attributes>
         </AMFile>
         <VMFile id="1502" start="1136" duration="216" scalar="1/1" mediaStart="312/1" mediaDuration="216/1" trackNumber="0" src="9" >
          <Transformer>
           <VectorParam id="1503"  name="translation">
            <InterpolatingParam id="1504" interp="linr"  time="-9999999/1" value="0" leadInLength="0/1"  />
            <InterpolatingParam id="1505" interp="linr"  time="-9999999/1" value="0" leadInLength="0/1"  />
            <InterpolatingParam id="1506" interp="linr"  time="-9999999/1" value="0" leadInLength="0/1"  />
           </VectorParam>
           <VectorParam id="1507"  name="rotation">
            <InterpolatingParam id="1508" interp="linr"  time="-9999999/1" value="0" leadInLength="0/1"  />
            <InterpolatingParam id="1509" interp="linr"  time="-9999999/1" value="0" leadInLength="0/1"  />
            <InterpolatingParam id="1510" interp="linr"  time="-9999999/1" value="0" leadInLength="0/1"  />
           </VectorParam>
           <VectorParam id="1511"  name="shear">
            <InterpolatingParam id="1512" interp="linr"  time="-9999999/1" value="0" leadInLength="0/1"  />
            <InterpolatingParam id="1513" interp="linr"  time="-9999999/1" value="0" leadInLength="0/1"  />
            <InterpolatingParam id="1514" interp="linr"  time="-9999999/1" value="0" leadInLength="0/1"  />
           </VectorParam>
           <VectorParam id="1515"  name="scale">
            <InterpolatingParam id="1516" interp="linr"  time="-9999999/1" value="0.59999999999999998" leadInLength="0/1"  />
            <InterpolatingParam id="1517" interp="linr"  time="-9999999/1" value="0.59999999999999998" leadInLength="0/1"  />
            <InterpolatingParam id="1518" interp="linr"  time="-9999999/1" value="1" leadInLength="0/1"  />
           </VectorParam>
           <VectorParam id="1519"  name="anchor">
            <InterpolatingParam id="1520" interp="linr"  time="0/1" value="0" leadInLength="0/1"  />
            <InterpolatingParam id="1521" interp="linr"  time="0/1" value="0" leadInLength="0/1"  />
            <InterpolatingParam id="1522" interp="linr"  time="0/1" value="0" leadInLength="0/1"  />
           </VectorParam>
          </Transformer>
          <Parameters>
           <VectorParam id="1523"  name="sourceCrop">
            <InterpolatingParam id="1524" interp="linr"  time="0/1" value="0" leadInLength="0/1"  />
            <InterpolatingParam id="1525" interp="linr"  time="0/1" value="0" leadInLength="0/1"  />
            <InterpolatingParam id="1526" interp="linr"  time="0/1" value="0" leadInLength="0/1"  />
            <InterpolatingParam id="1527" interp="linr"  time="0/1" value="0" leadInLength="0/1"  />
           </VectorParam>
           <VectorParam id="1528"  name="geometryCrop">
            <InterpolatingParam id="1529" interp="linr"  time="-9999999/1" value="0" leadInLength="0/1"  />
            <InterpolatingParam id="1530" interp="linr"  time="-9999999/1" value="0" leadInLength="0/1"  />
            <InterpolatingParam id="1531" interp="linr"  time="-9999999/1" value="0" leadInLength="0/1"  />
            <InterpolatingParam id="1532" interp="linr"  time="-9999999/1" value="0" leadInLength="0/1"  />
           </VectorParam>
           <InterpolatingParam id="1533" interp="linr"  time="-9999999/1" value="1" leadInLength="0/1"  name="opacity"/>
          </Parameters>
          <Attributes>
           <Attribute id="1534" value="" name="ident"/>
          </Attributes>
          <ExtraData>
           <Entry key="ZoomPanBin">
            <ZoomPanBin id="1535"  >
             <ZoomPanKeyframes>
              <ZoomPanKeyframe id="1536" timeRangeEnd="-9999999/1" timeRangeDuration="0/1" interpolaterName="linr"  />
             </ZoomPanKeyframes>
            </ZoomPanBin>
           </Entry>
          </ExtraData>
         </VMFile>
         <MetaData>
          <entry key="WinSubProjectDisplayName" val=""/>
         </MetaData>
        </UnifiedMedia>
        <UnifiedMedia id="1537"  >
         <AMFile id="1538" start="1352" duration="169" scalar="1/1" mediaStart="0/1" mediaDuration="169/1" trackNumber="1" src="7" channelNumber="0,1" >
          <Parameters>
           <InterpolatingParam id="1539" interp="linr"  time="0/1" value="0" leadInLength="0/1"  name="volume"/>
           <Parameter id="1540"  name="captions"/>
          </Parameters>
          <Attributes>
           <Attribute id="1541" value="" name="ident"/>
           <Attribute id="1542" value="44100" name="sampleRate"/>
           <Attribute id="1543" value="16" name="bitDepth"/>
           <Attribute id="1544" value="1" name="gain"/>
           <Attribute id="1545" value="0" name="mixToMono"/>
          </Attributes>
         </AMFile>
         <VMFile id="1546" start="1352" duration="169" scalar="1/1" mediaStart="0/1" mediaDuration="169/1" trackNumber="0" src="7" >
          <Transformer>
           <VectorParam id="1547"  name="translation">
            <InterpolatingParam id="1548" interp="linr"  time="-9999999/1" value="0" leadInLength="0/1"  />
            <InterpolatingParam id="1549" interp="linr"  time="-9999999/1" value="0" leadInLength="0/1"  />
            <InterpolatingParam id="1550" interp="linr"  time="-9999999/1" value="0" leadInLength="0/1"  />
           </VectorParam>
           <VectorParam id="1551"  name="rotation">
            <InterpolatingParam id="1552" interp="linr"  time="-9999999/1" value="0" leadInLength="0/1"  />
            <InterpolatingParam id="1553" interp="linr"  time="-9999999/1" value="0" leadInLength="0/1"  />
            <InterpolatingParam id="1554" interp="linr"  time="-9999999/1" value="0" leadInLength="0/1"  />
           </VectorParam>
           <VectorParam id="1555"  name="shear">
            <InterpolatingParam id="1556" interp="linr"  time="-9999999/1" value="0" leadInLength="0/1"  />
            <InterpolatingParam id="1557" interp="linr"  time="-9999999/1" value="0" leadInLength="0/1"  />
            <InterpolatingParam id="1558" interp="linr"  time="-9999999/1" value="0" leadInLength="0/1"  />
           </VectorParam>
           <VectorParam id="1559"  name="scale">
            <InterpolatingParam id="1560" interp="linr"  time="-9999999/1" value="0.59999999999999998" leadInLength="0/1"  />
            <InterpolatingParam id="1561" interp="linr"  time="-9999999/1" value="0.59999999999999998" leadInLength="0/1"  />
            <InterpolatingParam id="1562" interp="linr"  time="-9999999/1" value="1" leadInLength="0/1"  />
           </VectorParam>
           <VectorParam id="1563"  name="anchor">
            <InterpolatingParam id="1564" interp="linr"  time="0/1" value="0" leadInLength="0/1"  />
            <InterpolatingParam id="1565" interp="linr"  time="0/1" value="0" leadInLength="0/1"  />
            <InterpolatingParam id="1566" interp="linr"  time="0/1" value="0" leadInLength="0/1"  />
           </VectorParam>
          </Transformer>
          <Parameters>
           <VectorParam id="1567"  name="sourceCrop">
            <InterpolatingParam id="1568" interp="linr"  time="0/1" value="0" leadInLength="0/1"  />
            <InterpolatingParam id="1569" interp="linr"  time="0/1" value="0" leadInLength="0/1"  />
            <InterpolatingParam id="1570" interp="linr"  time="0/1" value="0" leadInLength="0/1"  />
            <InterpolatingParam id="1571" interp="linr"  time="0/1" value="0" leadInLength="0/1"  />
           </VectorParam>
           <VectorParam id="1572"  name="geometryCrop">
            <InterpolatingParam id="1573" interp="linr"  time="-9999999/1" value="0" leadInLength="0/1"  />
            <InterpolatingParam id="1574" interp="linr"  time="-9999999/1" value="0" leadInLength="0/1"  />
            <InterpolatingParam id="1575" interp="linr"  time="-9999999/1" value="0" leadInLength="0/1"  />
            <InterpolatingParam id="1576" interp="linr"  time="-9999999/1" value="0" leadInLength="0/1"  />
           </VectorParam>
           <InterpolatingParam id="1577" interp="linr"  time="-9999999/1" value="1" leadInLength="0/1"  name="opacity"/>
          </Parameters>
          <Attributes>
           <Attribute id="1578" value="" name="ident"/>
          </Attributes>
          <ExtraData>
           <Entry key="ZoomPanBin">
            <ZoomPanBin id="1579"  >
             <ZoomPanKeyframes>
              <ZoomPanKeyframe id="1580" timeRangeEnd="-9999999/1" timeRangeDuration="0/1" interpolaterName="linr"  />
             </ZoomPanKeyframes>
            </ZoomPanBin>
           </Entry>
          </ExtraData>
         </VMFile>
         <MetaData>
          <entry key="WinSubProjectDisplayName" val=""/>
         </MetaData>
        </UnifiedMedia>
        <UnifiedMedia id="1581"  >
         <AudioTransition id="1582" start="1521" duration="30" >
          <Parameters>
           <InterpolatingParam id="1583" interp="linr"  time="0/1" value="1" leadInLength="0/1"  name="volume"/>
           <Parameter id="1584"  name="captions"/>
          </Parameters>
          <Effects>
           <GenericEffect id="1585" name = "AudioTransition" >
            <Parameters>
            <Parameter id="1586"   name="audioEdgeModType">
             <Keyframes>
             <Keyframe id="1587"  time="0/1" value="0" leadInLength="0/1"  />
             </Keyframes>
            </Parameter>
            <Parameter id="1588"   name="audioTransitionType">
             <Keyframes>
             <Keyframe id="1589"  time="0/1" value="" leadInLength="0/1"  />
             </Keyframes>
            </Parameter>
            </Parameters>
            <MetaData>
            </MetaData>
           </GenericEffect>
          </Effects>
          <Attributes>
           <Attribute id="1590" value="" name="ident"/>
           <Attribute id="1591" value="0" name="sampleRate"/>
           <Attribute id="1592" value="0" name="bitDepth"/>
           <Attribute id="1593" value="1" name="gain"/>
           <Attribute id="1594" value="0" name="mixToMono"/>
          </Attributes>
         </AudioTransition>
         <ImageTransition id="1595" start="1521" duration="30" >
          <Transformer>
           <VectorParam id="1596"  name="translation">
            <InterpolatingParam id="1597" interp="linr"  time="0/1" value="0" leadInLength="0/1"  />
            <InterpolatingParam id="1598" interp="linr"  time="0/1" value="0" leadInLength="0/1"  />
            <InterpolatingParam id="1599" interp="linr"  time="0/1" value="0" leadInLength="0/1"  />
           </VectorParam>
           <VectorParam id="1600"  name="rotation">
            <InterpolatingParam id="1601" interp="linr"  time="0/1" value="0" leadInLength="0/1"  />
            <InterpolatingParam id="1602" interp="linr"  time="0/1" value="0" leadInLength="0/1"  />
            <InterpolatingParam id="1603" interp="linr"  time="0/1" value="0" leadInLength="0/1"  />
           </VectorParam>
           <VectorParam id="1604"  name="shear">
            <InterpolatingParam id="1605" interp="linr"  time="0/1" value="0" leadInLength="0/1"  />
            <InterpolatingParam id="1606" interp="linr"  time="0/1" value="0" leadInLength="0/1"  />
            <InterpolatingParam id="1607" interp="linr"  time="0/1" value="0" leadInLength="0/1"  />
           </VectorParam>
           <VectorParam id="1608"  name="scale">
            <InterpolatingParam id="1609" interp="linr"  time="0/1" value="1" leadInLength="0/1"  />
            <InterpolatingParam id="1610" interp="linr"  time="0/1" value="1" leadInLength="0/1"  />
            <InterpolatingParam id="1611" interp="linr"  time="0/1" value="1" leadInLength="0/1"  />
           </VectorParam>
           <VectorParam id="1612"  name="anchor">
            <InterpolatingParam id="1613" interp="linr"  time="0/1" value="0" leadInLength="0/1"  />
            <InterpolatingParam id="1614" interp="linr"  time="0/1" value="0" leadInLength="0/1"  />
            <InterpolatingParam id="1615" interp="linr"  time="0/1" value="0" leadInLength="0/1"  />
           </VectorParam>
          </Transformer>
          <Parameters>
           <VectorParam id="1616"  name="sourceCrop">
            <InterpolatingParam id="1617" interp="linr"  time="0/1" value="0" leadInLength="0/1"  />
            <InterpolatingParam id="1618" interp="linr"  time="0/1" value="0" leadInLength="0/1"  />
            <InterpolatingParam id="1619" interp="linr"  time="0/1" value="0" leadInLength="0/1"  />
            <InterpolatingParam id="1620" interp="linr"  time="0/1" value="0" leadInLength="0/1"  />
           </VectorParam>
           <VectorParam id="1621"  name="geometryCrop">
            <InterpolatingParam id="1622" interp="linr"  time="0/1" value="0" leadInLength="0/1"  />
            <InterpolatingParam id="1623" interp="linr"  time="0/1" value="0" leadInLength="0/1"  />
            <InterpolatingParam id="1624" interp="linr"  time="0/1" value="0" leadInLength="0/1"  />
            <InterpolatingParam id="1625" interp="linr"  time="0/1" value="0" leadInLength="0/1"  />
           </VectorParam>
           <InterpolatingParam id="1626" interp="linr"  time="0/1" value="1" leadInLength="0/1"  name="opacity"/>
          </Parameters>
          <Effects>
           <GenericEffect id="1627" name = "VisualTransition" >
            <Parameters>
            <InterpolatingParam id="1628" interp="linr"  time="0/1" value="1" leadInLength="0/1"   name="leftFramePercentage"/>
            <InterpolatingParam id="1629" interp="linr"  time="0/1" value="1" leadInLength="0/1"   name="rightFramePercentage"/>
            <Parameter id="1630"   name="visualEdgeModType">
             <Keyframes>
             <Keyframe id="1631"  time="0/1" value="0" leadInLength="0/1"  />
             </Keyframes>
            </Parameter>
            <Parameter id="1632"   name="visualTransitionType">
             <Keyframes>
             <Keyframe id="1633"  time="0/1" value="Fade" leadInLength="0/1"  />
             </Keyframes>
            </Parameter>
            </Parameters>
            <MetaData>
            </MetaData>
           </GenericEffect>
          </Effects>
          <Attributes>
           <Attribute id="1634" value="" name="ident"/>
          </Attributes>
          <ExtraData>
           <Entry key="ZoomPanBin">
            <ZoomPanBin id="1635"  >
             <ZoomPanKeyframes>
             </ZoomPanKeyframes>
            </ZoomPanBin>
           </Entry>
          </ExtraData>
         </ImageTransition>
         <MetaData>
          <entry key="WinSubProjectDisplayName" val=""/>
         </MetaData>
        </UnifiedMedia>
        <UnifiedMedia id="1636"  >
         <AMFile id="1637" start="1551" duration="149" scalar="1/1" mediaStart="175/1" mediaDuration="149/1" trackNumber="1" src="18" channelNumber="0,1" >
          <Parameters>
           <InterpolatingParam id="1638" interp="linr"  time="0/1" value="0" leadInLength="0/1"  name="volume"/>
           <Parameter id="1639"  name="captions"/>
          </Parameters>
          <Attributes>
           <Attribute id="1640" value="" name="ident"/>
           <Attribute id="1641" value="44100" name="sampleRate"/>
           <Attribute id="1642" value="16" name="bitDepth"/>
           <Attribute id="1643" value="1" name="gain"/>
           <Attribute id="1644" value="0" name="mixToMono"/>
          </Attributes>
         </AMFile>
         <VMFile id="1645" start="1551" duration="149" scalar="1/1" mediaStart="175/1" mediaDuration="149/1" trackNumber="0" src="18" >
          <Transformer>
           <VectorParam id="1646"  name="translation">
            <InterpolatingParam id="1647" interp="linr"  time="-9999999/1" value="0" leadInLength="0/1"  />
            <InterpolatingParam id="1648" interp="linr"  time="-9999999/1" value="0" leadInLength="0/1"  />
            <InterpolatingParam id="1649" interp="linr"  time="-9999999/1" value="0" leadInLength="0/1"  />
           </VectorParam>
           <VectorParam id="1650"  name="rotation">
            <InterpolatingParam id="1651" interp="linr"  time="-9999999/1" value="0" leadInLength="0/1"  />
            <InterpolatingParam id="1652" interp="linr"  time="-9999999/1" value="0" leadInLength="0/1"  />
            <InterpolatingParam id="1653" interp="linr"  time="-9999999/1" value="0" leadInLength="0/1"  />
           </VectorParam>
           <VectorParam id="1654"  name="shear">
            <InterpolatingParam id="1655" interp="linr"  time="-9999999/1" value="0" leadInLength="0/1"  />
            <InterpolatingParam id="1656" interp="linr"  time="-9999999/1" value="0" leadInLength="0/1"  />
            <InterpolatingParam id="1657" interp="linr"  time="-9999999/1" value="0" leadInLength="0/1"  />
           </VectorParam>
           <VectorParam id="1658"  name="scale">
            <InterpolatingParam id="1659" interp="linr"  time="-9999999/1" value="0.59999999999999998" leadInLength="0/1"  />
            <InterpolatingParam id="1660" interp="linr"  time="-9999999/1" value="0.59999999999999998" leadInLength="0/1"  />
            <InterpolatingParam id="1661" interp="linr"  time="-9999999/1" value="1" leadInLength="0/1"  />
           </VectorParam>
           <VectorParam id="1662"  name="anchor">
            <InterpolatingParam id="1663" interp="linr"  time="0/1" value="0" leadInLength="0/1"  />
            <InterpolatingParam id="1664" interp="linr"  time="0/1" value="0" leadInLength="0/1"  />
            <InterpolatingParam id="1665" interp="linr"  time="0/1" value="0" leadInLength="0/1"  />
           </VectorParam>
          </Transformer>
          <Parameters>
           <VectorParam id="1666"  name="sourceCrop">
            <InterpolatingParam id="1667" interp="linr"  time="0/1" value="0" leadInLength="0/1"  />
            <InterpolatingParam id="1668" interp="linr"  time="0/1" value="0" leadInLength="0/1"  />
            <InterpolatingParam id="1669" interp="linr"  time="0/1" value="0" leadInLength="0/1"  />
            <InterpolatingParam id="1670" interp="linr"  time="0/1" value="0" leadInLength="0/1"  />
           </VectorParam>
           <VectorParam id="1671"  name="geometryCrop">
            <InterpolatingParam id="1672" interp="linr"  time="-9999999/1" value="0" leadInLength="0/1"  />
            <InterpolatingParam id="1673" interp="linr"  time="-9999999/1" value="0" leadInLength="0/1"  />
            <InterpolatingParam id="1674" interp="linr"  time="-9999999/1" value="0" leadInLength="0/1"  />
            <InterpolatingParam id="1675" interp="linr"  time="-9999999/1" value="0" leadInLength="0/1"  />
           </VectorParam>
           <InterpolatingParam id="1676" interp="linr"  time="-9999999/1" value="1" leadInLength="0/1"  name="opacity"/>
          </Parameters>
          <Attributes>
           <Attribute id="1677" value="" name="ident"/>
          </Attributes>
          <ExtraData>
           <Entry key="ZoomPanBin">
            <ZoomPanBin id="1678"  >
             <ZoomPanKeyframes>
              <ZoomPanKeyframe id="1679" timeRangeEnd="-9999999/1" timeRangeDuration="0/1" interpolaterName="linr"  />
             </ZoomPanKeyframes>
            </ZoomPanBin>
           </Entry>
          </ExtraData>
         </VMFile>
         <MetaData>
          <entry key="WinSubProjectDisplayName" val=""/>
         </MetaData>
        </UnifiedMedia>
        <UnifiedMedia id="1680"  >
         <AudioTransition id="1681" start="1700" duration="30" >
          <Parameters>
           <InterpolatingParam id="1682" interp="linr"  time="0/1" value="1" leadInLength="0/1"  name="volume"/>
           <Parameter id="1683"  name="captions"/>
          </Parameters>
          <Effects>
           <GenericEffect id="1684" name = "AudioTransition" >
            <Parameters>
            <Parameter id="1685"   name="audioEdgeModType">
             <Keyframes>
             <Keyframe id="1686"  time="0/1" value="0" leadInLength="0/1"  />
             </Keyframes>
            </Parameter>
            <Parameter id="1687"   name="audioTransitionType">
             <Keyframes>
             <Keyframe id="1688"  time="0/1" value="" leadInLength="0/1"  />
             </Keyframes>
            </Parameter>
            </Parameters>
            <MetaData>
            </MetaData>
           </GenericEffect>
          </Effects>
          <Attributes>
           <Attribute id="1689" value="" name="ident"/>
           <Attribute id="1690" value="0" name="sampleRate"/>
           <Attribute id="1691" value="0" name="bitDepth"/>
           <Attribute id="1692" value="1" name="gain"/>
           <Attribute id="1693" value="0" name="mixToMono"/>
          </Attributes>
         </AudioTransition>
         <ImageTransition id="1694" start="1700" duration="30" >
          <Transformer>
           <VectorParam id="1695"  name="translation">
            <InterpolatingParam id="1696" interp="linr"  time="0/1" value="0" leadInLength="0/1"  />
            <InterpolatingParam id="1697" interp="linr"  time="0/1" value="0" leadInLength="0/1"  />
            <InterpolatingParam id="1698" interp="linr"  time="0/1" value="0" leadInLength="0/1"  />
           </VectorParam>
           <VectorParam id="1699"  name="rotation">
            <InterpolatingParam id="1700" interp="linr"  time="0/1" value="0" leadInLength="0/1"  />
            <InterpolatingParam id="1701" interp="linr"  time="0/1" value="0" leadInLength="0/1"  />
            <InterpolatingParam id="1702" interp="linr"  time="0/1" value="0" leadInLength="0/1"  />
           </VectorParam>
           <VectorParam id="1703"  name="shear">
            <InterpolatingParam id="1704" interp="linr"  time="0/1" value="0" leadInLength="0/1"  />
            <InterpolatingParam id="1705" interp="linr"  time="0/1" value="0" leadInLength="0/1"  />
            <InterpolatingParam id="1706" interp="linr"  time="0/1" value="0" leadInLength="0/1"  />
           </VectorParam>
           <VectorParam id="1707"  name="scale">
            <InterpolatingParam id="1708" interp="linr"  time="0/1" value="1" leadInLength="0/1"  />
            <InterpolatingParam id="1709" interp="linr"  time="0/1" value="1" leadInLength="0/1"  />
            <InterpolatingParam id="1710" interp="linr"  time="0/1" value="1" leadInLength="0/1"  />
           </VectorParam>
           <VectorParam id="1711"  name="anchor">
            <InterpolatingParam id="1712" interp="linr"  time="0/1" value="0" leadInLength="0/1"  />
            <InterpolatingParam id="1713" interp="linr"  time="0/1" value="0" leadInLength="0/1"  />
            <InterpolatingParam id="1714" interp="linr"  time="0/1" value="0" leadInLength="0/1"  />
           </VectorParam>
          </Transformer>
          <Parameters>
           <VectorParam id="1715"  name="sourceCrop">
            <InterpolatingParam id="1716" interp="linr"  time="0/1" value="0" leadInLength="0/1"  />
            <InterpolatingParam id="1717" interp="linr"  time="0/1" value="0" leadInLength="0/1"  />
            <InterpolatingParam id="1718" interp="linr"  time="0/1" value="0" leadInLength="0/1"  />
            <InterpolatingParam id="1719" interp="linr"  time="0/1" value="0" leadInLength="0/1"  />
           </VectorParam>
           <VectorParam id="1720"  name="geometryCrop">
            <InterpolatingParam id="1721" interp="linr"  time="0/1" value="0" leadInLength="0/1"  />
            <InterpolatingParam id="1722" interp="linr"  time="0/1" value="0" leadInLength="0/1"  />
            <InterpolatingParam id="1723" interp="linr"  time="0/1" value="0" leadInLength="0/1"  />
            <InterpolatingParam id="1724" interp="linr"  time="0/1" value="0" leadInLength="0/1"  />
           </VectorParam>
           <InterpolatingParam id="1725" interp="linr"  time="0/1" value="1" leadInLength="0/1"  name="opacity"/>
          </Parameters>
          <Effects>
           <GenericEffect id="1726" name = "VisualTransition" >
            <Parameters>
            <InterpolatingParam id="1727" interp="linr"  time="0/1" value="1" leadInLength="0/1"   name="leftFramePercentage"/>
            <InterpolatingParam id="1728" interp="linr"  time="0/1" value="1" leadInLength="0/1"   name="rightFramePercentage"/>
            <Parameter id="1729"   name="visualEdgeModType">
             <Keyframes>
             <Keyframe id="1730"  time="0/1" value="0" leadInLength="0/1"  />
             </Keyframes>
            </Parameter>
            <Parameter id="1731"   name="visualTransitionType">
             <Keyframes>
             <Keyframe id="1732"  time="0/1" value="Fade" leadInLength="0/1"  />
             </Keyframes>
            </Parameter>
            </Parameters>
            <MetaData>
            </MetaData>
           </GenericEffect>
          </Effects>
          <Attributes>
           <Attribute id="1733" value="" name="ident"/>
          </Attributes>
          <ExtraData>
           <Entry key="ZoomPanBin">
            <ZoomPanBin id="1734"  >
             <ZoomPanKeyframes>
             </ZoomPanKeyframes>
            </ZoomPanBin>
           </Entry>
          </ExtraData>
         </ImageTransition>
         <MetaData>
          <entry key="WinSubProjectDisplayName" val=""/>
         </MetaData>
        </UnifiedMedia>
        <UnifiedMedia id="1735"  >
         <AMFile id="1736" start="1730" duration="89" scalar="1/1" mediaStart="630/1" mediaDuration="89/1" trackNumber="1" src="18" channelNumber="0,1" >
          <Parameters>
           <InterpolatingParam id="1737" interp="linr"  time="0/1" value="0" leadInLength="0/1"  name="volume"/>
           <Parameter id="1738"  name="captions"/>
          </Parameters>
          <Attributes>
           <Attribute id="1739" value="" name="ident"/>
           <Attribute id="1740" value="44100" name="sampleRate"/>
           <Attribute id="1741" value="16" name="bitDepth"/>
           <Attribute id="1742" value="1" name="gain"/>
           <Attribute id="1743" value="0" name="mixToMono"/>
          </Attributes>
         </AMFile>
         <VMFile id="1744" start="1730" duration="89" scalar="1/1" mediaStart="630/1" mediaDuration="89/1" trackNumber="0" src="18" >
          <Transformer>
           <VectorParam id="1745"  name="translation">
            <InterpolatingParam id="1746" interp="linr"  time="-9999999/1" value="0" leadInLength="0/1"  />
            <InterpolatingParam id="1747" interp="linr"  time="-9999999/1" value="0" leadInLength="0/1"  />
            <InterpolatingParam id="1748" interp="linr"  time="-9999999/1" value="0" leadInLength="0/1"  />
           </VectorParam>
           <VectorParam id="1749"  name="rotation">
            <InterpolatingParam id="1750" interp="linr"  time="-9999999/1" value="0" leadInLength="0/1"  />
            <InterpolatingParam id="1751" interp="linr"  time="-9999999/1" value="0" leadInLength="0/1"  />
            <InterpolatingParam id="1752" interp="linr"  time="-9999999/1" value="0" leadInLength="0/1"  />
           </VectorParam>
           <VectorParam id="1753"  name="shear">
            <InterpolatingParam id="1754" interp="linr"  time="-9999999/1" value="0" leadInLength="0/1"  />
            <InterpolatingParam id="1755" interp="linr"  time="-9999999/1" value="0" leadInLength="0/1"  />
            <InterpolatingParam id="1756" interp="linr"  time="-9999999/1" value="0" leadInLength="0/1"  />
           </VectorParam>
           <VectorParam id="1757"  name="scale">
            <InterpolatingParam id="1758" interp="linr"  time="-9999999/1" value="0.59999999999999998" leadInLength="0/1"  />
            <InterpolatingParam id="1759" interp="linr"  time="-9999999/1" value="0.59999999999999998" leadInLength="0/1"  />
            <InterpolatingParam id="1760" interp="linr"  time="-9999999/1" value="1" leadInLength="0/1"  />
           </VectorParam>
           <VectorParam id="1761"  name="anchor">
            <InterpolatingParam id="1762" interp="linr"  time="0/1" value="0" leadInLength="0/1"  />
            <InterpolatingParam id="1763" interp="linr"  time="0/1" value="0" leadInLength="0/1"  />
            <InterpolatingParam id="1764" interp="linr"  time="0/1" value="0" leadInLength="0/1"  />
           </VectorParam>
          </Transformer>
          <Parameters>
           <VectorParam id="1765"  name="sourceCrop">
            <InterpolatingParam id="1766" interp="linr"  time="0/1" value="0" leadInLength="0/1"  />
            <InterpolatingParam id="1767" interp="linr"  time="0/1" value="0" leadInLength="0/1"  />
            <InterpolatingParam id="1768" interp="linr"  time="0/1" value="0" leadInLength="0/1"  />
            <InterpolatingParam id="1769" interp="linr"  time="0/1" value="0" leadInLength="0/1"  />
           </VectorParam>
           <VectorParam id="1770"  name="geometryCrop">
            <InterpolatingParam id="1771" interp="linr"  time="-9999999/1" value="0" leadInLength="0/1"  />
            <InterpolatingParam id="1772" interp="linr"  time="-9999999/1" value="0" leadInLength="0/1"  />
            <InterpolatingParam id="1773" interp="linr"  time="-9999999/1" value="0" leadInLength="0/1"  />
            <InterpolatingParam id="1774" interp="linr"  time="-9999999/1" value="0" leadInLength="0/1"  />
           </VectorParam>
           <InterpolatingParam id="1775" interp="linr"  time="-9999999/1" value="1" leadInLength="0/1"  name="opacity"/>
          </Parameters>
          <Attributes>
           <Attribute id="1776" value="" name="ident"/>
          </Attributes>
          <ExtraData>
           <Entry key="ZoomPanBin">
            <ZoomPanBin id="1777"  >
             <ZoomPanKeyframes>
              <ZoomPanKeyframe id="1778" timeRangeEnd="-9999999/1" timeRangeDuration="0/1" interpolaterName="linr"  />
             </ZoomPanKeyframes>
            </ZoomPanBin>
           </Entry>
          </ExtraData>
         </VMFile>
         <MetaData>
          <entry key="WinSubProjectDisplayName" val=""/>
         </MetaData>
        </UnifiedMedia>
        <UnifiedMedia id="1779"  >
         <AudioTransition id="1780" start="1819" duration="30" >
          <Parameters>
           <InterpolatingParam id="1781" interp="linr"  time="0/1" value="1" leadInLength="0/1"  name="volume"/>
           <Parameter id="1782"  name="captions"/>
          </Parameters>
          <Effects>
           <GenericEffect id="1783" name = "AudioTransition" >
            <Parameters>
            <Parameter id="1784"   name="audioEdgeModType">
             <Keyframes>
             <Keyframe id="1785"  time="0/1" value="0" leadInLength="0/1"  />
             </Keyframes>
            </Parameter>
            <Parameter id="1786"   name="audioTransitionType">
             <Keyframes>
             <Keyframe id="1787"  time="0/1" value="" leadInLength="0/1"  />
             </Keyframes>
            </Parameter>
            </Parameters>
            <MetaData>
            </MetaData>
           </GenericEffect>
          </Effects>
          <Attributes>
           <Attribute id="1788" value="" name="ident"/>
           <Attribute id="1789" value="0" name="sampleRate"/>
           <Attribute id="1790" value="0" name="bitDepth"/>
           <Attribute id="1791" value="1" name="gain"/>
           <Attribute id="1792" value="0" name="mixToMono"/>
          </Attributes>
         </AudioTransition>
         <ImageTransition id="1793" start="1819" duration="30" >
          <Transformer>
           <VectorParam id="1794"  name="translation">
            <InterpolatingParam id="1795" interp="linr"  time="0/1" value="0" leadInLength="0/1"  />
            <InterpolatingParam id="1796" interp="linr"  time="0/1" value="0" leadInLength="0/1"  />
            <InterpolatingParam id="1797" interp="linr"  time="0/1" value="0" leadInLength="0/1"  />
           </VectorParam>
           <VectorParam id="1798"  name="rotation">
            <InterpolatingParam id="1799" interp="linr"  time="0/1" value="0" leadInLength="0/1"  />
            <InterpolatingParam id="1800" interp="linr"  time="0/1" value="0" leadInLength="0/1"  />
            <InterpolatingParam id="1801" interp="linr"  time="0/1" value="0" leadInLength="0/1"  />
           </VectorParam>
           <VectorParam id="1802"  name="shear">
            <InterpolatingParam id="1803" interp="linr"  time="0/1" value="0" leadInLength="0/1"  />
            <InterpolatingParam id="1804" interp="linr"  time="0/1" value="0" leadInLength="0/1"  />
            <InterpolatingParam id="1805" interp="linr"  time="0/1" value="0" leadInLength="0/1"  />
           </VectorParam>
           <VectorParam id="1806"  name="scale">
            <InterpolatingParam id="1807" interp="linr"  time="0/1" value="1" leadInLength="0/1"  />
            <InterpolatingParam id="1808" interp="linr"  time="0/1" value="1" leadInLength="0/1"  />
            <InterpolatingParam id="1809" interp="linr"  time="0/1" value="1" leadInLength="0/1"  />
           </VectorParam>
           <VectorParam id="1810"  name="anchor">
            <InterpolatingParam id="1811" interp="linr"  time="0/1" value="0" leadInLength="0/1"  />
            <InterpolatingParam id="1812" interp="linr"  time="0/1" value="0" leadInLength="0/1"  />
            <InterpolatingParam id="1813" interp="linr"  time="0/1" value="0" leadInLength="0/1"  />
           </VectorParam>
          </Transformer>
          <Parameters>
           <VectorParam id="1814"  name="sourceCrop">
            <InterpolatingParam id="1815" interp="linr"  time="0/1" value="0" leadInLength="0/1"  />
            <InterpolatingParam id="1816" interp="linr"  time="0/1" value="0" leadInLength="0/1"  />
            <InterpolatingParam id="1817" interp="linr"  time="0/1" value="0" leadInLength="0/1"  />
            <InterpolatingParam id="1818" interp="linr"  time="0/1" value="0" leadInLength="0/1"  />
           </VectorParam>
           <VectorParam id="1819"  name="geometryCrop">
            <InterpolatingParam id="1820" interp="linr"  time="0/1" value="0" leadInLength="0/1"  />
            <InterpolatingParam id="1821" interp="linr"  time="0/1" value="0" leadInLength="0/1"  />
            <InterpolatingParam id="1822" interp="linr"  time="0/1" value="0" leadInLength="0/1"  />
            <InterpolatingParam id="1823" interp="linr"  time="0/1" value="0" leadInLength="0/1"  />
           </VectorParam>
           <InterpolatingParam id="1824" interp="linr"  time="0/1" value="1" leadInLength="0/1"  name="opacity"/>
          </Parameters>
          <Effects>
           <GenericEffect id="1825" name = "VisualTransition" >
            <Parameters>
            <InterpolatingParam id="1826" interp="linr"  time="0/1" value="1" leadInLength="0/1"   name="leftFramePercentage"/>
            <InterpolatingParam id="1827" interp="linr"  time="0/1" value="1" leadInLength="0/1"   name="rightFramePercentage"/>
            <Parameter id="1828"   name="visualEdgeModType">
             <Keyframes>
             <Keyframe id="1829"  time="0/1" value="0" leadInLength="0/1"  />
             </Keyframes>
            </Parameter>
            <Parameter id="1830"   name="visualTransitionType">
             <Keyframes>
             <Keyframe id="1831"  time="0/1" value="Fade" leadInLength="0/1"  />
             </Keyframes>
            </Parameter>
            </Parameters>
            <MetaData>
            </MetaData>
           </GenericEffect>
          </Effects>
          <Attributes>
           <Attribute id="1832" value="" name="ident"/>
          </Attributes>
          <ExtraData>
           <Entry key="ZoomPanBin">
            <ZoomPanBin id="1833"  >
             <ZoomPanKeyframes>
             </ZoomPanKeyframes>
            </ZoomPanBin>
           </Entry>
          </ExtraData>
         </ImageTransition>
         <MetaData>
          <entry key="WinSubProjectDisplayName" val=""/>
         </MetaData>
        </UnifiedMedia>
        <UnifiedMedia id="1834"  >
         <AMFile id="1835" start="1849" duration="1" scalar="1/1" mediaStart="15/1" mediaDuration="1/1" trackNumber="1" src="14" channelNumber="0,1" >
          <Parameters>
           <InterpolatingParam id="1836" interp="linr"  time="0/1" value="0" leadInLength="0/1"  name="volume"/>
           <Parameter id="1837"  name="captions"/>
          </Parameters>
          <Attributes>
           <Attribute id="1838" value="" name="ident"/>
           <Attribute id="1839" value="44100" name="sampleRate"/>
           <Attribute id="1840" value="16" name="bitDepth"/>
           <Attribute id="1841" value="1" name="gain"/>
           <Attribute id="1842" value="0" name="mixToMono"/>
          </Attributes>
         </AMFile>
         <VMFile id="1843" start="1849" duration="1" scalar="1/1" mediaStart="15/1" mediaDuration="1/1" trackNumber="0" src="14" >
          <Transformer>
           <VectorParam id="1844"  name="translation">
            <InterpolatingParam id="1845" interp="linr"  time="-9999999/1" value="-2.0607808560567298" leadInLength="0/1"  />
            <InterpolatingParam id="1846" interp="linr"  time="-9999999/1" value="13.641310089882522" leadInLength="0/1"  />
            <InterpolatingParam id="1847" interp="linr"  time="-9999999/1" value="-3.4106051316482881e-010" leadInLength="0/1"  />
           </VectorParam>
           <VectorParam id="1848"  name="rotation">
            <InterpolatingParam id="1849" interp="linr"  time="-9999999/1" value="0" leadInLength="0/1"  />
            <InterpolatingParam id="1850" interp="linr"  time="-9999999/1" value="0" leadInLength="0/1"  />
            <InterpolatingParam id="1851" interp="linr"  time="-9999999/1" value="0" leadInLength="0/1"  />
           </VectorParam>
           <VectorParam id="1852"  name="shear">
            <InterpolatingParam id="1853" interp="linr"  time="-9999999/1" value="0" leadInLength="0/1"  />
            <InterpolatingParam id="1854" interp="linr"  time="-9999999/1" value="0" leadInLength="0/1"  />
            <InterpolatingParam id="1855" interp="linr"  time="-9999999/1" value="0" leadInLength="0/1"  />
           </VectorParam>
           <VectorParam id="1856"  name="scale">
            <InterpolatingParam id="1857" interp="linr"  time="-9999999/1" value="0.59785335327495626" leadInLength="0/1"  />
            <InterpolatingParam id="1858" interp="linr"  time="-9999999/1" value="0.70101559116310141" leadInLength="0/1"  />
            <InterpolatingParam id="1859" interp="linr"  time="-9999999/1" value="1" leadInLength="0/1"  />
           </VectorParam>
           <VectorParam id="1860"  name="anchor">
            <InterpolatingParam id="1861" interp="linr"  time="0/1" value="0" leadInLength="0/1"  />
            <InterpolatingParam id="1862" interp="linr"  time="0/1" value="0" leadInLength="0/1"  />
            <InterpolatingParam id="1863" interp="linr"  time="0/1" value="0" leadInLength="0/1"  />
           </VectorParam>
          </Transformer>
          <Parameters>
           <VectorParam id="1864"  name="sourceCrop">
            <InterpolatingParam id="1865" interp="linr"  time="0/1" value="0" leadInLength="0/1"  />
            <InterpolatingParam id="1866" interp="linr"  time="0/1" value="0" leadInLength="0/1"  />
            <InterpolatingParam id="1867" interp="linr"  time="0/1" value="0" leadInLength="0/1"  />
            <InterpolatingParam id="1868" interp="linr"  time="0/1" value="0" leadInLength="0/1"  />
           </VectorParam>
           <VectorParam id="1869"  name="geometryCrop">
            <InterpolatingParam id="1870" interp="linr"  time="-9999999/1" value="0" leadInLength="0/1"  />
            <InterpolatingParam id="1871" interp="linr"  time="-9999999/1" value="0" leadInLength="0/1"  />
            <InterpolatingParam id="1872" interp="linr"  time="-9999999/1" value="0" leadInLength="0/1"  />
            <InterpolatingParam id="1873" interp="linr"  time="-9999999/1" value="0" leadInLength="0/1"  />
           </VectorParam>
           <InterpolatingParam id="1874" interp="linr"  time="-9999999/1" value="1" leadInLength="0/1"  name="opacity"/>
          </Parameters>
          <Attributes>
           <Attribute id="1875" value="" name="ident"/>
          </Attributes>
          <ExtraData>
           <Entry key="ZoomPanBin">
            <ZoomPanBin id="1876"  >
             <ZoomPanKeyframes>
              <ZoomPanKeyframe id="1877" timeRangeEnd="-9999999/1" timeRangeDuration="0/1" interpolaterName="linr"  />
             </ZoomPanKeyframes>
            </ZoomPanBin>
           </Entry>
          </ExtraData>
         </VMFile>
         <MetaData>
          <entry key="WinSubProjectDisplayName" val=""/>
         </MetaData>
        </UnifiedMedia>
        <UnifiedMedia id="1878"  >
         <AudioTransition id="1879" start="1850" duration="30" >
          <Parameters>
           <InterpolatingParam id="1880" interp="linr"  time="0/1" value="1" leadInLength="0/1"  name="volume"/>
           <Parameter id="1881"  name="captions"/>
          </Parameters>
          <Effects>
           <GenericEffect id="1882" name = "AudioTransition" >
            <Parameters>
            <Parameter id="1883"   name="audioEdgeModType">
             <Keyframes>
             <Keyframe id="1884"  time="0/1" value="0" leadInLength="0/1"  />
             </Keyframes>
            </Parameter>
            <Parameter id="1885"   name="audioTransitionType">
             <Keyframes>
             <Keyframe id="1886"  time="0/1" value="" leadInLength="0/1"  />
             </Keyframes>
            </Parameter>
            </Parameters>
            <MetaData>
            </MetaData>
           </GenericEffect>
          </Effects>
          <Attributes>
           <Attribute id="1887" value="" name="ident"/>
           <Attribute id="1888" value="0" name="sampleRate"/>
           <Attribute id="1889" value="0" name="bitDepth"/>
           <Attribute id="1890" value="1" name="gain"/>
           <Attribute id="1891" value="0" name="mixToMono"/>
          </Attributes>
         </AudioTransition>
         <ImageTransition id="1892" start="1850" duration="30" >
          <Transformer>
           <VectorParam id="1893"  name="translation">
            <InterpolatingParam id="1894" interp="linr"  time="0/1" value="0" leadInLength="0/1"  />
            <InterpolatingParam id="1895" interp="linr"  time="0/1" value="0" leadInLength="0/1"  />
            <InterpolatingParam id="1896" interp="linr"  time="0/1" value="0" leadInLength="0/1"  />
           </VectorParam>
           <VectorParam id="1897"  name="rotation">
            <InterpolatingParam id="1898" interp="linr"  time="0/1" value="0" leadInLength="0/1"  />
            <InterpolatingParam id="1899" interp="linr"  time="0/1" value="0" leadInLength="0/1"  />
            <InterpolatingParam id="1900" interp="linr"  time="0/1" value="0" leadInLength="0/1"  />
           </VectorParam>
           <VectorParam id="1901"  name="shear">
            <InterpolatingParam id="1902" interp="linr"  time="0/1" value="0" leadInLength="0/1"  />
            <InterpolatingParam id="1903" interp="linr"  time="0/1" value="0" leadInLength="0/1"  />
            <InterpolatingParam id="1904" interp="linr"  time="0/1" value="0" leadInLength="0/1"  />
           </VectorParam>
           <VectorParam id="1905"  name="scale">
            <InterpolatingParam id="1906" interp="linr"  time="0/1" value="1" leadInLength="0/1"  />
            <InterpolatingParam id="1907" interp="linr"  time="0/1" value="1" leadInLength="0/1"  />
            <InterpolatingParam id="1908" interp="linr"  time="0/1" value="1" leadInLength="0/1"  />
           </VectorParam>
           <VectorParam id="1909"  name="anchor">
            <InterpolatingParam id="1910" interp="linr"  time="0/1" value="0" leadInLength="0/1"  />
            <InterpolatingParam id="1911" interp="linr"  time="0/1" value="0" leadInLength="0/1"  />
            <InterpolatingParam id="1912" interp="linr"  time="0/1" value="0" leadInLength="0/1"  />
           </VectorParam>
          </Transformer>
          <Parameters>
           <VectorParam id="1913"  name="sourceCrop">
            <InterpolatingParam id="1914" interp="linr"  time="0/1" value="0" leadInLength="0/1"  />
            <InterpolatingParam id="1915" interp="linr"  time="0/1" value="0" leadInLength="0/1"  />
            <InterpolatingParam id="1916" interp="linr"  time="0/1" value="0" leadInLength="0/1"  />
            <InterpolatingParam id="1917" interp="linr"  time="0/1" value="0" leadInLength="0/1"  />
           </VectorParam>
           <VectorParam id="1918"  name="geometryCrop">
            <InterpolatingParam id="1919" interp="linr"  time="0/1" value="0" leadInLength="0/1"  />
            <InterpolatingParam id="1920" interp="linr"  time="0/1" value="0" leadInLength="0/1"  />
            <InterpolatingParam id="1921" interp="linr"  time="0/1" value="0" leadInLength="0/1"  />
            <InterpolatingParam id="1922" interp="linr"  time="0/1" value="0" leadInLength="0/1"  />
           </VectorParam>
           <InterpolatingParam id="1923" interp="linr"  time="0/1" value="1" leadInLength="0/1"  name="opacity"/>
          </Parameters>
          <Effects>
           <GenericEffect id="1924" name = "VisualTransition" >
            <Parameters>
            <InterpolatingParam id="1925" interp="linr"  time="0/1" value="1" leadInLength="0/1"   name="leftFramePercentage"/>
            <InterpolatingParam id="1926" interp="linr"  time="0/1" value="1" leadInLength="0/1"   name="rightFramePercentage"/>
            <Parameter id="1927"   name="visualEdgeModType">
             <Keyframes>
             <Keyframe id="1928"  time="0/1" value="0" leadInLength="0/1"  />
             </Keyframes>
            </Parameter>
            <Parameter id="1929"   name="visualTransitionType">
             <Keyframes>
             <Keyframe id="1930"  time="0/1" value="Fade" leadInLength="0/1"  />
             </Keyframes>
            </Parameter>
            </Parameters>
            <MetaData>
            </MetaData>
           </GenericEffect>
          </Effects>
          <Attributes>
           <Attribute id="1931" value="" name="ident"/>
          </Attributes>
          <ExtraData>
           <Entry key="ZoomPanBin">
            <ZoomPanBin id="1932"  >
             <ZoomPanKeyframes>
             </ZoomPanKeyframes>
            </ZoomPanBin>
           </Entry>
          </ExtraData>
         </ImageTransition>
         <MetaData>
          <entry key="WinSubProjectDisplayName" val=""/>
         </MetaData>
        </UnifiedMedia>
        <UnifiedMedia id="1933"  >
         <AMFile id="1934" start="1880" duration="7" scalar="1/1" mediaStart="329/1" mediaDuration="7/1" trackNumber="1" src="14" channelNumber="0,1" >
          <Parameters>
           <InterpolatingParam id="1935" interp="linr"  time="0/1" value="0" leadInLength="0/1"  name="volume"/>
           <Parameter id="1936"  name="captions"/>
          </Parameters>
          <Attributes>
           <Attribute id="1937" value="" name="ident"/>
           <Attribute id="1938" value="44100" name="sampleRate"/>
           <Attribute id="1939" value="16" name="bitDepth"/>
           <Attribute id="1940" value="1" name="gain"/>
           <Attribute id="1941" value="0" name="mixToMono"/>
          </Attributes>
         </AMFile>
         <VMFile id="1942" start="1880" duration="7" scalar="1/1" mediaStart="329/1" mediaDuration="7/1" trackNumber="0" src="14" >
          <Transformer>
           <VectorParam id="1943"  name="translation">
            <InterpolatingParam id="1944" interp="linr"  time="-9999999/1" value="-2.0607808560567298" leadInLength="0/1"  />
            <InterpolatingParam id="1945" interp="linr"  time="-9999999/1" value="13.641310089882522" leadInLength="0/1"  />
            <InterpolatingParam id="1946" interp="linr"  time="-9999999/1" value="-3.4106051316482881e-010" leadInLength="0/1"  />
           </VectorParam>
           <VectorParam id="1947"  name="rotation">
            <InterpolatingParam id="1948" interp="linr"  time="-9999999/1" value="0" leadInLength="0/1"  />
            <InterpolatingParam id="1949" interp="linr"  time="-9999999/1" value="0" leadInLength="0/1"  />
            <InterpolatingParam id="1950" interp="linr"  time="-9999999/1" value="0" leadInLength="0/1"  />
           </VectorParam>
           <VectorParam id="1951"  name="shear">
            <InterpolatingParam id="1952" interp="linr"  time="-9999999/1" value="0" leadInLength="0/1"  />
            <InterpolatingParam id="1953" interp="linr"  time="-9999999/1" value="0" leadInLength="0/1"  />
            <InterpolatingParam id="1954" interp="linr"  time="-9999999/1" value="0" leadInLength="0/1"  />
           </VectorParam>
           <VectorParam id="1955"  name="scale">
            <InterpolatingParam id="1956" interp="linr"  time="-9999999/1" value="0.59785335327495626" leadInLength="0/1"  />
            <InterpolatingParam id="1957" interp="linr"  time="-9999999/1" value="0.70101559116310141" leadInLength="0/1"  />
            <InterpolatingParam id="1958" interp="linr"  time="-9999999/1" value="1" leadInLength="0/1"  />
           </VectorParam>
           <VectorParam id="1959"  name="anchor">
            <InterpolatingParam id="1960" interp="linr"  time="0/1" value="0" leadInLength="0/1"  />
            <InterpolatingParam id="1961" interp="linr"  time="0/1" value="0" leadInLength="0/1"  />
            <InterpolatingParam id="1962" interp="linr"  time="0/1" value="0" leadInLength="0/1"  />
           </VectorParam>
          </Transformer>
          <Parameters>
           <VectorParam id="1963"  name="sourceCrop">
            <InterpolatingParam id="1964" interp="linr"  time="0/1" value="0" leadInLength="0/1"  />
            <InterpolatingParam id="1965" interp="linr"  time="0/1" value="0" leadInLength="0/1"  />
            <InterpolatingParam id="1966" interp="linr"  time="0/1" value="0" leadInLength="0/1"  />
            <InterpolatingParam id="1967" interp="linr"  time="0/1" value="0" leadInLength="0/1"  />
           </VectorParam>
           <VectorParam id="1968"  name="geometryCrop">
            <InterpolatingParam id="1969" interp="linr"  time="-9999999/1" value="0" leadInLength="0/1"  />
            <InterpolatingParam id="1970" interp="linr"  time="-9999999/1" value="0" leadInLength="0/1"  />
            <InterpolatingParam id="1971" interp="linr"  time="-9999999/1" value="0" leadInLength="0/1"  />
            <InterpolatingParam id="1972" interp="linr"  time="-9999999/1" value="0" leadInLength="0/1"  />
           </VectorParam>
           <InterpolatingParam id="1973" interp="linr"  time="-9999999/1" value="1" leadInLength="0/1"  name="opacity"/>
          </Parameters>
          <Attributes>
           <Attribute id="1974" value="" name="ident"/>
          </Attributes>
          <ExtraData>
           <Entry key="ZoomPanBin">
            <ZoomPanBin id="1975"  >
             <ZoomPanKeyframes>
              <ZoomPanKeyframe id="1976" timeRangeEnd="-9999999/1" timeRangeDuration="0/1" interpolaterName="linr"  />
             </ZoomPanKeyframes>
            </ZoomPanBin>
           </Entry>
          </ExtraData>
         </VMFile>
         <MetaData>
          <entry key="WinSubProjectDisplayName" val=""/>
         </MetaData>
        </UnifiedMedia>
        <UnifiedMedia id="1977"  >
         <AudioTransition id="1978" start="1887" duration="30" >
          <Parameters>
           <InterpolatingParam id="1979" interp="linr"  time="0/1" value="1" leadInLength="0/1"  name="volume"/>
           <Parameter id="1980"  name="captions"/>
          </Parameters>
          <Effects>
           <GenericEffect id="1981" name = "AudioTransition" >
            <Parameters>
            <Parameter id="1982"   name="audioEdgeModType">
             <Keyframes>
             <Keyframe id="1983"  time="0/1" value="0" leadInLength="0/1"  />
             </Keyframes>
            </Parameter>
            <Parameter id="1984"   name="audioTransitionType">
             <Keyframes>
             <Keyframe id="1985"  time="0/1" value="" leadInLength="0/1"  />
             </Keyframes>
            </Parameter>
            </Parameters>
            <MetaData>
            </MetaData>
           </GenericEffect>
          </Effects>
          <Attributes>
           <Attribute id="1986" value="" name="ident"/>
           <Attribute id="1987" value="0" name="sampleRate"/>
           <Attribute id="1988" value="0" name="bitDepth"/>
           <Attribute id="1989" value="1" name="gain"/>
           <Attribute id="1990" value="0" name="mixToMono"/>
          </Attributes>
         </AudioTransition>
         <ImageTransition id="1991" start="1887" duration="30" >
          <Transformer>
           <VectorParam id="1992"  name="translation">
            <InterpolatingParam id="1993" interp="linr"  time="0/1" value="0" leadInLength="0/1"  />
            <InterpolatingParam id="1994" interp="linr"  time="0/1" value="0" leadInLength="0/1"  />
            <InterpolatingParam id="1995" interp="linr"  time="0/1" value="0" leadInLength="0/1"  />
           </VectorParam>
           <VectorParam id="1996"  name="rotation">
            <InterpolatingParam id="1997" interp="linr"  time="0/1" value="0" leadInLength="0/1"  />
            <InterpolatingParam id="1998" interp="linr"  time="0/1" value="0" leadInLength="0/1"  />
            <InterpolatingParam id="1999" interp="linr"  time="0/1" value="0" leadInLength="0/1"  />
           </VectorParam>
           <VectorParam id="2000"  name="shear">
            <InterpolatingParam id="2001" interp="linr"  time="0/1" value="0" leadInLength="0/1"  />
            <InterpolatingParam id="2002" interp="linr"  time="0/1" value="0" leadInLength="0/1"  />
            <InterpolatingParam id="2003" interp="linr"  time="0/1" value="0" leadInLength="0/1"  />
           </VectorParam>
           <VectorParam id="2004"  name="scale">
            <InterpolatingParam id="2005" interp="linr"  time="0/1" value="1" leadInLength="0/1"  />
            <InterpolatingParam id="2006" interp="linr"  time="0/1" value="1" leadInLength="0/1"  />
            <InterpolatingParam id="2007" interp="linr"  time="0/1" value="1" leadInLength="0/1"  />
           </VectorParam>
           <VectorParam id="2008"  name="anchor">
            <InterpolatingParam id="2009" interp="linr"  time="0/1" value="0" leadInLength="0/1"  />
            <InterpolatingParam id="2010" interp="linr"  time="0/1" value="0" leadInLength="0/1"  />
            <InterpolatingParam id="2011" interp="linr"  time="0/1" value="0" leadInLength="0/1"  />
           </VectorParam>
          </Transformer>
          <Parameters>
           <VectorParam id="2012"  name="sourceCrop">
            <InterpolatingParam id="2013" interp="linr"  time="0/1" value="0" leadInLength="0/1"  />
            <InterpolatingParam id="2014" interp="linr"  time="0/1" value="0" leadInLength="0/1"  />
            <InterpolatingParam id="2015" interp="linr"  time="0/1" value="0" leadInLength="0/1"  />
            <InterpolatingParam id="2016" interp="linr"  time="0/1" value="0" leadInLength="0/1"  />
           </VectorParam>
           <VectorParam id="2017"  name="geometryCrop">
            <InterpolatingParam id="2018" interp="linr"  time="0/1" value="0" leadInLength="0/1"  />
            <InterpolatingParam id="2019" interp="linr"  time="0/1" value="0" leadInLength="0/1"  />
            <InterpolatingParam id="2020" interp="linr"  time="0/1" value="0" leadInLength="0/1"  />
            <InterpolatingParam id="2021" interp="linr"  time="0/1" value="0" leadInLength="0/1"  />
           </VectorParam>
           <InterpolatingParam id="2022" interp="linr"  time="0/1" value="1" leadInLength="0/1"  name="opacity"/>
          </Parameters>
          <Effects>
           <GenericEffect id="2023" name = "VisualTransition" >
            <Parameters>
            <InterpolatingParam id="2024" interp="linr"  time="0/1" value="1" leadInLength="0/1"   name="leftFramePercentage"/>
            <InterpolatingParam id="2025" interp="linr"  time="0/1" value="1" leadInLength="0/1"   name="rightFramePercentage"/>
            <Parameter id="2026"   name="visualEdgeModType">
             <Keyframes>
             <Keyframe id="2027"  time="0/1" value="0" leadInLength="0/1"  />
             </Keyframes>
            </Parameter>
            <Parameter id="2028"   name="visualTransitionType">
             <Keyframes>
             <Keyframe id="2029"  time="0/1" value="Fade" leadInLength="0/1"  />
             </Keyframes>
            </Parameter>
            </Parameters>
            <MetaData>
            </MetaData>
           </GenericEffect>
          </Effects>
          <Attributes>
           <Attribute id="2030" value="" name="ident"/>
          </Attributes>
          <ExtraData>
           <Entry key="ZoomPanBin">
            <ZoomPanBin id="2031"  >
             <ZoomPanKeyframes>
             </ZoomPanKeyframes>
            </ZoomPanBin>
           </Entry>
          </ExtraData>
         </ImageTransition>
         <MetaData>
          <entry key="WinSubProjectDisplayName" val=""/>
         </MetaData>
        </UnifiedMedia>
        <UnifiedMedia id="2032"  >
         <AMFile id="2033" start="1917" duration="126" scalar="1/1" mediaStart="138/1" mediaDuration="126/1" trackNumber="1" src="15" channelNumber="0,1" >
          <Parameters>
           <InterpolatingParam id="2034" interp="linr"  time="0/1" value="0" leadInLength="0/1"  name="volume"/>
           <Parameter id="2035"  name="captions"/>
          </Parameters>
          <Attributes>
           <Attribute id="2036" value="" name="ident"/>
           <Attribute id="2037" value="44100" name="sampleRate"/>
           <Attribute id="2038" value="16" name="bitDepth"/>
           <Attribute id="2039" value="1" name="gain"/>
           <Attribute id="2040" value="0" name="mixToMono"/>
          </Attributes>
         </AMFile>
         <VMFile id="2041" start="1917" duration="126" scalar="1/1" mediaStart="138/1" mediaDuration="126/1" trackNumber="0" src="15" >
          <Transformer>
           <VectorParam id="2042"  name="translation">
            <InterpolatingParam id="2043" interp="linr"  time="-9999999/1" value="-3.4231378766780991" leadInLength="0/1"  />
            <InterpolatingParam id="2044" interp="linr"  time="-9999999/1" value="15.404120443740693" leadInLength="0/1"  />
            <InterpolatingParam id="2045" interp="linr"  time="-9999999/1" value="0" leadInLength="0/1"  />
           </VectorParam>
           <VectorParam id="2046"  name="rotation">
            <InterpolatingParam id="2047" interp="linr"  time="-9999999/1" value="0" leadInLength="0/1"  />
            <InterpolatingParam id="2048" interp="linr"  time="-9999999/1" value="0" leadInLength="0/1"  />
            <InterpolatingParam id="2049" interp="linr"  time="-9999999/1" value="0" leadInLength="0/1"  />
           </VectorParam>
           <VectorParam id="2050"  name="shear">
            <InterpolatingParam id="2051" interp="linr"  time="-9999999/1" value="0" leadInLength="0/1"  />
            <InterpolatingParam id="2052" interp="linr"  time="-9999999/1" value="0" leadInLength="0/1"  />
            <InterpolatingParam id="2053" interp="linr"  time="-9999999/1" value="0" leadInLength="0/1"  />
           </VectorParam>
           <VectorParam id="2054"  name="scale">
            <InterpolatingParam id="2055" interp="linr"  time="-9999999/1" value="0.59891706286350921" leadInLength="0/1"  />
            <InterpolatingParam id="2056" interp="linr"  time="-9999999/1" value="0.69556745549169607" leadInLength="0/1"  />
            <InterpolatingParam id="2057" interp="linr"  time="-9999999/1" value="1" leadInLength="0/1"  />
           </VectorParam>
           <VectorParam id="2058"  name="anchor">
            <InterpolatingParam id="2059" interp="linr"  time="0/1" value="0" leadInLength="0/1"  />
            <InterpolatingParam id="2060" interp="linr"  time="0/1" value="0" leadInLength="0/1"  />
            <InterpolatingParam id="2061" interp="linr"  time="0/1" value="0" leadInLength="0/1"  />
           </VectorParam>
          </Transformer>
          <Parameters>
           <VectorParam id="2062"  name="sourceCrop">
            <InterpolatingParam id="2063" interp="linr"  time="0/1" value="0" leadInLength="0/1"  />
            <InterpolatingParam id="2064" interp="linr"  time="0/1" value="0" leadInLength="0/1"  />
            <InterpolatingParam id="2065" interp="linr"  time="0/1" value="0" leadInLength="0/1"  />
            <InterpolatingParam id="2066" interp="linr"  time="0/1" value="0" leadInLength="0/1"  />
           </VectorParam>
           <VectorParam id="2067"  name="geometryCrop">
            <InterpolatingParam id="2068" interp="linr"  time="-9999999/1" value="0" leadInLength="0/1"  />
            <InterpolatingParam id="2069" interp="linr"  time="-9999999/1" value="0" leadInLength="0/1"  />
            <InterpolatingParam id="2070" interp="linr"  time="-9999999/1" value="0" leadInLength="0/1"  />
            <InterpolatingParam id="2071" interp="linr"  time="-9999999/1" value="0" leadInLength="0/1"  />
           </VectorParam>
           <InterpolatingParam id="2072" interp="linr"  time="-9999999/1" value="1" leadInLength="0/1"  name="opacity"/>
          </Parameters>
          <Attributes>
           <Attribute id="2073" value="" name="ident"/>
          </Attributes>
          <ExtraData>
           <Entry key="ZoomPanBin">
            <ZoomPanBin id="2074"  >
             <ZoomPanKeyframes>
              <ZoomPanKeyframe id="2075" timeRangeEnd="-9999999/1" timeRangeDuration="0/1" interpolaterName="linr"  />
             </ZoomPanKeyframes>
            </ZoomPanBin>
           </Entry>
          </ExtraData>
         </VMFile>
         <MetaData>
          <entry key="WinSubProjectDisplayName" val=""/>
         </MetaData>
        </UnifiedMedia>
        <UnifiedMedia id="2076"  >
         <AudioTransition id="2077" start="2043" duration="30" >
          <Parameters>
           <InterpolatingParam id="2078" interp="linr"  time="0/1" value="1" leadInLength="0/1"  name="volume"/>
           <Parameter id="2079"  name="captions"/>
          </Parameters>
          <Effects>
           <GenericEffect id="2080" name = "AudioTransition" >
            <Parameters>
            <Parameter id="2081"   name="audioEdgeModType">
             <Keyframes>
             <Keyframe id="2082"  time="0/1" value="0" leadInLength="0/1"  />
             </Keyframes>
            </Parameter>
            <Parameter id="2083"   name="audioTransitionType">
             <Keyframes>
             <Keyframe id="2084"  time="0/1" value="" leadInLength="0/1"  />
             </Keyframes>
            </Parameter>
            </Parameters>
            <MetaData>
            </MetaData>
           </GenericEffect>
          </Effects>
          <Attributes>
           <Attribute id="2085" value="" name="ident"/>
           <Attribute id="2086" value="0" name="sampleRate"/>
           <Attribute id="2087" value="0" name="bitDepth"/>
           <Attribute id="2088" value="1" name="gain"/>
           <Attribute id="2089" value="0" name="mixToMono"/>
          </Attributes>
         </AudioTransition>
         <ImageTransition id="2090" start="2043" duration="30" >
          <Transformer>
           <VectorParam id="2091"  name="translation">
            <InterpolatingParam id="2092" interp="linr"  time="0/1" value="0" leadInLength="0/1"  />
            <InterpolatingParam id="2093" interp="linr"  time="0/1" value="0" leadInLength="0/1"  />
            <InterpolatingParam id="2094" interp="linr"  time="0/1" value="0" leadInLength="0/1"  />
           </VectorParam>
           <VectorParam id="2095"  name="rotation">
            <InterpolatingParam id="2096" interp="linr"  time="0/1" value="0" leadInLength="0/1"  />
            <InterpolatingParam id="2097" interp="linr"  time="0/1" value="0" leadInLength="0/1"  />
            <InterpolatingParam id="2098" interp="linr"  time="0/1" value="0" leadInLength="0/1"  />
           </VectorParam>
           <VectorParam id="2099"  name="shear">
            <InterpolatingParam id="2100" interp="linr"  time="0/1" value="0" leadInLength="0/1"  />
            <InterpolatingParam id="2101" interp="linr"  time="0/1" value="0" leadInLength="0/1"  />
            <InterpolatingParam id="2102" interp="linr"  time="0/1" value="0" leadInLength="0/1"  />
           </VectorParam>
           <VectorParam id="2103"  name="scale">
            <InterpolatingParam id="2104" interp="linr"  time="0/1" value="1" leadInLength="0/1"  />
            <InterpolatingParam id="2105" interp="linr"  time="0/1" value="1" leadInLength="0/1"  />
            <InterpolatingParam id="2106" interp="linr"  time="0/1" value="1" leadInLength="0/1"  />
           </VectorParam>
           <VectorParam id="2107"  name="anchor">
            <InterpolatingParam id="2108" interp="linr"  time="0/1" value="0" leadInLength="0/1"  />
            <InterpolatingParam id="2109" interp="linr"  time="0/1" value="0" leadInLength="0/1"  />
            <InterpolatingParam id="2110" interp="linr"  time="0/1" value="0" leadInLength="0/1"  />
           </VectorParam>
          </Transformer>
          <Parameters>
           <VectorParam id="2111"  name="sourceCrop">
            <InterpolatingParam id="2112" interp="linr"  time="0/1" value="0" leadInLength="0/1"  />
            <InterpolatingParam id="2113" interp="linr"  time="0/1" value="0" leadInLength="0/1"  />
            <InterpolatingParam id="2114" interp="linr"  time="0/1" value="0" leadInLength="0/1"  />
            <InterpolatingParam id="2115" interp="linr"  time="0/1" value="0" leadInLength="0/1"  />
           </VectorParam>
           <VectorParam id="2116"  name="geometryCrop">
            <InterpolatingParam id="2117" interp="linr"  time="0/1" value="0" leadInLength="0/1"  />
            <InterpolatingParam id="2118" interp="linr"  time="0/1" value="0" leadInLength="0/1"  />
            <InterpolatingParam id="2119" interp="linr"  time="0/1" value="0" leadInLength="0/1"  />
            <InterpolatingParam id="2120" interp="linr"  time="0/1" value="0" leadInLength="0/1"  />
           </VectorParam>
           <InterpolatingParam id="2121" interp="linr"  time="0/1" value="1" leadInLength="0/1"  name="opacity"/>
          </Parameters>
          <Effects>
           <GenericEffect id="2122" name = "VisualTransition" >
            <Parameters>
            <InterpolatingParam id="2123" interp="linr"  time="0/1" value="1" leadInLength="0/1"   name="leftFramePercentage"/>
            <InterpolatingParam id="2124" interp="linr"  time="0/1" value="1" leadInLength="0/1"   name="rightFramePercentage"/>
            <Parameter id="2125"   name="visualEdgeModType">
             <Keyframes>
             <Keyframe id="2126"  time="0/1" value="0" leadInLength="0/1"  />
             </Keyframes>
            </Parameter>
            <Parameter id="2127"   name="visualTransitionType">
             <Keyframes>
             <Keyframe id="2128"  time="0/1" value="Fade" leadInLength="0/1"  />
             </Keyframes>
            </Parameter>
            </Parameters>
            <MetaData>
            </MetaData>
           </GenericEffect>
          </Effects>
          <Attributes>
           <Attribute id="2129" value="" name="ident"/>
          </Attributes>
          <ExtraData>
           <Entry key="ZoomPanBin">
            <ZoomPanBin id="2130"  >
             <ZoomPanKeyframes>
             </ZoomPanKeyframes>
            </ZoomPanBin>
           </Entry>
          </ExtraData>
         </ImageTransition>
         <MetaData>
          <entry key="WinSubProjectDisplayName" val=""/>
         </MetaData>
        </UnifiedMedia>
        <UnifiedMedia id="2131"  >
         <AMFile id="2132" start="2073" duration="199" scalar="1/1" mediaStart="402/1" mediaDuration="199/1" trackNumber="1" src="15" channelNumber="0,1" >
          <Parameters>
           <InterpolatingParam id="2133" interp="linr"  time="0/1" value="0" leadInLength="0/1"  name="volume"/>
           <Parameter id="2134"  name="captions"/>
          </Parameters>
          <Attributes>
           <Attribute id="2135" value="" name="ident"/>
           <Attribute id="2136" value="44100" name="sampleRate"/>
           <Attribute id="2137" value="16" name="bitDepth"/>
           <Attribute id="2138" value="1" name="gain"/>
           <Attribute id="2139" value="0" name="mixToMono"/>
          </Attributes>
         </AMFile>
         <VMFile id="2140" start="2073" duration="199" scalar="1/1" mediaStart="402/1" mediaDuration="199/1" trackNumber="0" src="15" >
          <Transformer>
           <VectorParam id="2141"  name="translation">
            <InterpolatingParam id="2142" interp="linr"  time="-9999999/1" value="-3.4231378766780991" leadInLength="0/1"  />
            <InterpolatingParam id="2143" interp="linr"  time="-9999999/1" value="15.404120443740693" leadInLength="0/1"  />
            <InterpolatingParam id="2144" interp="linr"  time="-9999999/1" value="0" leadInLength="0/1"  />
           </VectorParam>
           <VectorParam id="2145"  name="rotation">
            <InterpolatingParam id="2146" interp="linr"  time="-9999999/1" value="0" leadInLength="0/1"  />
            <InterpolatingParam id="2147" interp="linr"  time="-9999999/1" value="0" leadInLength="0/1"  />
            <InterpolatingParam id="2148" interp="linr"  time="-9999999/1" value="0" leadInLength="0/1"  />
           </VectorParam>
           <VectorParam id="2149"  name="shear">
            <InterpolatingParam id="2150" interp="linr"  time="-9999999/1" value="0" leadInLength="0/1"  />
            <InterpolatingParam id="2151" interp="linr"  time="-9999999/1" value="0" leadInLength="0/1"  />
            <InterpolatingParam id="2152" interp="linr"  time="-9999999/1" value="0" leadInLength="0/1"  />
           </VectorParam>
           <VectorParam id="2153"  name="scale">
            <InterpolatingParam id="2154" interp="linr"  time="-9999999/1" value="0.59891706286350921" leadInLength="0/1"  />
            <InterpolatingParam id="2155" interp="linr"  time="-9999999/1" value="0.69556745549169607" leadInLength="0/1"  />
            <InterpolatingParam id="2156" interp="linr"  time="-9999999/1" value="1" leadInLength="0/1"  />
           </VectorParam>
           <VectorParam id="2157"  name="anchor">
            <InterpolatingParam id="2158" interp="linr"  time="0/1" value="0" leadInLength="0/1"  />
            <InterpolatingParam id="2159" interp="linr"  time="0/1" value="0" leadInLength="0/1"  />
            <InterpolatingParam id="2160" interp="linr"  time="0/1" value="0" leadInLength="0/1"  />
           </VectorParam>
          </Transformer>
          <Parameters>
           <VectorParam id="2161"  name="sourceCrop">
            <InterpolatingParam id="2162" interp="linr"  time="0/1" value="0" leadInLength="0/1"  />
            <InterpolatingParam id="2163" interp="linr"  time="0/1" value="0" leadInLength="0/1"  />
            <InterpolatingParam id="2164" interp="linr"  time="0/1" value="0" leadInLength="0/1"  />
            <InterpolatingParam id="2165" interp="linr"  time="0/1" value="0" leadInLength="0/1"  />
           </VectorParam>
           <VectorParam id="2166"  name="geometryCrop">
            <InterpolatingParam id="2167" interp="linr"  time="-9999999/1" value="0" leadInLength="0/1"  />
            <InterpolatingParam id="2168" interp="linr"  time="-9999999/1" value="0" leadInLength="0/1"  />
            <InterpolatingParam id="2169" interp="linr"  time="-9999999/1" value="0" leadInLength="0/1"  />
            <InterpolatingParam id="2170" interp="linr"  time="-9999999/1" value="0" leadInLength="0/1"  />
           </VectorParam>
           <InterpolatingParam id="2171" interp="linr"  time="-9999999/1" value="1" leadInLength="0/1"  name="opacity"/>
          </Parameters>
          <Attributes>
           <Attribute id="2172" value="" name="ident"/>
          </Attributes>
          <ExtraData>
           <Entry key="ZoomPanBin">
            <ZoomPanBin id="2173"  >
             <ZoomPanKeyframes>
              <ZoomPanKeyframe id="2174" timeRangeEnd="-9999999/1" timeRangeDuration="0/1" interpolaterName="linr"  />
             </ZoomPanKeyframes>
            </ZoomPanBin>
           </Entry>
          </ExtraData>
         </VMFile>
         <MetaData>
          <entry key="WinSubProjectDisplayName" val=""/>
         </MetaData>
        </UnifiedMedia>
       </Medias>
      </GenericTrack>
      <GenericTrack id="2175"  >
       <Attributes>
        <Attribute id="2176" value="" name="ident"/>
        <Attribute id="2177" value="0" name="audioMuted"/>
        <Attribute id="2178" value="0" name="videoHidden"/>
       </Attributes>
       <MetaData>
        <entry key="IsLocked" val="False"/>
        <entry key="WinTrackHeight" val="56.704545454545439"/>
       </MetaData>
       <Medias>
        <Callout id="2179" start="0" duration="146" scalar="1/1" mediaStart="150/1" mediaDuration="146/1" >
         <Transformer>
          <VectorParam id="2180"  name="translation">
           <InterpolatingParam id="2181" interp="linr"  time="-9999999/1" value="-5.3887561080045998e-011" leadInLength="0/1"  />
           <InterpolatingParam id="2182" interp="linr"  time="-9999999/1" value="7.6795458880951628e-011" leadInLength="0/1"  />
           <InterpolatingParam id="2183" interp="linr"  time="-9999999/1" value="0" leadInLength="0/1"  />
          </VectorParam>
          <VectorParam id="2184"  name="rotation">
           <InterpolatingParam id="2185" interp="linr"  time="-9999999/1" value="0" leadInLength="0/1"  />
           <InterpolatingParam id="2186" interp="linr"  time="-9999999/1" value="0" leadInLength="0/1"  />
           <InterpolatingParam id="2187" interp="linr"  time="-9999999/1" value="0" leadInLength="0/1"  />
          </VectorParam>
          <VectorParam id="2188"  name="shear">
           <InterpolatingParam id="2189" interp="linr"  time="-9999999/1" value="0" leadInLength="0/1"  />
           <InterpolatingParam id="2190" interp="linr"  time="-9999999/1" value="0" leadInLength="0/1"  />
           <InterpolatingParam id="2191" interp="linr"  time="-9999999/1" value="0" leadInLength="0/1"  />
          </VectorParam>
          <VectorParam id="2192"  name="scale">
           <InterpolatingParam id="2193" interp="linr"  time="-9999999/1" value="4.183006535947654" leadInLength="0/1"  />
           <InterpolatingParam id="2194" interp="linr"  time="-9999999/1" value="3.1718061674007987" leadInLength="0/1"  />
           <InterpolatingParam id="2195" interp="linr"  time="-9999999/1" value="1" leadInLength="0/1"  />
          </VectorParam>
          <VectorParam id="2196"  name="anchor">
           <InterpolatingParam id="2197" interp="linr"  time="0/1" value="0" leadInLength="0/1"  />
           <InterpolatingParam id="2198" interp="linr"  time="0/1" value="0" leadInLength="0/1"  />
           <InterpolatingParam id="2199" interp="linr"  time="0/1" value="0" leadInLength="0/1"  />
          </VectorParam>
         </Transformer>
         <Parameters>
          <VectorParam id="2200"  name="sourceCrop">
           <InterpolatingParam id="2201" interp="linr"  time="0/1" value="0" leadInLength="0/1"  />
           <InterpolatingParam id="2202" interp="linr"  time="0/1" value="0" leadInLength="0/1"  />
           <InterpolatingParam id="2203" interp="linr"  time="0/1" value="0" leadInLength="0/1"  />
           <InterpolatingParam id="2204" interp="linr"  time="0/1" value="0" leadInLength="0/1"  />
          </VectorParam>
          <VectorParam id="2205"  name="geometryCrop">
           <InterpolatingParam id="2206" interp="linr"  time="-9999999/1" value="0" leadInLength="0/1"  />
           <InterpolatingParam id="2207" interp="linr"  time="-9999999/1" value="0" leadInLength="0/1"  />
           <InterpolatingParam id="2208" interp="linr"  time="-9999999/1" value="0" leadInLength="0/1"  />
           <InterpolatingParam id="2209" interp="linr"  time="-9999999/1" value="0" leadInLength="0/1"  />
          </VectorParam>
          <InterpolatingParam id="2210" interp="linr"  time="-9999999/1" value="1" leadInLength="0/1"  name="opacity"/>
         </Parameters>
         <Effects>
          <GenericEffect id="2211" name = "DropShadow" >
           <Parameters>
           <InterpolatingParam id="2212" interp="linr"  time="0/1" value="315" leadInLength="0/1"   name="angle"/>
           <InterpolatingParam id="2213" interp="linr"  time="0/1" value="2" leadInLength="0/1"   name="blur"/>
           <Parameter id="2214"   name="enabled">
            <Keyframes>
            <Keyframe id="2215"  time="0/1" value="1" leadInLength="0/1"  />
            </Keyframes>
           </Parameter>
           <InterpolatingParam id="2216" interp="linr"  time="0/1" value="4" leadInLength="0/1"   name="offset"/>
           <InterpolatingParam id="2217" interp="linr"  time="0/1" value="0.75" leadInLength="0/1"   name="opacity"/>
           </Parameters>
          </GenericEffect>
         </Effects>
         <Attributes>
          <Attribute id="2218"  name="vectorNode">
           <VectorNode id="2219" kind="TypeWinXML"  >
            <DoubleParameters>
             <InterpolatingParam id="2220" interp="linr"  time="0/1" value="-1" leadInLength="0/1"  name="CutoutPercentage"/>
             <InterpolatingParam id="2221" interp="linr"  time="0/1" value="30" leadInLength="0/1"  name="RoundedRectRadius"/>
             <InterpolatingParam id="2222" interp="linr"  time="0/1" value="5" leadInLength="0/1"  name="Style"/>
             <InterpolatingParam id="2223" interp="linr"  time="0/1" value="215" leadInLength="0/1"  name="borderColorBlue"/>
             <InterpolatingParam id="2224" interp="linr"  time="0/1" value="215" leadInLength="0/1"  name="borderColorGreen"/>
             <InterpolatingParam id="2225" interp="linr"  time="0/1" value="215" leadInLength="0/1"  name="borderColorRed"/>
             <InterpolatingParam id="2226" interp="linr"  time="0/1" value="0" leadInLength="0/1"  name="borderState"/>
             <InterpolatingParam id="2227" interp="linr"  time="0/1" value="5" leadInLength="0/1"  name="borderWidth"/>
             <InterpolatingParam id="2228" interp="linr"  time="0/1" value="0" leadInLength="0/1"  name="dimensionTime"/>
             <InterpolatingParam id="2229" interp="linr"  time="0/1" value="224" leadInLength="0/1"  name="fillColorBlue"/>
             <InterpolatingParam id="2230" interp="linr"  time="0/1" value="95" leadInLength="0/1"  name="fillColorGreen"/>
             <InterpolatingParam id="2231" interp="linr"  time="0/1" value="0" leadInLength="0/1"  name="fillColorRed"/>
             <InterpolatingParam id="2232" interp="linr"  time="0/1" value="0" leadInLength="0/1"  name="fillState"/>
             <InterpolatingParam id="2233" interp="linr"  time="0/1" value="0" leadInLength="0/1"  name="flipOnXAxis"/>
             <InterpolatingParam id="2234" interp="linr"  time="0/1" value="0" leadInLength="0/1"  name="flipOnYAxis"/>
             <InterpolatingParam id="2235" interp="linr"  time="0/1" value="227" leadInLength="0/1"  name="height"/>
             <InterpolatingParam id="2236" interp="linr"  time="0/1" value="0" leadInLength="0/1"  name="textDropShadow"/>
             <InterpolatingParam id="2237" interp="linr"  time="0/1" value="0" leadInLength="0/1"  name="textIgnoresOpacity"/>
             <InterpolatingParam id="2238" interp="linr"  time="0/1" value="0.86784140969162993" leadInLength="0/1"  name="textRectHeight"/>
             <InterpolatingParam id="2239" interp="linr"  time="0/1" value="0.90196078431372551" leadInLength="0/1"  name="textRectWidth"/>
             <InterpolatingParam id="2240" interp="linr"  time="0/1" value="0.049019607843137254" leadInLength="0/1"  name="textRectX"/>
             <InterpolatingParam id="2241" interp="linr"  time="0/1" value="0.066079295154185022" leadInLength="0/1"  name="textRectY"/>
             <InterpolatingParam id="2242" interp="linr"  time="0/1" value="0" leadInLength="0/1"  name="textVerticalAlign"/>
             <InterpolatingParam id="2243" interp="linr"  time="0/1" value="306" leadInLength="0/1"  name="width"/>
            </DoubleParameters>
            <StringParameters>
             <Parameter id="2244"  name="VectorPath">
              <Keyframes>
              <Keyframe id="2245"  time="0/1" value="M10,0h286c5.521,0,10,4.477,10,10v207c0,5.521-4.479,10-10,10H10c-5.523,0-10-4.479-10-10V10&#xa;&#x9;C0,4.477,4.477,0,10,0z" leadInLength="0/1"  />
              </Keyframes>
             </Parameter>
             <Parameter id="2246"  name="filename">
              <Keyframes>
              <Keyframe id="2247"  time="0/1" value="C:\Program Files (x86)\Camtasia Studio 8\Media\Studio\Callouts\roundedrectangle.xml" leadInLength="0/1"  />
              </Keyframes>
             </Parameter>
             <Parameter id="2248"  name="name">
              <Keyframes>
              <Keyframe id="2249"  time="0/1" value="Filled Rounded Rectangle" leadInLength="0/1"  />
              </Keyframes>
             </Parameter>
             <Parameter id="2250"  name="text">
              <Keyframes>
              <Keyframe id="2251"  time="0/1" value="{\rtf1\ansi\ansicpg1252\deff0\deflang1033{\fonttbl{\f0\fswiss\fprq2\fcharset0 Arial;}}&#xD;&#xa;{\colortbl ;\red255\green255\blue255;}&#xD;&#xa;\viewkind4\uc1\pard\qc\cf1\f0\fs144 Something About Lasers\fs32\par&#xD;&#xa;\fs72 Lewis Jones\par&#xD;&#xa;\par&#xD;&#xa;\fs36 Gamers To Engineers Project\par&#xD;&#xa;http://divf.eng.cam.ac.uk/gam2eng/Main/WebHome\fs96\par&#xD;&#xa;}&#xD;&#xa;" leadInLength="0/1"  />
              </Keyframes>
             </Parameter>
             <Parameter id="2252"  name="xmlContent">
              <Keyframes>
              <Keyframe id="2253"  time="0/1" value="﻿&lt;?xml version=&quot;1.0&quot;?&gt;&#xa;&#xa;&lt;Overlay version=&quot;1.0.1&quot;&gt;&#xa;&#xa;&lt;Overlay_Filename&gt;roundedrectangle.png&lt;/Overlay_Filename&gt;&#xa;&lt;Overlay_Name&gt;Filled Rounded Rectangle&lt;/Overlay_Name&gt;&#xa;&lt;Text_Top&gt;15&lt;/Text_Top&gt;&#xa;&lt;Text_Left&gt;15&lt;/Text_Left&gt;&#xa;&lt;Text_Bottom&gt;15&lt;/Text_Bottom&gt;&#xa;&lt;Text_Right&gt;15&lt;/Text_Right&gt;&#xa;&lt;Fill_Color&gt;1&lt;/Fill_Color&gt;&#xa;&lt;Border_Color&gt;1&lt;/Border_Color&gt;&#xa;&lt;Initial_Fill_Color&gt;0xffe05f00&lt;/Initial_Fill_Color&gt;&#xa;&lt;Initial_Border_Color&gt;0xffd7d7d7&lt;/Initial_Border_Color&gt;&#xa;&lt;VectorProps&gt;&#xa;&lt;figure&gt;&#xa;&lt;svg&gt;M10,0h286c5.521,0,10,4.477,10,10v207c0,5.521-4.479,10-10,10H10c-5.523,0-10-4.479-10-10V10&#xa;&#x9;C0,4.477,4.477,0,10,0z&lt;/svg&gt;&#xa;&lt;/figure&gt;&#xa;&lt;borderWidth&gt;5.00&lt;/borderWidth&gt;&#xa;&lt;seamY&gt;-1&lt;/seamY&gt;&#xa;&lt;roundedRectRadius&gt;30&lt;/roundedRectRadius&gt;&#xa;&lt;shapeWidth&gt;306&lt;/shapeWidth&gt;&#xa;&lt;shapeHeight&gt;227&lt;/shapeHeight&gt;&#xa;&lt;/VectorProps&gt;&#xa;&lt;Style&gt;5&lt;/Style&gt;&#xa;&lt;/Overlay&gt;" leadInLength="0/1"  />
              </Keyframes>
             </Parameter>
            </StringParameters>
           </VectorNode>
          </Attribute>
         </Attributes>
         <MetaData>
          <entry key="WinSubProjectDisplayName" val=""/>
         </MetaData>
         <LeftEdgeMods length="0/1" groupName="OpacityFade">
          <EdgeMod parameter="2210">
           <FadeInFunc id="2254"  />
          </EdgeMod>
         </LeftEdgeMods>
         <RightEdgeMods length="15/1" groupName="OpacityFade">
          <EdgeMod parameter="2210">
           <FadeOutFunc id="2255"  />
          </EdgeMod>
         </RightEdgeMods>
         <ExtraData>
          <Entry key="ZoomPanBin">
           <ZoomPanBin id="2256"  >
            <ZoomPanKeyframes>
             <ZoomPanKeyframe id="2257" timeRangeEnd="-9999999/1" timeRangeDuration="0/1" interpolaterName="linr"  />
            </ZoomPanKeyframes>
           </ZoomPanBin>
          </Entry>
         </ExtraData>
        </Callout>
        <AMFile id="2258" start="250" duration="24" scalar="1/1" mediaStart="0/1" mediaDuration="24/1" trackNumber="0" src="13" channelNumber="0,1" >
         <Parameters>
          <InterpolatingParam id="2259" interp="linr"  time="0/1" value="1" leadInLength="0/1"  name="volume"/>
          <Parameter id="2260"  name="captions"/>
         </Parameters>
         <Attributes>
          <Attribute id="2261" value="" name="ident"/>
          <Attribute id="2262" value="44100" name="sampleRate"/>
          <Attribute id="2263" value="16" name="bitDepth"/>
          <Attribute id="2264" value="1" name="gain"/>
          <Attribute id="2265" value="0" name="mixToMono"/>
         </Attributes>
         <MetaData>
          <entry key="WinSubProjectDisplayName" val=""/>
         </MetaData>
        </AMFile>
        <AMFile id="2266" start="488" duration="24" scalar="1/1" mediaStart="0/1" mediaDuration="24/1" trackNumber="0" src="13" channelNumber="0,1" >
         <Parameters>
          <InterpolatingParam id="2267" interp="linr"  time="0/1" value="1" leadInLength="0/1"  name="volume"/>
          <Parameter id="2268"  name="captions"/>
         </Parameters>
         <Attributes>
          <Attribute id="2269" value="" name="ident"/>
          <Attribute id="2270" value="44100" name="sampleRate"/>
          <Attribute id="2271" value="16" name="bitDepth"/>
          <Attribute id="2272" value="1" name="gain"/>
          <Attribute id="2273" value="0" name="mixToMono"/>
         </Attributes>
         <MetaData>
          <entry key="WinSubProjectDisplayName" val=""/>
         </MetaData>
        </AMFile>
        <AMFile id="2274" start="693" duration="24" scalar="1/1" mediaStart="0/1" mediaDuration="24/1" trackNumber="0" src="13" channelNumber="0,1" >
         <Parameters>
          <InterpolatingParam id="2275" interp="linr"  time="0/1" value="1" leadInLength="0/1"  name="volume"/>
          <Parameter id="2276"  name="captions"/>
         </Parameters>
         <Attributes>
          <Attribute id="2277" value="" name="ident"/>
          <Attribute id="2278" value="44100" name="sampleRate"/>
          <Attribute id="2279" value="16" name="bitDepth"/>
          <Attribute id="2280" value="1" name="gain"/>
          <Attribute id="2281" value="0" name="mixToMono"/>
         </Attributes>
         <MetaData>
          <entry key="WinSubProjectDisplayName" val=""/>
         </MetaData>
        </AMFile>
        <AMFile id="2282" start="911" duration="24" scalar="1/1" mediaStart="0/1" mediaDuration="24/1" trackNumber="0" src="13" channelNumber="0,1" >
         <Parameters>
          <InterpolatingParam id="2283" interp="linr"  time="0/1" value="1" leadInLength="0/1"  name="volume"/>
          <Parameter id="2284"  name="captions"/>
         </Parameters>
         <Attributes>
          <Attribute id="2285" value="" name="ident"/>
          <Attribute id="2286" value="44100" name="sampleRate"/>
          <Attribute id="2287" value="16" name="bitDepth"/>
          <Attribute id="2288" value="1" name="gain"/>
          <Attribute id="2289" value="0" name="mixToMono"/>
         </Attributes>
         <MetaData>
          <entry key="WinSubProjectDisplayName" val=""/>
         </MetaData>
        </AMFile>
        <Callout id="2290" start="2272" duration="210" scalar="1/1" mediaStart="135/1" mediaDuration="210/1" >
         <Transformer>
          <VectorParam id="2291"  name="translation">
           <InterpolatingParam id="2292" interp="linr"  time="-9999999/1" value="-5.3887561080045998e-011" leadInLength="0/1"  />
           <InterpolatingParam id="2293" interp="linr"  time="-9999999/1" value="7.6795458880951628e-011" leadInLength="0/1"  />
           <InterpolatingParam id="2294" interp="linr"  time="-9999999/1" value="0" leadInLength="0/1"  />
          </VectorParam>
          <VectorParam id="2295"  name="rotation">
           <InterpolatingParam id="2296" interp="linr"  time="-9999999/1" value="0" leadInLength="0/1"  />
           <InterpolatingParam id="2297" interp="linr"  time="-9999999/1" value="0" leadInLength="0/1"  />
           <InterpolatingParam id="2298" interp="linr"  time="-9999999/1" value="0" leadInLength="0/1"  />
          </VectorParam>
          <VectorParam id="2299"  name="shear">
           <InterpolatingParam id="2300" interp="linr"  time="-9999999/1" value="0" leadInLength="0/1"  />
           <InterpolatingParam id="2301" interp="linr"  time="-9999999/1" value="0" leadInLength="0/1"  />
           <InterpolatingParam id="2302" interp="linr"  time="-9999999/1" value="0" leadInLength="0/1"  />
          </VectorParam>
          <VectorParam id="2303"  name="scale">
           <InterpolatingParam id="2304" interp="linr"  time="-9999999/1" value="4.183006535947654" leadInLength="0/1"  />
           <InterpolatingParam id="2305" interp="linr"  time="-9999999/1" value="3.1718061674007987" leadInLength="0/1"  />
           <InterpolatingParam id="2306" interp="linr"  time="-9999999/1" value="1" leadInLength="0/1"  />
          </VectorParam>
          <VectorParam id="2307"  name="anchor">
           <InterpolatingParam id="2308" interp="linr"  time="0/1" value="0" leadInLength="0/1"  />
           <InterpolatingParam id="2309" interp="linr"  time="0/1" value="0" leadInLength="0/1"  />
           <InterpolatingParam id="2310" interp="linr"  time="0/1" value="0" leadInLength="0/1"  />
          </VectorParam>
         </Transformer>
         <Parameters>
          <VectorParam id="2311"  name="sourceCrop">
           <InterpolatingParam id="2312" interp="linr"  time="0/1" value="0" leadInLength="0/1"  />
           <InterpolatingParam id="2313" interp="linr"  time="0/1" value="0" leadInLength="0/1"  />
           <InterpolatingParam id="2314" interp="linr"  time="0/1" value="0" leadInLength="0/1"  />
           <InterpolatingParam id="2315" interp="linr"  time="0/1" value="0" leadInLength="0/1"  />
          </VectorParam>
          <VectorParam id="2316"  name="geometryCrop">
           <InterpolatingParam id="2317" interp="linr"  time="-9999999/1" value="0" leadInLength="0/1"  />
           <InterpolatingParam id="2318" interp="linr"  time="-9999999/1" value="0" leadInLength="0/1"  />
           <InterpolatingParam id="2319" interp="linr"  time="-9999999/1" value="0" leadInLength="0/1"  />
           <InterpolatingParam id="2320" interp="linr"  time="-9999999/1" value="0" leadInLength="0/1"  />
          </VectorParam>
          <InterpolatingParam id="2321" interp="linr"  time="-9999999/1" value="1" leadInLength="0/1"  name="opacity"/>
         </Parameters>
         <Effects>
          <GenericEffect id="2322" name = "DropShadow" >
           <Parameters>
           <InterpolatingParam id="2323" interp="linr"  time="0/1" value="315" leadInLength="0/1"   name="angle"/>
           <InterpolatingParam id="2324" interp="linr"  time="0/1" value="2" leadInLength="0/1"   name="blur"/>
           <Parameter id="2325"   name="enabled">
            <Keyframes>
            <Keyframe id="2326"  time="0/1" value="1" leadInLength="0/1"  />
            </Keyframes>
           </Parameter>
           <InterpolatingParam id="2327" interp="linr"  time="0/1" value="4" leadInLength="0/1"   name="offset"/>
           <InterpolatingParam id="2328" interp="linr"  time="0/1" value="0.75" leadInLength="0/1"   name="opacity"/>
           </Parameters>
          </GenericEffect>
         </Effects>
         <Attributes>
          <Attribute id="2329"  name="vectorNode">
           <VectorNode id="2330" kind="TypeWinXML"  >
            <DoubleParameters>
             <InterpolatingParam id="2331" interp="linr"  time="0/1" value="-1" leadInLength="0/1"  name="CutoutPercentage"/>
             <InterpolatingParam id="2332" interp="linr"  time="0/1" value="30" leadInLength="0/1"  name="RoundedRectRadius"/>
             <InterpolatingParam id="2333" interp="linr"  time="0/1" value="5" leadInLength="0/1"  name="Style"/>
             <InterpolatingParam id="2334" interp="linr"  time="0/1" value="215" leadInLength="0/1"  name="borderColorBlue"/>
             <InterpolatingParam id="2335" interp="linr"  time="0/1" value="215" leadInLength="0/1"  name="borderColorGreen"/>
             <InterpolatingParam id="2336" interp="linr"  time="0/1" value="215" leadInLength="0/1"  name="borderColorRed"/>
             <InterpolatingParam id="2337" interp="linr"  time="0/1" value="0" leadInLength="0/1"  name="borderState"/>
             <InterpolatingParam id="2338" interp="linr"  time="0/1" value="5" leadInLength="0/1"  name="borderWidth"/>
             <InterpolatingParam id="2339" interp="linr"  time="0/1" value="0" leadInLength="0/1"  name="dimensionTime"/>
             <InterpolatingParam id="2340" interp="linr"  time="0/1" value="224" leadInLength="0/1"  name="fillColorBlue"/>
             <InterpolatingParam id="2341" interp="linr"  time="0/1" value="95" leadInLength="0/1"  name="fillColorGreen"/>
             <InterpolatingParam id="2342" interp="linr"  time="0/1" value="0" leadInLength="0/1"  name="fillColorRed"/>
             <InterpolatingParam id="2343" interp="linr"  time="0/1" value="0" leadInLength="0/1"  name="fillState"/>
             <InterpolatingParam id="2344" interp="linr"  time="0/1" value="0" leadInLength="0/1"  name="flipOnXAxis"/>
             <InterpolatingParam id="2345" interp="linr"  time="0/1" value="0" leadInLength="0/1"  name="flipOnYAxis"/>
             <InterpolatingParam id="2346" interp="linr"  time="0/1" value="227" leadInLength="0/1"  name="height"/>
             <InterpolatingParam id="2347" interp="linr"  time="0/1" value="0" leadInLength="0/1"  name="textDropShadow"/>
             <InterpolatingParam id="2348" interp="linr"  time="0/1" value="0" leadInLength="0/1"  name="textIgnoresOpacity"/>
             <InterpolatingParam id="2349" interp="linr"  time="0/1" value="0.86784140969162993" leadInLength="0/1"  name="textRectHeight"/>
             <InterpolatingParam id="2350" interp="linr"  time="0/1" value="0.90196078431372551" leadInLength="0/1"  name="textRectWidth"/>
             <InterpolatingParam id="2351" interp="linr"  time="0/1" value="0.049019607843137254" leadInLength="0/1"  name="textRectX"/>
             <InterpolatingParam id="2352" interp="linr"  time="0/1" value="0.066079295154185022" leadInLength="0/1"  name="textRectY"/>
             <InterpolatingParam id="2353" interp="linr"  time="0/1" value="0" leadInLength="0/1"  name="textVerticalAlign"/>
             <InterpolatingParam id="2354" interp="linr"  time="0/1" value="306" leadInLength="0/1"  name="width"/>
            </DoubleParameters>
            <StringParameters>
             <Parameter id="2355"  name="VectorPath">
              <Keyframes>
              <Keyframe id="2356"  time="0/1" value="M10,0h286c5.521,0,10,4.477,10,10v207c0,5.521-4.479,10-10,10H10c-5.523,0-10-4.479-10-10V10&#xa;&#x9;C0,4.477,4.477,0,10,0z" leadInLength="0/1"  />
              </Keyframes>
             </Parameter>
             <Parameter id="2357"  name="filename">
              <Keyframes>
              <Keyframe id="2358"  time="0/1" value="C:\Program Files (x86)\Camtasia Studio 8\Media\Studio\Callouts\roundedrectangle.xml" leadInLength="0/1"  />
              </Keyframes>
             </Parameter>
             <Parameter id="2359"  name="name">
              <Keyframes>
              <Keyframe id="2360"  time="0/1" value="Filled Rounded Rectangle" leadInLength="0/1"  />
              </Keyframes>
             </Parameter>
             <Parameter id="2361"  name="text">
              <Keyframes>
              <Keyframe id="2362"  time="0/1" value="{\rtf1\ansi\ansicpg1252\deff0\deflang1033{\fonttbl{\f0\fswiss\fprq2\fcharset0 Arial;}}&#xD;&#xa;{\colortbl ;\red255\green255\blue255;}&#xD;&#xa;\viewkind4\uc1\pard\qc\cf1\f0\fs144 Something About Lasers\fs32\par&#xD;&#xa;\fs72 Lewis Jones\par&#xD;&#xa;\par&#xD;&#xa;\fs36 Gamers To Engineers Project\par&#xD;&#xa;http://divf.eng.cam.ac.uk/gam2eng/Main/WebHome\fs96\par&#xD;&#xa;\par&#xD;&#xa;}&#xD;&#xa;" leadInLength="0/1"  />
              </Keyframes>
             </Parameter>
             <Parameter id="2363"  name="xmlContent">
              <Keyframes>
              <Keyframe id="2364"  time="0/1" value="﻿&lt;?xml version=&quot;1.0&quot;?&gt;&#xa;&#xa;&lt;Overlay version=&quot;1.0.1&quot;&gt;&#xa;&#xa;&lt;Overlay_Filename&gt;roundedrectangle.png&lt;/Overlay_Filename&gt;&#xa;&lt;Overlay_Name&gt;Filled Rounded Rectangle&lt;/Overlay_Name&gt;&#xa;&lt;Text_Top&gt;15&lt;/Text_Top&gt;&#xa;&lt;Text_Left&gt;15&lt;/Text_Left&gt;&#xa;&lt;Text_Bottom&gt;15&lt;/Text_Bottom&gt;&#xa;&lt;Text_Right&gt;15&lt;/Text_Right&gt;&#xa;&lt;Fill_Color&gt;1&lt;/Fill_Color&gt;&#xa;&lt;Border_Color&gt;1&lt;/Border_Color&gt;&#xa;&lt;Initial_Fill_Color&gt;0xffe05f00&lt;/Initial_Fill_Color&gt;&#xa;&lt;Initial_Border_Color&gt;0xffd7d7d7&lt;/Initial_Border_Color&gt;&#xa;&lt;VectorProps&gt;&#xa;&lt;figure&gt;&#xa;&lt;svg&gt;M10,0h286c5.521,0,10,4.477,10,10v207c0,5.521-4.479,10-10,10H10c-5.523,0-10-4.479-10-10V10&#xa;&#x9;C0,4.477,4.477,0,10,0z&lt;/svg&gt;&#xa;&lt;/figure&gt;&#xa;&lt;borderWidth&gt;5.00&lt;/borderWidth&gt;&#xa;&lt;seamY&gt;-1&lt;/seamY&gt;&#xa;&lt;roundedRectRadius&gt;30&lt;/roundedRectRadius&gt;&#xa;&lt;shapeWidth&gt;306&lt;/shapeWidth&gt;&#xa;&lt;shapeHeight&gt;227&lt;/shapeHeight&gt;&#xa;&lt;/VectorProps&gt;&#xa;&lt;Style&gt;5&lt;/Style&gt;&#xa;&lt;/Overlay&gt;" leadInLength="0/1"  />
              </Keyframes>
             </Parameter>
            </StringParameters>
           </VectorNode>
          </Attribute>
         </Attributes>
         <MetaData>
          <entry key="WinSubProjectDisplayName" val=""/>
         </MetaData>
         <LeftEdgeMods length="15/1" groupName="OpacityFade">
          <EdgeMod parameter="2321">
           <FadeInFunc id="2254"  />
          </EdgeMod>
         </LeftEdgeMods>
         <RightEdgeMods length="0/1" groupName="OpacityFade">
          <EdgeMod parameter="2321">
           <FadeOutFunc id="2365"  />
          </EdgeMod>
         </RightEdgeMods>
         <ExtraData>
          <Entry key="ZoomPanBin">
           <ZoomPanBin id="2366"  >
            <ZoomPanKeyframes>
             <ZoomPanKeyframe id="2367" timeRangeEnd="-9999999/1" timeRangeDuration="0/1" interpolaterName="linr"  />
            </ZoomPanKeyframes>
           </ZoomPanBin>
          </Entry>
         </ExtraData>
        </Callout>
       </Medias>
      </GenericTrack>
      <GenericTrack id="2368"  >
       <Attributes>
        <Attribute id="2369" value="" name="ident"/>
        <Attribute id="2370" value="0" name="audioMuted"/>
        <Attribute id="2371" value="0" name="videoHidden"/>
       </Attributes>
       <MetaData>
        <entry key="IsLocked" val="False"/>
        <entry key="WinTrackHeight" val="56.704545454545439"/>
       </MetaData>
       <Medias>
       </Medias>
      </GenericTrack>
      <GenericTrack id="2372"  >
       <Attributes>
        <Attribute id="2373" value="" name="ident"/>
        <Attribute id="2374" value="0" name="audioMuted"/>
        <Attribute id="2375" value="0" name="videoHidden"/>
       </Attributes>
       <MetaData>
        <entry key="IsLocked" val="False"/>
        <entry key="WinTrackHeight" val="56.704545454545439"/>
       </MetaData>
       <Medias>
       </Medias>
      </GenericTrack>
     </Tracks>
    </GenericMixer>
   <CaptionAttributes id="2376"  >
    <Attribute id="2377" value="1" name="captionsEnabled"/>
    <Attribute id="2378" value="Arial" name="captionsFontName"/>
    <Attribute id="2379" value="28" name="captionsFontSize"/>
    <Attribute id="2380" value="(0,0,0,255)" name="captionsBackgroundColor"/>
    <Attribute id="2381" value="(255,255,255,255)" name="captionsForegroundColor"/>
    <Attribute id="2382" value="en" name="lang"/>
    <Attribute id="2383" value="0" name="captionsAlignment"/>
    <Attribute id="2384" value="1" name="captionsDefaultFontSize"/>
    <Attribute id="2385" value="0.5" name="captionsOpacity"/>
    <Attribute id="2386" value="1" name="captionsBackgroundEnabled"/>
    <Attribute id="2387" value="1" name="captionsBackgroundOnlyAroundText"/>
   </CaptionAttributes>
   <Parameters>
    <VectorParam id="2388"  name="eyePosition">
     <InterpolatingParam id="2389" interp="linr"  time="0/1" value="0" leadInLength="0/1"  />
     <InterpolatingParam id="2390" interp="linr"  time="0/1" value="0" leadInLength="0/1"  />
     <InterpolatingParam id="2391" interp="linr"  time="0/1" value="3000" leadInLength="0/1"  />
    </VectorParam>
    <VectorParam id="2392"  name="eyeLookAtPosition">
     <InterpolatingParam id="2393" interp="linr"  time="0/1" value="0" leadInLength="0/1"  />
     <InterpolatingParam id="2394" interp="linr"  time="0/1" value="0" leadInLength="0/1"  />
     <InterpolatingParam id="2395" interp="linr"  time="0/1" value="0" leadInLength="0/1"  />
    </VectorParam>
    <VectorParam id="2396"  name="eyeUpVector">
     <InterpolatingParam id="2397" interp="linr"  time="0/1" value="0" leadInLength="0/1"  />
     <InterpolatingParam id="2398" interp="linr"  time="0/1" value="1" leadInLength="0/1"  />
     <InterpolatingParam id="2399" interp="linr"  time="0/1" value="0" leadInLength="0/1"  />
    </VectorParam>
    <InterpolatingParam id="2400" interp="linr"  time="0/1" value="0.23885785" leadInLength="0/1"  name="fov"/>
    <InterpolatingParam id="2401" interp="linr"  time="0/1" value="1.5" leadInLength="0/1"  name="nearClipDistance"/>
    <InterpolatingParam id="2402" interp="linr"  time="0/1" value="6000" leadInLength="0/1"  name="farClipDistance"/>
   </Parameters>
  </Timeline>
 </Project>
</GoProject>
</CSMLData>

</Project_Data>
